TawuriTifinaghSerif-Regular.ufo
<glyph name="dollar" format="2">
  <advance width="592"/>
  <unicode hex="0024"/>
  <note>
dollar
</note>
  <outline>
    <contour>
      <point x="278" y="-82" type="line"/>
      <point x="330" y="-82" type="line"/>
      <point x="330" y="-4" type="line"/>
      <point x="427" y="7"/>
      <point x="528" y="114"/>
      <point x="528" y="198" type="qcurve" smooth="yes"/>
      <point x="528" y="277"/>
      <point x="431" y="372"/>
      <point x="328" y="399" type="qcurve"/>
      <point x="328" y="656" type="line"/>
      <point x="365" y="654"/>
      <point x="414" y="643"/>
      <point x="428" y="636" type="qcurve"/>
      <point x="428" y="633" type="line"/>
      <point x="385" y="614"/>
      <point x="385" y="571" type="qcurve" smooth="yes"/>
      <point x="385" y="547"/>
      <point x="416" y="510"/>
      <point x="446" y="510" type="qcurve" smooth="yes"/>
      <point x="475" y="510"/>
      <point x="509" y="547"/>
      <point x="509" y="578" type="qcurve" smooth="yes"/>
      <point x="509" y="629"/>
      <point x="414" y="698"/>
      <point x="330" y="703" type="qcurve"/>
      <point x="330" y="780" type="line"/>
      <point x="278" y="780" type="line"/>
      <point x="278" y="703" type="line"/>
      <point x="233" y="699"/>
      <point x="159" y="672"/>
      <point x="106" y="626"/>
      <point x="77" y="563"/>
      <point x="77" y="524" type="qcurve" smooth="yes"/>
      <point x="77" y="441"/>
      <point x="180" y="349"/>
      <point x="280" y="323" type="qcurve"/>
      <point x="280" y="42" type="line"/>
      <point x="235" y="43"/>
      <point x="173" y="55"/>
      <point x="156" y="62" type="qcurve"/>
      <point x="156" y="65" type="line"/>
      <point x="199" y="84"/>
      <point x="199" y="127" type="qcurve" smooth="yes"/>
      <point x="199" y="151"/>
      <point x="168" y="188"/>
      <point x="138" y="188" type="qcurve" smooth="yes"/>
      <point x="109" y="188"/>
      <point x="75" y="151"/>
      <point x="75" y="120" type="qcurve" smooth="yes"/>
      <point x="75" y="68"/>
      <point x="184" y="-3"/>
      <point x="278" y="-6" type="qcurve"/>
    </contour>
    <contour>
      <point x="280" y="412" type="line"/>
      <point x="214" y="429"/>
      <point x="149" y="490"/>
      <point x="149" y="540" type="qcurve" smooth="yes"/>
      <point x="149" y="588"/>
      <point x="216" y="650"/>
      <point x="280" y="655" type="qcurve"/>
    </contour>
    <contour>
      <point x="328" y="311" type="line"/>
      <point x="392" y="297"/>
      <point x="458" y="231"/>
      <point x="458" y="177" type="qcurve" smooth="yes"/>
      <point x="458" y="120"/>
      <point x="394" y="52"/>
      <point x="328" y="44" type="qcurve"/>
    </contour>
  </outline>
</glyph>
<glyph name="percent" format="2">
  <advance width="913"/>
  <unicode hex="0025"/>
  <note>
percent
</note>
  <outline>
    <contour>
      <point x="137" y="354"/>
      <point x="137" y="473" type="qcurve" smooth="yes"/>
      <point x="137" y="551" type="line" smooth="yes"/>
      <point x="137" y="670"/>
      <point x="223" y="670" type="qcurve" smooth="yes"/>
      <point x="309" y="670"/>
      <point x="309" y="551" type="qcurve" smooth="yes"/>
      <point x="309" y="473" type="line" smooth="yes"/>
      <point x="309" y="354"/>
      <point x="223" y="354" type="qcurve" smooth="yes"/>
    </contour>
    <contour>
      <point x="604" y="28"/>
      <point x="604" y="147" type="qcurve" smooth="yes"/>
      <point x="604" y="225" type="line" smooth="yes"/>
      <point x="604" y="344"/>
      <point x="690" y="344" type="qcurve" smooth="yes"/>
      <point x="776" y="344"/>
      <point x="776" y="225" type="qcurve" smooth="yes"/>
      <point x="776" y="147" type="line" smooth="yes"/>
      <point x="776" y="28"/>
      <point x="690" y="28" type="qcurve" smooth="yes"/>
    </contour>
    <contour>
      <point x="296" y="314"/>
      <point x="381" y="415"/>
      <point x="381" y="512" type="qcurve" smooth="yes"/>
      <point x="381" y="609"/>
      <point x="296" y="710"/>
      <point x="223" y="710" type="qcurve" smooth="yes"/>
      <point x="150" y="710"/>
      <point x="65" y="609"/>
      <point x="65" y="512" type="qcurve" smooth="yes"/>
      <point x="65" y="415"/>
      <point x="150" y="314"/>
      <point x="223" y="314" type="qcurve" smooth="yes"/>
    </contour>
    <contour>
      <point x="763" y="-12"/>
      <point x="848" y="89"/>
      <point x="848" y="186" type="qcurve" smooth="yes"/>
      <point x="848" y="283"/>
      <point x="763" y="384"/>
      <point x="690" y="384" type="qcurve" smooth="yes"/>
      <point x="617" y="384"/>
      <point x="532" y="283"/>
      <point x="532" y="186" type="qcurve" smooth="yes"/>
      <point x="532" y="89"/>
      <point x="617" y="-12"/>
      <point x="690" y="-12" type="qcurve" smooth="yes"/>
    </contour>
    <contour>
      <point x="186" y="0" type="line"/>
      <point x="246" y="0" type="line"/>
      <point x="729" y="698" type="line"/>
      <point x="669" y="698" type="line"/>
    </contour>
  </outline>
</glyph>
<glyph name="ampersand" format="2">
  <advance width="710"/>
  <unicode hex="0026"/>
  <note>
ampersand
</note>
  <outline>
    <contour>
      <point x="352" y="-12"/>
      <point x="444" y="28"/>
      <point x="480" y="65" type="qcurve"/>
      <point x="494" y="49" type="line" smooth="yes"/>
      <point x="517" y="23"/>
      <point x="570" y="0"/>
      <point x="609" y="0" type="qcurve" smooth="yes"/>
      <point x="675" y="0" type="line"/>
      <point x="675" y="46" type="line"/>
      <point x="632" y="46"/>
      <point x="583" y="66"/>
      <point x="561" y="89" type="qcurve" smooth="yes"/>
      <point x="527" y="127" type="line"/>
      <point x="551" y="168"/>
      <point x="581" y="274"/>
      <point x="586" y="333" type="qcurve"/>
      <point x="666" y="333" type="line"/>
      <point x="666" y="379" type="line"/>
      <point x="462" y="379" type="line"/>
      <point x="462" y="333" type="line"/>
      <point x="535" y="333" type="line"/>
      <point x="532" y="285"/>
      <point x="512" y="197"/>
      <point x="495" y="162" type="qcurve"/>
      <point x="300" y="375" type="line"/>
      <point x="336" y="393"/>
      <point x="400" y="435"/>
      <point x="448" y="484"/>
      <point x="476" y="539"/>
      <point x="476" y="570" type="qcurve" smooth="yes"/>
      <point x="476" y="600"/>
      <point x="451" y="652"/>
      <point x="406" y="689"/>
      <point x="342" y="710"/>
      <point x="302" y="710" type="qcurve" smooth="yes"/>
      <point x="215" y="710"/>
      <point x="115" y="623"/>
      <point x="115" y="550" type="qcurve" smooth="yes"/>
      <point x="115" y="503"/>
      <point x="153" y="425"/>
      <point x="185" y="391" type="qcurve" smooth="yes"/>
      <point x="202" y="372" type="line"/>
      <point x="136" y="337"/>
      <point x="55" y="247"/>
      <point x="55" y="176" type="qcurve" smooth="yes"/>
      <point x="55" y="131"/>
      <point x="91" y="61"/>
      <point x="154" y="13"/>
      <point x="242" y="-12"/>
      <point x="295" y="-12" type="qcurve" smooth="yes"/>
    </contour>
    <contour>
      <point x="266" y="414" type="line" smooth="yes"/>
      <point x="239" y="446"/>
      <point x="195" y="510"/>
      <point x="195" y="548" type="qcurve" smooth="yes"/>
      <point x="195" y="558" type="line" smooth="yes"/>
      <point x="195" y="602"/>
      <point x="248" y="663"/>
      <point x="298" y="663" type="qcurve" smooth="yes"/>
      <point x="347" y="663"/>
      <point x="402" y="609"/>
      <point x="402" y="568" type="qcurve" smooth="yes"/>
      <point x="402" y="554" type="line" smooth="yes"/>
      <point x="402" y="512"/>
      <point x="338" y="441"/>
      <point x="272" y="407" type="qcurve"/>
    </contour>
    <contour>
      <point x="232" y="40"/>
      <point x="144" y="108"/>
      <point x="144" y="170" type="qcurve" smooth="yes"/>
      <point x="144" y="187" type="line" smooth="yes"/>
      <point x="144" y="235"/>
      <point x="180" y="310"/>
      <point x="230" y="341" type="qcurve"/>
      <point x="450" y="98" type="line"/>
      <point x="423" y="70"/>
      <point x="349" y="40"/>
      <point x="301" y="40" type="qcurve" smooth="yes"/>
    </contour>
  </outline>
</glyph>
<glyph name="parenleft" format="2">
  <advance width="329"/>
  <unicode hex="0028"/>
  <note>
parenleft
</note>
  <outline>
    <contour>
      <point x="306" y="-155" type="line"/>
      <point x="331" y="-125" type="line"/>
      <point x="290" y="-94"/>
      <point x="224" y="-7"/>
      <point x="178" y="96"/>
      <point x="154" y="213"/>
      <point x="154" y="273" type="qcurve" smooth="yes"/>
      <point x="154" y="350" type="line" smooth="yes"/>
      <point x="154" y="411"/>
      <point x="178" y="527"/>
      <point x="224" y="631"/>
      <point x="290" y="717"/>
      <point x="331" y="748" type="qcurve"/>
      <point x="306" y="778" type="line"/>
      <point x="263" y="750"/>
      <point x="177" y="660"/>
      <point x="108" y="540"/>
      <point x="65" y="394"/>
      <point x="65" y="312" type="qcurve" smooth="yes"/>
      <point x="65" y="229"/>
      <point x="108" y="84"/>
      <point x="177" y="-36"/>
      <point x="263" y="-127"/>
      <point x="306" y="-155" type="qcurve"/>
    </contour>
  </outline>
</glyph>
<glyph name="comma" format="2">
  <advance width="268"/>
  <unicode hex="002C"/>
  <note>
comma
</note>
  <outline>
    <contour>
      <point x="45" y="-136" type="line"/>
      <point x="95" y="-136" type="line"/>
      <point x="116" y="-120"/>
      <point x="153" y="-78"/>
      <point x="180" y="-30"/>
      <point x="196" y="18"/>
      <point x="196" y="40" type="qcurve" smooth="yes"/>
      <point x="196" y="49" type="line" smooth="yes"/>
      <point x="196" y="76"/>
      <point x="163" y="114"/>
      <point x="134" y="114" type="qcurve" smooth="yes"/>
      <point x="106" y="114"/>
      <point x="72" y="79"/>
      <point x="72" y="53" type="qcurve" smooth="yes"/>
      <point x="72" y="47" type="line" smooth="yes"/>
      <point x="72" y="24"/>
      <point x="102" y="-12"/>
      <point x="130" y="-12" type="qcurve" smooth="yes"/>
      <point x="132" y="-12" type="line"/>
      <point x="125" y="-41"/>
      <point x="79" y="-106"/>
      <point x="45" y="-136" type="qcurve"/>
    </contour>
  </outline>
</glyph>
<glyph name="hyphen" format="2">
  <advance width="393"/>
  <unicode hex="002D"/>
  <note>
hyphen
</note>
  <outline>
    <contour>
      <point x="66" y="270" type="line"/>
      <point x="327" y="270" type="line"/>
      <point x="327" y="340" type="line"/>
      <point x="66" y="340" type="line"/>
    </contour>
  </outline>
</glyph>
<glyph name="period" format="2">
  <advance width="268"/>
  <unicode hex="002E"/>
  <note>
period
</note>
  <outline>
    <contour>
      <point x="163" y="-12"/>
      <point x="196" y="23"/>
      <point x="196" y="48" type="qcurve" smooth="yes"/>
      <point x="196" y="54" type="line" smooth="yes"/>
      <point x="196" y="79"/>
      <point x="163" y="114"/>
      <point x="134" y="114" type="qcurve" smooth="yes"/>
      <point x="105" y="114"/>
      <point x="72" y="79"/>
      <point x="72" y="54" type="qcurve" smooth="yes"/>
      <point x="72" y="48" type="line" smooth="yes"/>
      <point x="72" y="23"/>
      <point x="105" y="-12"/>
      <point x="134" y="-12" type="qcurve" smooth="yes"/>
    </contour>
  </outline>
</glyph>
<glyph name="zero" format="2">
  <advance width="600"/>
  <unicode hex="0030"/>
  <note>
zero
</note>
  <outline>
    <contour>
      <point x="258" y="37"/>
      <point x="199" y="70"/>
      <point x="162" y="132"/>
      <point x="145" y="221"/>
      <point x="145" y="276" type="qcurve" smooth="yes"/>
      <point x="145" y="422" type="line" smooth="yes"/>
      <point x="145" y="477"/>
      <point x="162" y="566"/>
      <point x="199" y="628"/>
      <point x="258" y="661"/>
      <point x="300" y="661" type="qcurve" smooth="yes"/>
      <point x="342" y="661"/>
      <point x="401" y="628"/>
      <point x="438" y="566"/>
      <point x="455" y="477"/>
      <point x="455" y="422" type="qcurve" smooth="yes"/>
      <point x="455" y="276" type="line" smooth="yes"/>
      <point x="455" y="221"/>
      <point x="438" y="132"/>
      <point x="401" y="70"/>
      <point x="342" y="37"/>
      <point x="300" y="37" type="qcurve" smooth="yes"/>
    </contour>
    <contour>
      <point x="420" y="-12"/>
      <point x="549" y="172"/>
      <point x="549" y="349" type="qcurve" smooth="yes"/>
      <point x="549" y="526"/>
      <point x="420" y="710"/>
      <point x="300" y="710" type="qcurve" smooth="yes"/>
      <point x="180" y="710"/>
      <point x="51" y="526"/>
      <point x="51" y="349" type="qcurve" smooth="yes"/>
      <point x="51" y="172"/>
      <point x="180" y="-12"/>
      <point x="300" y="-12" type="qcurve" smooth="yes"/>
    </contour>
  </outline>
</glyph>
<glyph name="one" format="2">
  <advance width="600"/>
  <unicode hex="0031"/>
  <note>
one
</note>
  <outline>
    <contour>
      <point x="88" y="0" type="line"/>
      <point x="514" y="0" type="line"/>
      <point x="514" y="45" type="line"/>
      <point x="347" y="45" type="line"/>
      <point x="347" y="698" type="line"/>
      <point x="270" y="698" type="line"/>
      <point x="66" y="589" type="line"/>
      <point x="81" y="546" type="line"/>
      <point x="261" y="629" type="line"/>
      <point x="261" y="45" type="line"/>
      <point x="88" y="45" type="line"/>
    </contour>
  </outline>
</glyph>
<glyph name="eight" format="2">
  <advance width="600"/>
  <unicode hex="0038"/>
  <note>
eight
</note>
  <outline>
    <contour>
      <point x="357" y="-12"/>
      <point x="446" y="17"/>
      <point x="507" y="69"/>
      <point x="540" y="142"/>
      <point x="540" y="186" type="qcurve" smooth="yes"/>
      <point x="540" y="224"/>
      <point x="512" y="285"/>
      <point x="467" y="328"/>
      <point x="409" y="356"/>
      <point x="378" y="361" type="qcurve"/>
      <point x="378" y="368" type="line"/>
      <point x="405" y="372"/>
      <point x="456" y="400"/>
      <point x="495" y="444"/>
      <point x="518" y="500"/>
      <point x="518" y="532" type="qcurve" smooth="yes"/>
      <point x="518" y="573"/>
      <point x="486" y="639"/>
      <point x="429" y="685"/>
      <point x="349" y="710"/>
      <point x="300" y="710" type="qcurve" smooth="yes"/>
      <point x="251" y="710"/>
      <point x="171" y="685"/>
      <point x="114" y="639"/>
      <point x="82" y="573"/>
      <point x="82" y="532" type="qcurve" smooth="yes"/>
      <point x="82" y="500"/>
      <point x="105" y="444"/>
      <point x="144" y="400"/>
      <point x="195" y="372"/>
      <point x="222" y="368" type="qcurve"/>
      <point x="222" y="361" type="line"/>
      <point x="191" y="356"/>
      <point x="133" y="328"/>
      <point x="88" y="285"/>
      <point x="60" y="224"/>
      <point x="60" y="186" type="qcurve" smooth="yes"/>
      <point x="60" y="142"/>
      <point x="93" y="69"/>
      <point x="154" y="17"/>
      <point x="243" y="-12"/>
      <point x="300" y="-12" type="qcurve" smooth="yes"/>
    </contour>
    <contour>
      <point x="264" y="35"/>
      <point x="208" y="57"/>
      <point x="171" y="96"/>
      <point x="151" y="149"/>
      <point x="151" y="179" type="qcurve" smooth="yes"/>
      <point x="151" y="200" type="line" smooth="yes"/>
      <point x="151" y="230"/>
      <point x="171" y="283"/>
      <point x="208" y="322"/>
      <point x="264" y="344"/>
      <point x="300" y="344" type="qcurve" smooth="yes"/>
      <point x="336" y="344"/>
      <point x="392" y="322"/>
      <point x="429" y="283"/>
      <point x="449" y="230"/>
      <point x="449" y="200" type="qcurve" smooth="yes"/>
      <point x="449" y="179" type="line" smooth="yes"/>
      <point x="449" y="149"/>
      <point x="429" y="96"/>
      <point x="392" y="57"/>
      <point x="336" y="35"/>
      <point x="300" y="35" type="qcurve" smooth="yes"/>
    </contour>
    <contour>
      <point x="267" y="389"/>
      <point x="219" y="411"/>
      <point x="187" y="447"/>
      <point x="172" y="494"/>
      <point x="172" y="520" type="qcurve" smooth="yes"/>
      <point x="172" y="534" type="line" smooth="yes"/>
      <point x="172" y="560"/>
      <point x="187" y="607"/>
      <point x="219" y="643"/>
      <point x="267" y="665"/>
      <point x="300" y="665" type="qcurve" smooth="yes"/>
      <point x="333" y="665"/>
      <point x="381" y="643"/>
      <point x="413" y="607"/>
      <point x="428" y="560"/>
      <point x="428" y="534" type="qcurve" smooth="yes"/>
      <point x="428" y="520" type="line" smooth="yes"/>
      <point x="428" y="494"/>
      <point x="413" y="447"/>
      <point x="381" y="411"/>
      <point x="333" y="389"/>
      <point x="300" y="389" type="qcurve" smooth="yes"/>
    </contour>
  </outline>
</glyph>
<glyph name="less" format="2">
  <advance width="600"/>
  <unicode hex="003C"/>
  <note>
less
</note>
  <outline>
    <contour>
      <point x="510" y="-12" type="line"/>
      <point x="510" y="48" type="line"/>
      <point x="148" y="263" type="line"/>
      <point x="148" y="269" type="line"/>
      <point x="510" y="484" type="line"/>
      <point x="510" y="544" type="line"/>
      <point x="89" y="298" type="line"/>
      <point x="89" y="234" type="line"/>
    </contour>
  </outline>
</glyph>
<glyph name="greater" format="2">
  <advance width="600"/>
  <unicode hex="003E"/>
  <note>
greater
</note>
  <outline>
    <contour>
      <point x="89" y="-12" type="line"/>
      <point x="510" y="234" type="line"/>
      <point x="510" y="298" type="line"/>
      <point x="89" y="544" type="line"/>
      <point x="89" y="484" type="line"/>
      <point x="451" y="269" type="line"/>
      <point x="451" y="263" type="line"/>
      <point x="89" y="48" type="line"/>
    </contour>
  </outline>
</glyph>
<glyph name="question" format="2">
  <advance width="487"/>
  <unicode hex="003F"/>
  <note>
question
</note>
  <outline>
    <contour>
      <point x="170" y="205" type="line"/>
      <point x="225" y="205" type="line"/>
      <point x="225" y="322" type="line"/>
      <point x="271" y="326"/>
      <point x="351" y="358"/>
      <point x="411" y="410"/>
      <point x="445" y="483"/>
      <point x="445" y="528" type="qcurve" smooth="yes"/>
      <point x="445" y="569"/>
      <point x="415" y="636"/>
      <point x="361" y="684"/>
      <point x="285" y="710"/>
      <point x="240" y="710" type="qcurve" smooth="yes"/>
      <point x="200" y="710"/>
      <point x="128" y="689"/>
      <point x="74" y="654"/>
      <point x="42" y="609"/>
      <point x="42" y="584" type="qcurve" smooth="yes"/>
      <point x="42" y="552"/>
      <point x="75" y="518"/>
      <point x="103" y="518" type="qcurve" smooth="yes"/>
      <point x="131" y="518"/>
      <point x="162" y="553"/>
      <point x="162" y="579" type="qcurve" smooth="yes"/>
      <point x="162" y="601"/>
      <point x="137" y="632"/>
      <point x="126" y="636" type="qcurve"/>
      <point x="126" y="638" type="line"/>
      <point x="143" y="648"/>
      <point x="191" y="661"/>
      <point x="228" y="661" type="qcurve" smooth="yes"/>
      <point x="285" y="661"/>
      <point x="355" y="597"/>
      <point x="355" y="537" type="qcurve" smooth="yes"/>
      <point x="355" y="514" type="line" smooth="yes"/>
      <point x="355" y="447"/>
      <point x="252" y="374"/>
      <point x="170" y="371" type="qcurve"/>
    </contour>
    <contour>
      <point x="227" y="-12"/>
      <point x="260" y="23"/>
      <point x="260" y="48" type="qcurve" smooth="yes"/>
      <point x="260" y="54" type="line" smooth="yes"/>
      <point x="260" y="79"/>
      <point x="227" y="114"/>
      <point x="198" y="114" type="qcurve" smooth="yes"/>
      <point x="169" y="114"/>
      <point x="136" y="79"/>
      <point x="136" y="54" type="qcurve" smooth="yes"/>
      <point x="136" y="48" type="line" smooth="yes"/>
      <point x="136" y="23"/>
      <point x="169" y="-12"/>
      <point x="198" y="-12" type="qcurve" smooth="yes"/>
    </contour>
  </outline>
</glyph>
<glyph name="A" format="2">
  <advance width="686"/>
  <unicode hex="0041"/>
  <note>
A
</note>
  <anchor x="327" y="0" name="bottom"/>
  <anchor x="670" y="0" name="ogonek"/>
  <anchor x="343" y="698" name="top"/>
  <outline>
    <contour>
      <point x="16" y="0" type="line"/>
      <point x="218" y="0" type="line"/>
      <point x="218" y="46" type="line"/>
      <point x="128" y="46" type="line"/>
      <point x="190" y="227" type="line"/>
      <point x="462" y="227" type="line"/>
      <point x="524" y="46" type="line"/>
      <point x="434" y="46" type="line"/>
      <point x="434" y="0" type="line"/>
      <point x="670" y="0" type="line"/>
      <point x="670" y="46" type="line"/>
      <point x="617" y="46" type="line"/>
      <point x="391" y="698" type="line"/>
      <point x="296" y="698" type="line"/>
      <point x="69" y="46" type="line"/>
      <point x="16" y="46" type="line"/>
    </contour>
    <contour>
      <point x="324" y="625" type="line"/>
      <point x="330" y="625" type="line"/>
      <point x="447" y="275" type="line"/>
      <point x="204" y="275" type="line"/>
    </contour>
  </outline>
</glyph>
<glyph name="B" format="2">
  <advance width="670"/>
  <unicode hex="0042"/>
  <note>
B
</note>
  <anchor x="302" y="0" name="bottom"/>
  <anchor x="302" y="698" name="top"/>
  <outline>
    <contour>
      <point x="55" y="0" type="line"/>
      <point x="419" y="0" type="line" smooth="yes"/>
      <point x="459" y="0"/>
      <point x="527" y="27"/>
      <point x="576" y="78"/>
      <point x="603" y="150"/>
      <point x="603" y="194" type="qcurve" smooth="yes"/>
      <point x="603" y="235"/>
      <point x="573" y="297"/>
      <point x="527" y="339"/>
      <point x="471" y="361"/>
      <point x="445" y="363" type="qcurve"/>
      <point x="445" y="366" type="line"/>
      <point x="470" y="370"/>
      <point x="517" y="396"/>
      <point x="554" y="438"/>
      <point x="576" y="496"/>
      <point x="576" y="533" type="qcurve" smooth="yes"/>
      <point x="576" y="608"/>
      <point x="477" y="698"/>
      <point x="389" y="698" type="qcurve" smooth="yes"/>
      <point x="55" y="698" type="line"/>
      <point x="55" y="652" type="line"/>
      <point x="130" y="652" type="line"/>
      <point x="130" y="46" type="line"/>
      <point x="55" y="46" type="line"/>
    </contour>
    <contour>
      <point x="216" y="336" type="line"/>
      <point x="388" y="336" type="line" smooth="yes"/>
      <point x="446" y="336"/>
      <point x="511" y="268"/>
      <point x="511" y="215" type="qcurve" smooth="yes"/>
      <point x="511" y="171" type="line" smooth="yes"/>
      <point x="511" y="117"/>
      <point x="446" y="49"/>
      <point x="388" y="49" type="qcurve" smooth="yes"/>
      <point x="216" y="49" type="line"/>
    </contour>
    <contour>
      <point x="216" y="649" type="line"/>
      <point x="372" y="649" type="line" smooth="yes"/>
      <point x="426" y="649"/>
      <point x="484" y="587"/>
      <point x="484" y="539" type="qcurve" smooth="yes"/>
      <point x="484" y="495" type="line" smooth="yes"/>
      <point x="484" y="447"/>
      <point x="426" y="385"/>
      <point x="372" y="385" type="qcurve" smooth="yes"/>
      <point x="216" y="385" type="line"/>
    </contour>
  </outline>
</glyph>
<glyph name="C" format="2">
  <advance width="649"/>
  <unicode hex="0043"/>
  <note>
C
</note>
  <anchor x="342" y="0" name="bottom"/>
  <anchor x="337" y="698" name="top"/>
  <outline>
    <contour>
      <point x="395" y="-12"/>
      <point x="479" y="21"/>
      <point x="540" y="73"/>
      <point x="580" y="135"/>
      <point x="589" y="164" type="qcurve"/>
      <point x="550" y="183" type="line"/>
      <point x="528" y="126"/>
      <point x="432" y="52"/>
      <point x="361" y="52" type="qcurve" smooth="yes"/>
      <point x="310" y="52"/>
      <point x="230" y="86"/>
      <point x="175" y="149"/>
      <point x="146" y="237"/>
      <point x="146" y="292" type="qcurve" smooth="yes"/>
      <point x="146" y="413" type="line" smooth="yes"/>
      <point x="146" y="462"/>
      <point x="169" y="551"/>
      <point x="218" y="618"/>
      <point x="295" y="657"/>
      <point x="348" y="657" type="qcurve" smooth="yes"/>
      <point x="419" y="657"/>
      <point x="507" y="596"/>
      <point x="507" y="546" type="qcurve" smooth="yes"/>
      <point x="507" y="494" type="line"/>
      <point x="579" y="494" type="line"/>
      <point x="579" y="698" type="line"/>
      <point x="507" y="698" type="line"/>
      <point x="507" y="635" type="line"/>
      <point x="503" y="635" type="line"/>
      <point x="489" y="667"/>
      <point x="402" y="710"/>
      <point x="337" y="710" type="qcurve" smooth="yes"/>
      <point x="273" y="710"/>
      <point x="167" y="662"/>
      <point x="92" y="570"/>
      <point x="50" y="436"/>
      <point x="50" y="349" type="qcurve" smooth="yes"/>
      <point x="50" y="266"/>
      <point x="92" y="132"/>
      <point x="168" y="38"/>
      <point x="276" y="-12"/>
      <point x="342" y="-12" type="qcurve" smooth="yes"/>
    </contour>
  </outline>
</glyph>
<glyph name="F" format="2">
  <advance width="626"/>
  <unicode hex="0046"/>
  <note>
F
</note>
  <anchor x="173" y="0" name="bottom"/>
  <anchor x="330" y="698" name="top"/>
  <outline>
    <contour>
      <point x="55" y="0" type="line"/>
      <point x="311" y="0" type="line"/>
      <point x="311" y="46" type="line"/>
      <point x="216" y="46" type="line"/>
      <point x="216" y="320" type="line"/>
      <point x="414" y="320" type="line"/>
      <point x="414" y="240" type="line"/>
      <point x="474" y="240" type="line"/>
      <point x="474" y="449" type="line"/>
      <point x="414" y="449" type="line"/>
      <point x="414" y="369" type="line"/>
      <point x="216" y="369" type="line"/>
      <point x="216" y="649" type="line"/>
      <point x="499" y="649" type="line"/>
      <point x="499" y="530" type="line"/>
      <point x="571" y="530" type="line"/>
      <point x="571" y="698" type="line"/>
      <point x="55" y="698" type="line"/>
      <point x="55" y="652" type="line"/>
      <point x="130" y="652" type="line"/>
      <point x="130" y="46" type="line"/>
      <point x="55" y="46" type="line"/>
    </contour>
  </outline>
</glyph>
<glyph name="G" format="2">
  <advance width="721"/>
  <unicode hex="0047"/>
  <note>
G
</note>
  <anchor x="342" y="0" name="bottom"/>
  <anchor x="349" y="698" name="top"/>
  <outline>
    <contour>
      <point x="381" y="-12"/>
      <point x="445" y="7"/>
      <point x="492" y="38"/>
      <point x="524" y="77"/>
      <point x="532" y="97" type="qcurve"/>
      <point x="536" y="97" type="line"/>
      <point x="584" y="0" type="line"/>
      <point x="617" y="0" type="line"/>
      <point x="617" y="291" type="line"/>
      <point x="681" y="291" type="line"/>
      <point x="681" y="337" type="line"/>
      <point x="406" y="337" type="line"/>
      <point x="406" y="291" type="line"/>
      <point x="530" y="291" type="line"/>
      <point x="530" y="198" type="line" smooth="yes"/>
      <point x="530" y="161"/>
      <point x="503" y="105"/>
      <point x="455" y="67"/>
      <point x="389" y="47"/>
      <point x="351" y="47" type="qcurve" smooth="yes"/>
      <point x="305" y="47"/>
      <point x="229" y="81"/>
      <point x="175" y="143"/>
      <point x="146" y="232"/>
      <point x="146" y="286" type="qcurve" smooth="yes"/>
      <point x="146" y="414" type="line" smooth="yes"/>
      <point x="146" y="469"/>
      <point x="172" y="558"/>
      <point x="225" y="622"/>
      <point x="306" y="657"/>
      <point x="361" y="657" type="qcurve" smooth="yes"/>
      <point x="442" y="657"/>
      <point x="536" y="599"/>
      <point x="536" y="543" type="qcurve" smooth="yes"/>
      <point x="536" y="494" type="line"/>
      <point x="608" y="494" type="line"/>
      <point x="608" y="698" type="line"/>
      <point x="536" y="698" type="line"/>
      <point x="536" y="634" type="line"/>
      <point x="531" y="634" type="line"/>
      <point x="519" y="665"/>
      <point x="431" y="710"/>
      <point x="350" y="710" type="qcurve" smooth="yes"/>
      <point x="281" y="710"/>
      <point x="170" y="663"/>
      <point x="92" y="571"/>
      <point x="50" y="436"/>
      <point x="50" y="349" type="qcurve" smooth="yes"/>
      <point x="50" y="265"/>
      <point x="92" y="131"/>
      <point x="168" y="38"/>
      <point x="275" y="-12"/>
      <point x="341" y="-12" type="qcurve" smooth="yes"/>
    </contour>
  </outline>
</glyph>
<glyph name="H" format="2">
  <advance width="787"/>
  <unicode hex="0048"/>
  <note>
H
</note>
  <anchor x="393" y="0" name="bottom"/>
  <anchor x="393" y="698" name="top"/>
  <outline>
    <contour>
      <point x="55" y="0" type="line"/>
      <point x="291" y="0" type="line"/>
      <point x="291" y="46" type="line"/>
      <point x="216" y="46" type="line"/>
      <point x="216" y="331" type="line"/>
      <point x="571" y="331" type="line"/>
      <point x="571" y="46" type="line"/>
      <point x="496" y="46" type="line"/>
      <point x="496" y="0" type="line"/>
      <point x="732" y="0" type="line"/>
      <point x="732" y="46" type="line"/>
      <point x="657" y="46" type="line"/>
      <point x="657" y="652" type="line"/>
      <point x="732" y="652" type="line"/>
      <point x="732" y="698" type="line"/>
      <point x="496" y="698" type="line"/>
      <point x="496" y="652" type="line"/>
      <point x="571" y="652" type="line"/>
      <point x="571" y="380" type="line"/>
      <point x="216" y="380" type="line"/>
      <point x="216" y="652" type="line"/>
      <point x="291" y="652" type="line"/>
      <point x="291" y="698" type="line"/>
      <point x="55" y="698" type="line"/>
      <point x="55" y="652" type="line"/>
      <point x="130" y="652" type="line"/>
      <point x="130" y="46" type="line"/>
      <point x="55" y="46" type="line"/>
    </contour>
  </outline>
</glyph>
<glyph name="L" format="2">
  <advance width="594"/>
  <unicode hex="004C"/>
  <note>
L
</note>
  <anchor x="309" y="0" name="bottom"/>
  <anchor x="173" y="698" name="top"/>
  <anchor x="361" y="740" name="topright"/>
  <outline>
    <contour>
      <point x="55" y="0" type="line"/>
      <point x="544" y="0" type="line"/>
      <point x="544" y="177" type="line"/>
      <point x="472" y="177" type="line"/>
      <point x="472" y="49" type="line"/>
      <point x="216" y="49" type="line"/>
      <point x="216" y="652" type="line"/>
      <point x="291" y="652" type="line"/>
      <point x="291" y="698" type="line"/>
      <point x="55" y="698" type="line"/>
      <point x="55" y="652" type="line"/>
      <point x="130" y="652" type="line"/>
      <point x="130" y="46" type="line"/>
      <point x="55" y="46" type="line"/>
    </contour>
  </outline>
</glyph>
<glyph name="O" format="2">
  <advance width="716"/>
  <unicode hex="004F"/>
  <note>
O
</note>
  <anchor x="358" y="0" name="bottom"/>
  <anchor x="358" y="698" name="top"/>
  <outline>
    <contour>
      <point x="307" y="41"/>
      <point x="228" y="78"/>
      <point x="174" y="145"/>
      <point x="146" y="237"/>
      <point x="146" y="292" type="qcurve" smooth="yes"/>
      <point x="146" y="406" type="line" smooth="yes"/>
      <point x="146" y="461"/>
      <point x="174" y="553"/>
      <point x="228" y="620"/>
      <point x="307" y="657"/>
      <point x="358" y="657" type="qcurve" smooth="yes"/>
      <point x="409" y="657"/>
      <point x="488" y="620"/>
      <point x="542" y="553"/>
      <point x="570" y="461"/>
      <point x="570" y="406" type="qcurve" smooth="yes"/>
      <point x="570" y="292" type="line" smooth="yes"/>
      <point x="570" y="237"/>
      <point x="542" y="145"/>
      <point x="488" y="78"/>
      <point x="409" y="41"/>
      <point x="358" y="41" type="qcurve" smooth="yes"/>
    </contour>
    <contour>
      <point x="427" y="-12"/>
      <point x="541" y="38"/>
      <point x="622" y="132"/>
      <point x="666" y="265"/>
      <point x="666" y="349" type="qcurve" smooth="yes"/>
      <point x="666" y="433"/>
      <point x="622" y="566"/>
      <point x="541" y="660"/>
      <point x="427" y="710"/>
      <point x="358" y="710" type="qcurve" smooth="yes"/>
      <point x="289" y="710"/>
      <point x="175" y="660"/>
      <point x="94" y="566"/>
      <point x="50" y="433"/>
      <point x="50" y="349" type="qcurve" smooth="yes"/>
      <point x="50" y="265"/>
      <point x="94" y="132"/>
      <point x="175" y="38"/>
      <point x="289" y="-12"/>
      <point x="358" y="-12" type="qcurve" smooth="yes"/>
    </contour>
  </outline>
</glyph>
<glyph name="Q" format="2">
  <advance width="716"/>
  <unicode hex="0051"/>
  <note>
Q
</note>
  <anchor x="358" y="698" name="top"/>
  <outline>
    <contour>
      <point x="567" y="-173" type="line"/>
      <point x="567" y="-127" type="line"/>
      <point x="537" y="-127" type="line" smooth="yes"/>
      <point x="520" y="-127"/>
      <point x="496" y="-121"/>
      <point x="475" y="-108"/>
      <point x="456" y="-87"/>
      <point x="445" y="-71" type="qcurve" smooth="yes"/>
      <point x="400" y="-9" type="line"/>
      <point x="461" y="-2"/>
      <point x="559" y="54"/>
      <point x="628" y="146"/>
      <point x="666" y="272"/>
      <point x="666" y="349" type="qcurve" smooth="yes"/>
      <point x="666" y="433"/>
      <point x="622" y="566"/>
      <point x="541" y="660"/>
      <point x="427" y="710"/>
      <point x="358" y="710" type="qcurve" smooth="yes"/>
      <point x="289" y="710"/>
      <point x="175" y="660"/>
      <point x="94" y="566"/>
      <point x="50" y="433"/>
      <point x="50" y="349" type="qcurve" smooth="yes"/>
      <point x="50" y="273"/>
      <point x="86" y="149"/>
      <point x="154" y="58"/>
      <point x="248" y="1"/>
      <point x="307" y="-8" type="qcurve"/>
      <point x="371" y="-102" type="line" smooth="yes"/>
      <point x="384" y="-121"/>
      <point x="410" y="-148"/>
      <point x="443" y="-165"/>
      <point x="485" y="-173"/>
      <point x="514" y="-173" type="qcurve" smooth="yes"/>
    </contour>
    <contour>
      <point x="307" y="41"/>
      <point x="228" y="78"/>
      <point x="174" y="145"/>
      <point x="146" y="237"/>
      <point x="146" y="292" type="qcurve" smooth="yes"/>
      <point x="146" y="406" type="line" smooth="yes"/>
      <point x="146" y="461"/>
      <point x="174" y="553"/>
      <point x="228" y="620"/>
      <point x="307" y="657"/>
      <point x="358" y="657" type="qcurve" smooth="yes"/>
      <point x="409" y="657"/>
      <point x="488" y="620"/>
      <point x="542" y="553"/>
      <point x="570" y="461"/>
      <point x="570" y="406" type="qcurve" smooth="yes"/>
      <point x="570" y="292" type="line" smooth="yes"/>
      <point x="570" y="237"/>
      <point x="542" y="145"/>
      <point x="488" y="78"/>
      <point x="409" y="41"/>
      <point x="358" y="41" type="qcurve" smooth="yes"/>
    </contour>
  </outline>
</glyph>
<glyph name="T" format="2">
  <advance width="652"/>
  <unicode hex="0054"/>
  <note>
T
</note>
  <anchor x="326" y="0" name="bottom"/>
  <anchor x="326" y="698" name="top"/>
  <outline>
    <contour>
      <point x="188" y="0" type="line"/>
      <point x="464" y="0" type="line"/>
      <point x="464" y="46" type="line"/>
      <point x="369" y="46" type="line"/>
      <point x="369" y="649" type="line"/>
      <point x="545" y="649" type="line"/>
      <point x="545" y="530" type="line"/>
      <point x="617" y="530" type="line"/>
      <point x="617" y="698" type="line"/>
      <point x="35" y="698" type="line"/>
      <point x="35" y="530" type="line"/>
      <point x="107" y="530" type="line"/>
      <point x="107" y="649" type="line"/>
      <point x="283" y="649" type="line"/>
      <point x="283" y="46" type="line"/>
      <point x="188" y="46" type="line"/>
    </contour>
  </outline>
</glyph>
<glyph name="W" format="2">
  <advance width="968"/>
  <unicode hex="0057"/>
  <note>
W
</note>
  <anchor x="483" y="0" name="bottom"/>
  <anchor x="497" y="698" name="top"/>
  <outline>
    <contour>
      <point x="242" y="0" type="line"/>
      <point x="325" y="0" type="line"/>
      <point x="480" y="584" type="line"/>
      <point x="484" y="584" type="line"/>
      <point x="643" y="0" type="line"/>
      <point x="726" y="0" type="line"/>
      <point x="892" y="652" type="line"/>
      <point x="945" y="652" type="line"/>
      <point x="945" y="698" type="line"/>
      <point x="741" y="698" type="line"/>
      <point x="741" y="652" type="line"/>
      <point x="831" y="652" type="line"/>
      <point x="700" y="102" type="line"/>
      <point x="696" y="102" type="line"/>
      <point x="539" y="698" type="line"/>
      <point x="454" y="698" type="line"/>
      <point x="301" y="102" type="line"/>
      <point x="297" y="102" type="line"/>
      <point x="167" y="652" type="line"/>
      <point x="257" y="652" type="line"/>
      <point x="257" y="698" type="line"/>
      <point x="23" y="698" type="line"/>
      <point x="23" y="652" type="line"/>
      <point x="76" y="652" type="line"/>
    </contour>
  </outline>
</glyph>
<glyph name="Z" format="2">
  <advance width="637"/>
  <unicode hex="005A"/>
  <note>
Z
</note>
  <anchor x="320" y="0" name="bottom"/>
  <anchor x="308" y="698" name="top"/>
  <outline>
    <contour>
      <point x="60" y="0" type="line"/>
      <point x="572" y="0" type="line"/>
      <point x="572" y="177" type="line"/>
      <point x="500" y="177" type="line"/>
      <point x="500" y="49" type="line"/>
      <point x="160" y="49" type="line"/>
      <point x="563" y="649" type="line"/>
      <point x="563" y="698" type="line"/>
      <point x="69" y="698" type="line"/>
      <point x="69" y="530" type="line"/>
      <point x="141" y="530" type="line"/>
      <point x="141" y="649" type="line"/>
      <point x="463" y="649" type="line"/>
      <point x="60" y="49" type="line"/>
    </contour>
  </outline>
</glyph>
<glyph name="bracketright" format="2">
  <advance width="284"/>
  <unicode hex="005D"/>
  <note>
bracketright
</note>
  <outline>
    <contour>
      <point x="29" y="-138" type="line"/>
      <point x="223" y="-138" type="line"/>
      <point x="223" y="760" type="line"/>
      <point x="29" y="760" type="line"/>
      <point x="29" y="715" type="line"/>
      <point x="147" y="715" type="line"/>
      <point x="147" y="-93" type="line"/>
      <point x="29" y="-93" type="line"/>
    </contour>
  </outline>
</glyph>
<glyph name="asciicircum" format="2">
  <advance width="600"/>
  <unicode hex="005E"/>
  <note>
asciicircum
</note>
  <outline>
    <contour>
      <point x="103" y="315" type="line"/>
      <point x="298" y="639" type="line"/>
      <point x="302" y="639" type="line"/>
      <point x="497" y="315" type="line"/>
      <point x="542" y="339" type="line"/>
      <point x="334" y="698" type="line"/>
      <point x="266" y="698" type="line"/>
      <point x="58" y="339" type="line"/>
    </contour>
  </outline>
</glyph>
<glyph name="underscore" format="2">
  <advance width="564"/>
  <unicode hex="005F"/>
  <note>
underscore
</note>
  <outline>
    <contour>
      <point x="25" y="-157" type="line"/>
      <point x="539" y="-157" type="line"/>
      <point x="539" y="-102" type="line"/>
      <point x="25" y="-102" type="line"/>
    </contour>
  </outline>
</glyph>
<glyph name="grave" format="2">
  <advance width="600"/>
  <unicode hex="0060"/>
  <note>
grave
</note>
  <outline>
    <contour>
      <point x="307" y="585" type="line"/>
      <point x="334" y="599" type="line"/>
      <point x="258" y="776" type="line"/>
      <point x="181" y="738" type="line"/>
    </contour>
  </outline>
</glyph>
<glyph name="a" format="2">
  <advance width="546"/>
  <unicode hex="0061"/>
  <note>
a
</note>
  <anchor x="244" y="0" name="bottom"/>
  <anchor x="497" y="0" name="ogonek"/>
  <anchor x="264" y="540" name="top"/>
  <outline>
    <contour>
      <point x="237" y="-12"/>
      <point x="288" y="3"/>
      <point x="324" y="27"/>
      <point x="347" y="59"/>
      <point x="354" y="76" type="qcurve"/>
      <point x="359" y="76" type="line"/>
      <point x="359" y="69" type="line" smooth="yes"/>
      <point x="359" y="32"/>
      <point x="401" y="-12"/>
      <point x="440" y="-12" type="qcurve" smooth="yes"/>
      <point x="463" y="-12"/>
      <point x="500" y="0"/>
      <point x="511" y="8" type="qcurve"/>
      <point x="511" y="43" type="line"/>
      <point x="436" y="43" type="line"/>
      <point x="436" y="368" type="line" smooth="yes"/>
      <point x="436" y="444"/>
      <point x="345" y="528"/>
      <point x="264" y="528" type="qcurve" smooth="yes"/>
      <point x="219" y="528"/>
      <point x="148" y="509"/>
      <point x="100" y="477"/>
      <point x="74" y="436"/>
      <point x="74" y="414" type="qcurve" smooth="yes"/>
      <point x="74" y="385"/>
      <point x="105" y="356"/>
      <point x="129" y="356" type="qcurve" smooth="yes"/>
      <point x="154" y="356"/>
      <point x="184" y="385"/>
      <point x="184" y="411" type="qcurve" smooth="yes"/>
      <point x="184" y="433"/>
      <point x="163" y="457"/>
      <point x="152" y="463" type="qcurve"/>
      <point x="152" y="465" type="line"/>
      <point x="166" y="473"/>
      <point x="210" y="482"/>
      <point x="236" y="482" type="qcurve" smooth="yes"/>
      <point x="295" y="482"/>
      <point x="354" y="417"/>
      <point x="354" y="356" type="qcurve" smooth="yes"/>
      <point x="354" y="280" type="line"/>
      <point x="280" y="280" type="line" smooth="yes"/>
      <point x="217" y="280"/>
      <point x="129" y="260"/>
      <point x="74" y="222"/>
      <point x="50" y="165"/>
      <point x="50" y="128" type="qcurve" smooth="yes"/>
      <point x="50" y="63"/>
      <point x="131" y="-12"/>
      <point x="203" y="-12" type="qcurve" smooth="yes"/>
    </contour>
    <contour>
      <point x="191" y="43"/>
      <point x="139" y="83"/>
      <point x="139" y="121" type="qcurve" smooth="yes"/>
      <point x="139" y="142" type="line" smooth="yes"/>
      <point x="139" y="166"/>
      <point x="154" y="202"/>
      <point x="188" y="227"/>
      <point x="246" y="240"/>
      <point x="289" y="240" type="qcurve" smooth="yes"/>
      <point x="354" y="240" type="line"/>
      <point x="354" y="143" type="line" smooth="yes"/>
      <point x="354" y="92"/>
      <point x="286" y="43"/>
      <point x="238" y="43" type="qcurve" smooth="yes"/>
    </contour>
  </outline>
</glyph>
<glyph name="b" format="2">
  <advance width="598"/>
  <unicode hex="0062"/>
  <note>
b
</note>
  <anchor x="325" y="0" name="bottom"/>
  <outline>
    <contour>
      <point x="433" y="-12"/>
      <point x="548" y="127"/>
      <point x="548" y="258" type="qcurve" smooth="yes"/>
      <point x="548" y="389"/>
      <point x="433" y="528"/>
      <point x="337" y="528" type="qcurve" smooth="yes"/>
      <point x="276" y="528"/>
      <point x="202" y="475"/>
      <point x="185" y="438" type="qcurve"/>
      <point x="181" y="438" type="line"/>
      <point x="181" y="760" type="line"/>
      <point x="25" y="731" type="line"/>
      <point x="25" y="696" type="line"/>
      <point x="99" y="683" type="line"/>
      <point x="99" y="0" type="line"/>
      <point x="132" y="0" type="line"/>
      <point x="178" y="77" type="line"/>
      <point x="182" y="77" type="line"/>
      <point x="199" y="40"/>
      <point x="275" y="-12"/>
      <point x="337" y="-12" type="qcurve" smooth="yes"/>
    </contour>
    <contour>
      <point x="289" y="45"/>
      <point x="241" y="59"/>
      <point x="204" y="85"/>
      <point x="181" y="124"/>
      <point x="181" y="148" type="qcurve" smooth="yes"/>
      <point x="181" y="368" type="line" smooth="yes"/>
      <point x="181" y="392"/>
      <point x="204" y="431"/>
      <point x="241" y="457"/>
      <point x="289" y="471"/>
      <point x="313" y="471" type="qcurve" smooth="yes"/>
      <point x="382" y="471"/>
      <point x="459" y="378"/>
      <point x="459" y="300" type="qcurve" smooth="yes"/>
      <point x="459" y="216" type="line" smooth="yes"/>
      <point x="459" y="138"/>
      <point x="382" y="45"/>
      <point x="313" y="45" type="qcurve" smooth="yes"/>
    </contour>
  </outline>
</glyph>
<glyph name="f" format="2">
  <advance width="342"/>
  <unicode hex="0066"/>
  <note>
f
</note>
  <anchor x="160" y="0" name="bottom"/>
  <outline>
    <contour>
      <point x="45" y="0" type="line"/>
      <point x="295" y="0" type="line"/>
      <point x="295" y="46" type="line"/>
      <point x="201" y="46" type="line"/>
      <point x="201" y="467" type="line"/>
      <point x="313" y="467" type="line"/>
      <point x="313" y="516" type="line"/>
      <point x="201" y="516" type="line"/>
      <point x="201" y="608" type="line" smooth="yes"/>
      <point x="201" y="662"/>
      <point x="245" y="722"/>
      <point x="287" y="722" type="qcurve" smooth="yes"/>
      <point x="298" y="722"/>
      <point x="316" y="720"/>
      <point x="323" y="718" type="qcurve"/>
      <point x="323" y="716" type="line"/>
      <point x="296" y="705"/>
      <point x="296" y="670" type="qcurve" smooth="yes"/>
      <point x="296" y="650"/>
      <point x="323" y="622"/>
      <point x="345" y="622" type="qcurve" smooth="yes"/>
      <point x="368" y="622"/>
      <point x="397" y="653"/>
      <point x="397" y="679" type="qcurve" smooth="yes"/>
      <point x="397" y="718"/>
      <point x="334" y="760"/>
      <point x="280" y="760" type="qcurve" smooth="yes"/>
      <point x="245" y="760"/>
      <point x="186" y="736"/>
      <point x="143" y="693"/>
      <point x="119" y="633"/>
      <point x="119" y="597" type="qcurve" smooth="yes"/>
      <point x="119" y="516" type="line"/>
      <point x="45" y="516" type="line"/>
      <point x="45" y="467" type="line"/>
      <point x="119" y="467" type="line"/>
      <point x="119" y="46" type="line"/>
      <point x="45" y="46" type="line"/>
    </contour>
  </outline>
</glyph>
<glyph name="g" format="2">
  <advance width="544"/>
  <unicode hex="0067"/>
  <note>
g
</note>
  <anchor x="264" y="540" name="top"/>
  <outline>
    <contour>
      <point x="389" y="-212"/>
      <point x="519" y="-124"/>
      <point x="519" y="-50" type="qcurve" smooth="yes"/>
      <point x="519" y="16"/>
      <point x="434" y="87"/>
      <point x="346" y="87" type="qcurve" smooth="yes"/>
      <point x="228" y="87" type="line" smooth="yes"/>
      <point x="183" y="87"/>
      <point x="145" y="107"/>
      <point x="145" y="132" type="qcurve" smooth="yes"/>
      <point x="145" y="155"/>
      <point x="187" y="188"/>
      <point x="213" y="193" type="qcurve"/>
      <point x="238" y="187"/>
      <point x="266" y="187" type="qcurve" smooth="yes"/>
      <point x="309" y="187"/>
      <point x="382" y="211"/>
      <point x="435" y="255"/>
      <point x="465" y="319"/>
      <point x="465" y="358" type="qcurve" smooth="yes"/>
      <point x="465" y="396"/>
      <point x="441" y="444"/>
      <point x="430" y="459" type="qcurve"/>
      <point x="430" y="509" type="line"/>
      <point x="433" y="509" type="line"/>
      <point x="448" y="489"/>
      <point x="476" y="489" type="qcurve" smooth="yes"/>
      <point x="500" y="489"/>
      <point x="527" y="516"/>
      <point x="527" y="537" type="qcurve" smooth="yes"/>
      <point x="527" y="559"/>
      <point x="498" y="585"/>
      <point x="476" y="585" type="qcurve" smooth="yes"/>
      <point x="447" y="585"/>
      <point x="404" y="543"/>
      <point x="403" y="485" type="qcurve"/>
      <point x="380" y="503"/>
      <point x="313" y="528"/>
      <point x="266" y="528" type="qcurve" smooth="yes"/>
      <point x="223" y="528"/>
      <point x="151" y="504"/>
      <point x="98" y="460"/>
      <point x="69" y="397"/>
      <point x="69" y="358" type="qcurve" smooth="yes"/>
      <point x="69" y="303"/>
      <point x="124" y="225"/>
      <point x="171" y="205" type="qcurve"/>
      <point x="171" y="200" type="line"/>
      <point x="137" y="191"/>
      <point x="86" y="145"/>
      <point x="86" y="105" type="qcurve" smooth="yes"/>
      <point x="86" y="42"/>
      <point x="149" y="20" type="qcurve"/>
      <point x="149" y="16" type="line"/>
      <point x="129" y="11"/>
      <point x="91" y="-8"/>
      <point x="61" y="-34"/>
      <point x="43" y="-68"/>
      <point x="43" y="-88" type="qcurve" smooth="yes"/>
      <point x="43" y="-116"/>
      <point x="66" y="-162"/>
      <point x="118" y="-194"/>
      <point x="202" y="-212"/>
      <point x="262" y="-212" type="qcurve" smooth="yes"/>
    </contour>
    <contour>
      <point x="212" y="230"/>
      <point x="157" y="288"/>
      <point x="157" y="338" type="qcurve" smooth="yes"/>
      <point x="157" y="377" type="line" smooth="yes"/>
      <point x="157" y="427"/>
      <point x="212" y="485"/>
      <point x="267" y="485" type="qcurve" smooth="yes"/>
      <point x="322" y="485"/>
      <point x="377" y="427"/>
      <point x="377" y="377" type="qcurve" smooth="yes"/>
      <point x="377" y="338" type="line" smooth="yes"/>
      <point x="377" y="288"/>
      <point x="322" y="230"/>
      <point x="267" y="230" type="qcurve" smooth="yes"/>
    </contour>
    <contour>
      <point x="116" y="-54"/>
      <point x="145" y="-8"/>
      <point x="177" y="6" type="qcurve"/>
      <point x="333" y="6" type="line" smooth="yes"/>
      <point x="398" y="6"/>
      <point x="450" y="-33"/>
      <point x="450" y="-71" type="qcurve" smooth="yes"/>
      <point x="450" y="-113"/>
      <point x="365" y="-163"/>
      <point x="290" y="-163" type="qcurve" smooth="yes"/>
      <point x="243" y="-163" type="line" smooth="yes"/>
      <point x="185" y="-163"/>
      <point x="116" y="-123"/>
      <point x="116" y="-83" type="qcurve" smooth="yes"/>
    </contour>
  </outline>
</glyph>
<glyph name="h" format="2">
  <advance width="624"/>
  <unicode hex="0068"/>
  <note>
h
</note>
  <anchor x="312" y="0" name="bottom"/>
  <anchor x="150" y="718" name="top"/>
  <outline>
    <contour>
      <point x="35" y="0" type="line"/>
      <point x="265" y="0" type="line"/>
      <point x="265" y="46" type="line"/>
      <point x="191" y="46" type="line"/>
      <point x="191" y="369" type="line" smooth="yes"/>
      <point x="191" y="395"/>
      <point x="212" y="433"/>
      <point x="247" y="459"/>
      <point x="290" y="471"/>
      <point x="312" y="471" type="qcurve" smooth="yes"/>
      <point x="375" y="471"/>
      <point x="433" y="400"/>
      <point x="433" y="327" type="qcurve" smooth="yes"/>
      <point x="433" y="46" type="line"/>
      <point x="359" y="46" type="line"/>
      <point x="359" y="0" type="line"/>
      <point x="589" y="0" type="line"/>
      <point x="589" y="46" type="line"/>
      <point x="515" y="46" type="line"/>
      <point x="515" y="334" type="line" smooth="yes"/>
      <point x="515" y="431"/>
      <point x="435" y="528"/>
      <point x="342" y="528" type="qcurve" smooth="yes"/>
      <point x="311" y="528"/>
      <point x="262" y="512"/>
      <point x="225" y="486"/>
      <point x="201" y="454"/>
      <point x="195" y="439" type="qcurve"/>
      <point x="191" y="439" type="line"/>
      <point x="191" y="760" type="line"/>
      <point x="35" y="731" type="line"/>
      <point x="35" y="696" type="line"/>
      <point x="109" y="683" type="line"/>
      <point x="109" y="46" type="line"/>
      <point x="35" y="46" type="line"/>
    </contour>
  </outline>
</glyph>
<glyph name="j" format="2">
  <advance width="303"/>
  <unicode hex="006A"/>
  <note>
j
</note>
  <outline>
    <contour>
      <point x="126" y="-212"/>
      <point x="202" y="-133"/>
      <point x="202" y="-52" type="qcurve" smooth="yes"/>
      <point x="202" y="528" type="line"/>
      <point x="46" y="498" type="line"/>
      <point x="46" y="464" type="line"/>
      <point x="120" y="451" type="line"/>
      <point x="120" y="-96" type="line" smooth="yes"/>
      <point x="120" y="-176"/>
      <point x="58" y="-176" type="qcurve" smooth="yes"/>
      <point x="41" y="-176"/>
      <point x="32" y="-172" type="qcurve"/>
      <point x="32" y="-169" type="line"/>
      <point x="41" y="-166"/>
      <point x="54" y="-143"/>
      <point x="54" y="-129" type="qcurve" smooth="yes"/>
      <point x="54" y="-108"/>
      <point x="31" y="-82"/>
      <point x="9" y="-82" type="qcurve" smooth="yes"/>
      <point x="-14" y="-82"/>
      <point x="-40" y="-112"/>
      <point x="-40" y="-134" type="qcurve" smooth="yes"/>
      <point x="-40" y="-168"/>
      <point x="8" y="-212"/>
      <point x="58" y="-212" type="qcurve" smooth="yes"/>
    </contour>
    <contour>
      <point x="187" y="635"/>
      <point x="215" y="666"/>
      <point x="215" y="688" type="qcurve" smooth="yes"/>
      <point x="215" y="693" type="line" smooth="yes"/>
      <point x="215" y="715"/>
      <point x="187" y="746"/>
      <point x="161" y="746" type="qcurve" smooth="yes"/>
      <point x="135" y="746"/>
      <point x="108" y="715"/>
      <point x="108" y="693" type="qcurve" smooth="yes"/>
      <point x="108" y="688" type="line" smooth="yes"/>
      <point x="108" y="666"/>
      <point x="135" y="635"/>
      <point x="161" y="635" type="qcurve" smooth="yes"/>
    </contour>
  </outline>
</glyph>
<glyph name="k" format="2">
  <advance width="584"/>
  <unicode hex="006B"/>
  <note>
k
</note>
  <anchor x="312" y="0" name="bottom"/>
  <outline>
    <contour>
      <point x="35" y="0" type="line"/>
      <point x="265" y="0" type="line"/>
      <point x="265" y="46" type="line"/>
      <point x="191" y="46" type="line"/>
      <point x="191" y="173" type="line"/>
      <point x="278" y="264" type="line"/>
      <point x="423" y="46" type="line"/>
      <point x="359" y="46" type="line"/>
      <point x="359" y="0" type="line"/>
      <point x="572" y="0" type="line"/>
      <point x="572" y="46" type="line"/>
      <point x="515" y="46" type="line"/>
      <point x="334" y="319" type="line"/>
      <point x="479" y="470" type="line"/>
      <point x="552" y="470" type="line"/>
      <point x="552" y="516" type="line"/>
      <point x="338" y="516" type="line"/>
      <point x="338" y="470" type="line"/>
      <point x="406" y="470" type="line"/>
      <point x="280" y="331" type="line"/>
      <point x="196" y="237" type="line"/>
      <point x="191" y="237" type="line"/>
      <point x="191" y="760" type="line"/>
      <point x="35" y="731" type="line"/>
      <point x="35" y="696" type="line"/>
      <point x="109" y="683" type="line"/>
      <point x="109" y="46" type="line"/>
      <point x="35" y="46" type="line"/>
    </contour>
  </outline>
</glyph>
<glyph name="m" format="2">
  <advance width="953"/>
  <unicode hex="006D"/>
  <note>
m
</note>
  <anchor x="484" y="0" name="bottom"/>
  <anchor x="484" y="540" name="top"/>
  <outline>
    <contour>
      <point x="50" y="0" type="line"/>
      <point x="280" y="0" type="line"/>
      <point x="280" y="46" type="line"/>
      <point x="206" y="46" type="line"/>
      <point x="206" y="368" type="line" smooth="yes"/>
      <point x="206" y="394"/>
      <point x="226" y="433"/>
      <point x="260" y="458"/>
      <point x="302" y="471"/>
      <point x="325" y="471" type="qcurve" smooth="yes"/>
      <point x="443" y="471"/>
      <point x="443" y="327" type="qcurve" smooth="yes"/>
      <point x="443" y="46" type="line"/>
      <point x="369" y="46" type="line"/>
      <point x="369" y="0" type="line"/>
      <point x="599" y="0" type="line"/>
      <point x="599" y="46" type="line"/>
      <point x="525" y="46" type="line"/>
      <point x="525" y="368" type="line" smooth="yes"/>
      <point x="525" y="394"/>
      <point x="545" y="433"/>
      <point x="578" y="458"/>
      <point x="621" y="471"/>
      <point x="643" y="471" type="qcurve" smooth="yes"/>
      <point x="762" y="471"/>
      <point x="762" y="327" type="qcurve" smooth="yes"/>
      <point x="762" y="46" type="line"/>
      <point x="688" y="46" type="line"/>
      <point x="688" y="0" type="line"/>
      <point x="918" y="0" type="line"/>
      <point x="918" y="46" type="line"/>
      <point x="844" y="46" type="line"/>
      <point x="844" y="333" type="line" smooth="yes"/>
      <point x="844" y="430"/>
      <point x="765" y="528"/>
      <point x="672" y="528" type="qcurve" smooth="yes"/>
      <point x="638" y="528"/>
      <point x="587" y="510"/>
      <point x="549" y="480"/>
      <point x="523" y="444"/>
      <point x="515" y="426" type="qcurve"/>
      <point x="512" y="426" type="line"/>
      <point x="497" y="478"/>
      <point x="419" y="528"/>
      <point x="353" y="528" type="qcurve" smooth="yes"/>
      <point x="323" y="528"/>
      <point x="275" y="512"/>
      <point x="238" y="486"/>
      <point x="214" y="454"/>
      <point x="208" y="438" type="qcurve"/>
      <point x="204" y="438" type="line"/>
      <point x="204" y="528" type="line"/>
      <point x="50" y="498" type="line"/>
      <point x="50" y="464" type="line"/>
      <point x="124" y="451" type="line"/>
      <point x="124" y="46" type="line"/>
      <point x="50" y="46" type="line"/>
    </contour>
  </outline>
</glyph>
<glyph name="q" format="2">
  <advance width="598"/>
  <unicode hex="0071"/>
  <note>
q
</note>
  <anchor x="277" y="540" name="top"/>
  <outline>
    <contour>
      <point x="323" y="-200" type="line"/>
      <point x="573" y="-200" type="line"/>
      <point x="573" y="-154" type="line"/>
      <point x="499" y="-154" type="line"/>
      <point x="499" y="516" type="line"/>
      <point x="466" y="516" type="line"/>
      <point x="420" y="439" type="line"/>
      <point x="416" y="439" type="line"/>
      <point x="399" y="476"/>
      <point x="323" y="528"/>
      <point x="261" y="528" type="qcurve" smooth="yes"/>
      <point x="165" y="528"/>
      <point x="50" y="389"/>
      <point x="50" y="258" type="qcurve" smooth="yes"/>
      <point x="50" y="127"/>
      <point x="165" y="-12"/>
      <point x="261" y="-12" type="qcurve" smooth="yes"/>
      <point x="322" y="-12"/>
      <point x="396" y="41"/>
      <point x="413" y="78" type="qcurve"/>
      <point x="417" y="78" type="line"/>
      <point x="417" y="-154" type="line"/>
      <point x="323" y="-154" type="line"/>
    </contour>
    <contour>
      <point x="216" y="45"/>
      <point x="139" y="138"/>
      <point x="139" y="216" type="qcurve" smooth="yes"/>
      <point x="139" y="300" type="line" smooth="yes"/>
      <point x="139" y="378"/>
      <point x="216" y="471"/>
      <point x="285" y="471" type="qcurve" smooth="yes"/>
      <point x="309" y="471"/>
      <point x="357" y="457"/>
      <point x="394" y="431"/>
      <point x="417" y="392"/>
      <point x="417" y="368" type="qcurve" smooth="yes"/>
      <point x="417" y="148" type="line" smooth="yes"/>
      <point x="417" y="124"/>
      <point x="394" y="85"/>
      <point x="357" y="59"/>
      <point x="309" y="45"/>
      <point x="285" y="45" type="qcurve" smooth="yes"/>
    </contour>
  </outline>
</glyph>
<glyph name="s" format="2">
  <advance width="488"/>
  <unicode hex="0073"/>
  <note>
s
</note>
  <anchor x="252" y="0" name="bottom"/>
  <anchor x="236" y="540" name="top"/>
  <outline>
    <contour>
      <point x="295" y="-12"/>
      <point x="362" y="11"/>
      <point x="409" y="52"/>
      <point x="434" y="107"/>
      <point x="434" y="139" type="qcurve" smooth="yes"/>
      <point x="434" y="205"/>
      <point x="357" y="279"/>
      <point x="280" y="295" type="qcurve" smooth="yes"/>
      <point x="224" y="307" type="line" smooth="yes"/>
      <point x="184" y="316"/>
      <point x="138" y="363"/>
      <point x="138" y="398" type="qcurve" smooth="yes"/>
      <point x="138" y="440"/>
      <point x="195" y="479"/>
      <point x="246" y="479" type="qcurve" smooth="yes"/>
      <point x="358" y="479"/>
      <point x="358" y="399" type="qcurve" smooth="yes"/>
      <point x="358" y="361" type="line"/>
      <point x="418" y="361" type="line"/>
      <point x="418" y="516" type="line"/>
      <point x="358" y="516" type="line"/>
      <point x="358" y="474" type="line"/>
      <point x="354" y="474" type="line"/>
      <point x="344" y="498"/>
      <point x="283" y="528"/>
      <point x="235" y="528" type="qcurve" smooth="yes"/>
      <point x="156" y="528"/>
      <point x="62" y="451"/>
      <point x="62" y="383" type="qcurve" smooth="yes"/>
      <point x="62" y="317"/>
      <point x="137" y="241"/>
      <point x="211" y="225" type="qcurve" smooth="yes"/>
      <point x="271" y="212" type="line" smooth="yes"/>
      <point x="356" y="193"/>
      <point x="356" y="123" type="qcurve" smooth="yes"/>
      <point x="356" y="78"/>
      <point x="293" y="37"/>
      <point x="236" y="37" type="qcurve" smooth="yes"/>
      <point x="174" y="37"/>
      <point x="120" y="91"/>
      <point x="120" y="134" type="qcurve" smooth="yes"/>
      <point x="120" y="155" type="line"/>
      <point x="60" y="155" type="line"/>
      <point x="60" y="0" type="line"/>
      <point x="120" y="0" type="line"/>
      <point x="120" y="51" type="line"/>
      <point x="124" y="51" type="line"/>
      <point x="135" y="27"/>
      <point x="205" y="-12"/>
      <point x="252" y="-12" type="qcurve" smooth="yes"/>
    </contour>
  </outline>
</glyph>
<glyph name="u" format="2">
  <advance width="619"/>
  <unicode hex="0075"/>
  <note>
u
</note>
  <anchor x="307" y="0" name="bottom"/>
  <anchor x="585" y="18" name="ogonek"/>
  <anchor x="299" y="540" name="top"/>
  <outline>
    <contour>
      <point x="308" y="-12"/>
      <point x="358" y="5"/>
      <point x="395" y="31"/>
      <point x="420" y="63"/>
      <point x="426" y="78" type="qcurve"/>
      <point x="430" y="78" type="line"/>
      <point x="430" y="-12" type="line"/>
      <point x="584" y="18" type="line"/>
      <point x="584" y="52" type="line"/>
      <point x="510" y="65" type="line"/>
      <point x="510" y="528" type="line"/>
      <point x="354" y="498" type="line"/>
      <point x="354" y="464" type="line"/>
      <point x="428" y="451" type="line"/>
      <point x="428" y="147" type="line" smooth="yes"/>
      <point x="428" y="121"/>
      <point x="407" y="83"/>
      <point x="372" y="57"/>
      <point x="329" y="45"/>
      <point x="307" y="45" type="qcurve" smooth="yes"/>
      <point x="186" y="45"/>
      <point x="186" y="190" type="qcurve" smooth="yes"/>
      <point x="186" y="528" type="line"/>
      <point x="30" y="498" type="line"/>
      <point x="30" y="464" type="line"/>
      <point x="104" y="451" type="line"/>
      <point x="104" y="183" type="line" smooth="yes"/>
      <point x="104" y="85"/>
      <point x="185" y="-12"/>
      <point x="278" y="-12" type="qcurve" smooth="yes"/>
    </contour>
  </outline>
</glyph>
<glyph name="y" format="2">
  <advance width="534"/>
  <unicode hex="0079"/>
  <note>
y
</note>
  <anchor x="384" y="0" name="bottom"/>
  <anchor x="282" y="540" name="top"/>
  <outline>
    <contour>
      <point x="174" y="-212"/>
      <point x="245" y="-141"/>
      <point x="266" y="-86" type="qcurve" smooth="yes"/>
      <point x="480" y="470" type="line"/>
      <point x="532" y="470" type="line"/>
      <point x="532" y="516" type="line"/>
      <point x="350" y="516" type="line"/>
      <point x="350" y="470" type="line"/>
      <point x="422" y="470" type="line"/>
      <point x="287" y="92" type="line"/>
      <point x="283" y="92" type="line"/>
      <point x="144" y="470" type="line"/>
      <point x="216" y="470" type="line"/>
      <point x="216" y="516" type="line"/>
      <point x="2" y="516" type="line"/>
      <point x="2" y="470" type="line"/>
      <point x="54" y="470" type="line"/>
      <point x="244" y="-21" type="line"/>
      <point x="223" y="-78" type="line" smooth="yes"/>
      <point x="203" y="-129"/>
      <point x="153" y="-174"/>
      <point x="127" y="-174" type="qcurve" smooth="yes"/>
      <point x="112" y="-174"/>
      <point x="101" y="-170" type="qcurve"/>
      <point x="101" y="-167" type="line"/>
      <point x="111" y="-164"/>
      <point x="128" y="-143"/>
      <point x="128" y="-126" type="qcurve" smooth="yes"/>
      <point x="128" y="-103"/>
      <point x="103" y="-76"/>
      <point x="80" y="-76" type="qcurve" smooth="yes"/>
      <point x="54" y="-76"/>
      <point x="26" y="-108"/>
      <point x="26" y="-134" type="qcurve" smooth="yes"/>
      <point x="26" y="-169"/>
      <point x="72" y="-212"/>
      <point x="123" y="-212" type="qcurve" smooth="yes"/>
    </contour>
  </outline>
</glyph>
<glyph name="braceleft" format="2">
  <advance width="327"/>
  <unicode hex="007B"/>
  <note>
braceleft
</note>
  <outline>
    <contour>
      <point x="195" y="-138" type="line"/>
      <point x="293" y="-138" type="line"/>
      <point x="293" y="-93" type="line"/>
      <point x="193" y="-93" type="line"/>
      <point x="193" y="180" type="line" smooth="yes"/>
      <point x="193" y="204"/>
      <point x="175" y="246"/>
      <point x="145" y="280"/>
      <point x="104" y="302"/>
      <point x="82" y="306" type="qcurve"/>
      <point x="82" y="316" type="line"/>
      <point x="104" y="320"/>
      <point x="145" y="342"/>
      <point x="175" y="376"/>
      <point x="193" y="418"/>
      <point x="193" y="442" type="qcurve" smooth="yes"/>
      <point x="193" y="715" type="line"/>
      <point x="293" y="715" type="line"/>
      <point x="293" y="760" type="line"/>
      <point x="195" y="760" type="line" smooth="yes"/>
      <point x="156" y="760"/>
      <point x="117" y="716"/>
      <point x="117" y="684" type="qcurve" smooth="yes"/>
      <point x="117" y="425" type="line" smooth="yes"/>
      <point x="117" y="381"/>
      <point x="60" y="337"/>
      <point x="16" y="337" type="qcurve"/>
      <point x="16" y="285" type="line"/>
      <point x="60" y="285"/>
      <point x="117" y="241"/>
      <point x="117" y="197" type="qcurve" smooth="yes"/>
      <point x="117" y="-62" type="line" smooth="yes"/>
      <point x="117" y="-94"/>
      <point x="156" y="-138"/>
      <point x="195" y="-138" type="qcurve"/>
    </contour>
  </outline>
</glyph>
<glyph name="exclamdown" format="2">
  <advance width="280"/>
  <unicode hex="00A1"/>
  <note>
exclamdown
</note>
  <outline>
    <contour>
      <point x="169" y="402"/>
      <point x="202" y="437"/>
      <point x="202" y="462" type="qcurve" smooth="yes"/>
      <point x="202" y="468" type="line" smooth="yes"/>
      <point x="202" y="493"/>
      <point x="169" y="528"/>
      <point x="140" y="528" type="qcurve" smooth="yes"/>
      <point x="111" y="528"/>
      <point x="78" y="493"/>
      <point x="78" y="468" type="qcurve" smooth="yes"/>
      <point x="78" y="462" type="line" smooth="yes"/>
      <point x="78" y="437"/>
      <point x="111" y="402"/>
      <point x="140" y="402" type="qcurve" smooth="yes"/>
    </contour>
    <contour>
      <point x="99" y="-182" type="line"/>
      <point x="181" y="-182" type="line"/>
      <point x="181" y="29" type="line"/>
      <point x="157" y="332" type="line"/>
      <point x="123" y="332" type="line"/>
      <point x="99" y="29" type="line"/>
    </contour>
  </outline>
</glyph>
<glyph name="cent" format="2">
  <advance width="516"/>
  <unicode hex="00A2"/>
  <note>
cent
</note>
  <outline>
    <contour>
      <point x="252" y="-114" type="line"/>
      <point x="304" y="-114" type="line"/>
      <point x="304" y="-11" type="line"/>
      <point x="340" y="-8"/>
      <point x="396" y="17"/>
      <point x="438" y="54"/>
      <point x="467" y="99"/>
      <point x="476" y="123" type="qcurve"/>
      <point x="444" y="144" type="line"/>
      <point x="424" y="105"/>
      <point x="359" y="54"/>
      <point x="302" y="52" type="qcurve"/>
      <point x="302" y="481" type="line"/>
      <point x="331" y="481"/>
      <point x="372" y="468"/>
      <point x="386" y="460" type="qcurve"/>
      <point x="386" y="457" type="line"/>
      <point x="366" y="449"/>
      <point x="343" y="420"/>
      <point x="343" y="400" type="qcurve" smooth="yes"/>
      <point x="343" y="375"/>
      <point x="374" y="340"/>
      <point x="401" y="340" type="qcurve" smooth="yes"/>
      <point x="430" y="340"/>
      <point x="463" y="375"/>
      <point x="463" y="405" type="qcurve" smooth="yes"/>
      <point x="463" y="456"/>
      <point x="378" y="523"/>
      <point x="304" y="527" type="qcurve"/>
      <point x="304" y="629" type="line"/>
      <point x="252" y="629" type="line"/>
      <point x="252" y="525" type="line"/>
      <point x="205" y="519"/>
      <point x="129" y="477"/>
      <point x="75" y="408"/>
      <point x="45" y="315"/>
      <point x="45" y="258" type="qcurve" smooth="yes"/>
      <point x="45" y="201"/>
      <point x="73" y="106"/>
      <point x="126" y="36"/>
      <point x="203" y="-7"/>
      <point x="252" y="-11" type="qcurve"/>
    </contour>
    <contour>
      <point x="254" y="56" type="line"/>
      <point x="198" y="69"/>
      <point x="135" y="163"/>
      <point x="135" y="234" type="qcurve" smooth="yes"/>
      <point x="135" y="307" type="line" smooth="yes"/>
      <point x="135" y="370"/>
      <point x="200" y="461"/>
      <point x="254" y="475" type="qcurve"/>
    </contour>
  </outline>
</glyph>
<glyph name="yen" format="2">
  <advance width="631"/>
  <unicode hex="00A5"/>
  <note>
yen
</note>
  <outline>
    <contour>
      <point x="177" y="0" type="line"/>
      <point x="453" y="0" type="line"/>
      <point x="453" y="46" type="line"/>
      <point x="358" y="46" type="line"/>
      <point x="358" y="150" type="line"/>
      <point x="532" y="150" type="line"/>
      <point x="532" y="196" type="line"/>
      <point x="358" y="196" type="line"/>
      <point x="358" y="303" type="line"/>
      <point x="532" y="303" type="line"/>
      <point x="532" y="349" type="line"/>
      <point x="379" y="349" type="line"/>
      <point x="559" y="652" type="line"/>
      <point x="615" y="652" type="line"/>
      <point x="615" y="698" type="line"/>
      <point x="408" y="698" type="line"/>
      <point x="408" y="652" type="line"/>
      <point x="498" y="652" type="line"/>
      <point x="334" y="365" type="line"/>
      <point x="330" y="365" type="line"/>
      <point x="169" y="652" type="line"/>
      <point x="259" y="652" type="line"/>
      <point x="259" y="698" type="line"/>
      <point x="16" y="698" type="line"/>
      <point x="16" y="652" type="line"/>
      <point x="72" y="652" type="line"/>
      <point x="247" y="349" type="line"/>
      <point x="98" y="349" type="line"/>
      <point x="98" y="303" type="line"/>
      <point x="272" y="303" type="line"/>
      <point x="272" y="196" type="line"/>
      <point x="98" y="196" type="line"/>
      <point x="98" y="150" type="line"/>
      <point x="272" y="150" type="line"/>
      <point x="272" y="46" type="line"/>
      <point x="177" y="46" type="line"/>
    </contour>
  </outline>
</glyph>
<glyph name="brokenbar" format="2">
  <advance width="298"/>
  <unicode hex="00A6"/>
  <note>
brokenbar
</note>
  <outline>
    <contour>
      <point x="122" y="-138" type="line"/>
      <point x="176" y="-138" type="line"/>
      <point x="176" y="221" type="line"/>
      <point x="122" y="221" type="line"/>
    </contour>
    <contour>
      <point x="122" y="401" type="line"/>
      <point x="176" y="401" type="line"/>
      <point x="176" y="760" type="line"/>
      <point x="122" y="760" type="line"/>
    </contour>
  </outline>
</glyph>
<glyph name="dieresis" format="2">
  <advance width="600"/>
  <unicode hex="00A8"/>
  <note>
dieresis
</note>
  <outline>
    <contour>
      <point x="232" y="619"/>
      <point x="259" y="648"/>
      <point x="259" y="668" type="qcurve" smooth="yes"/>
      <point x="259" y="671" type="line" smooth="yes"/>
      <point x="259" y="691"/>
      <point x="232" y="720"/>
      <point x="209" y="720" type="qcurve" smooth="yes"/>
      <point x="186" y="720"/>
      <point x="159" y="691"/>
      <point x="159" y="671" type="qcurve" smooth="yes"/>
      <point x="159" y="668" type="line" smooth="yes"/>
      <point x="159" y="648"/>
      <point x="186" y="619"/>
      <point x="209" y="619" type="qcurve" smooth="yes"/>
    </contour>
    <contour>
      <point x="414" y="619"/>
      <point x="441" y="648"/>
      <point x="441" y="668" type="qcurve" smooth="yes"/>
      <point x="441" y="671" type="line" smooth="yes"/>
      <point x="441" y="691"/>
      <point x="414" y="720"/>
      <point x="391" y="720" type="qcurve" smooth="yes"/>
      <point x="368" y="720"/>
      <point x="341" y="691"/>
      <point x="341" y="671" type="qcurve" smooth="yes"/>
      <point x="341" y="668" type="line" smooth="yes"/>
      <point x="341" y="648"/>
      <point x="368" y="619"/>
      <point x="391" y="619" type="qcurve" smooth="yes"/>
    </contour>
  </outline>
</glyph>
<glyph name="registered" format="2">
  <advance width="475"/>
  <unicode hex="00AE"/>
  <note>
registered
</note>
  <outline>
    <contour>
      <point x="147" y="398" type="line"/>
      <point x="222" y="398" type="line"/>
      <point x="222" y="416" type="line"/>
      <point x="205" y="416" type="line"/>
      <point x="205" y="490" type="line"/>
      <point x="233" y="490" type="line"/>
      <point x="268" y="427" type="line" smooth="yes"/>
      <point x="278" y="410"/>
      <point x="304" y="398"/>
      <point x="324" y="398" type="qcurve" smooth="yes"/>
      <point x="335" y="398" type="line"/>
      <point x="335" y="416" type="line"/>
      <point x="333" y="416" type="line" smooth="yes"/>
      <point x="316" y="416"/>
      <point x="306" y="434" type="qcurve" smooth="yes"/>
      <point x="272" y="496" type="line"/>
      <point x="314" y="508"/>
      <point x="314" y="554" type="qcurve" smooth="yes"/>
      <point x="314" y="581"/>
      <point x="280" y="610"/>
      <point x="249" y="610" type="qcurve" smooth="yes"/>
      <point x="147" y="610" type="line"/>
      <point x="147" y="592" type="line"/>
      <point x="167" y="592" type="line"/>
      <point x="167" y="416" type="line"/>
      <point x="147" y="416" type="line"/>
    </contour>
    <contour>
      <point x="201" y="329"/>
      <point x="142" y="356"/>
      <point x="100" y="401"/>
      <point x="76" y="461"/>
      <point x="76" y="493" type="qcurve" smooth="yes"/>
      <point x="76" y="515" type="line" smooth="yes"/>
      <point x="76" y="547"/>
      <point x="100" y="607"/>
      <point x="142" y="652"/>
      <point x="201" y="679"/>
      <point x="237" y="679" type="qcurve" smooth="yes"/>
      <point x="273" y="679"/>
      <point x="332" y="652"/>
      <point x="374" y="607"/>
      <point x="398" y="547"/>
      <point x="398" y="515" type="qcurve" smooth="yes"/>
      <point x="398" y="493" type="line" smooth="yes"/>
      <point x="398" y="461"/>
      <point x="374" y="401"/>
      <point x="332" y="356"/>
      <point x="273" y="329"/>
      <point x="237" y="329" type="qcurve" smooth="yes"/>
    </contour>
    <contour>
      <point x="277" y="298"/>
      <point x="349" y="329"/>
      <point x="403" y="384"/>
      <point x="435" y="460"/>
      <point x="435" y="504" type="qcurve" smooth="yes"/>
      <point x="435" y="548"/>
      <point x="403" y="624"/>
      <point x="349" y="679"/>
      <point x="277" y="710"/>
      <point x="237" y="710" type="qcurve" smooth="yes"/>
      <point x="196" y="710"/>
      <point x="124" y="679"/>
      <point x="70" y="624"/>
      <point x="39" y="548"/>
      <point x="39" y="504" type="qcurve" smooth="yes"/>
      <point x="39" y="460"/>
      <point x="70" y="384"/>
      <point x="124" y="329"/>
      <point x="196" y="298"/>
      <point x="237" y="298" type="qcurve" smooth="yes"/>
    </contour>
    <contour>
      <point x="205" y="587" type="line"/>
      <point x="246" y="587" type="line" smooth="yes"/>
      <point x="260" y="587"/>
      <point x="275" y="570"/>
      <point x="275" y="556" type="qcurve" smooth="yes"/>
      <point x="275" y="543" type="line" smooth="yes"/>
      <point x="275" y="529"/>
      <point x="260" y="511"/>
      <point x="246" y="511" type="qcurve" smooth="yes"/>
      <point x="205" y="511" type="line"/>
    </contour>
  </outline>
</glyph>
<glyph name="degree" format="2">
  <advance width="466"/>
  <unicode hex="00B0"/>
  <note>
degree
</note>
  <outline>
    <contour>
      <point x="269" y="368"/>
      <point x="330" y="394"/>
      <point x="375" y="440"/>
      <point x="400" y="503"/>
      <point x="400" y="539" type="qcurve" smooth="yes"/>
      <point x="400" y="575"/>
      <point x="375" y="638"/>
      <point x="330" y="684"/>
      <point x="269" y="710"/>
      <point x="233" y="710" type="qcurve" smooth="yes"/>
      <point x="197" y="710"/>
      <point x="136" y="684"/>
      <point x="91" y="638"/>
      <point x="66" y="575"/>
      <point x="66" y="539" type="qcurve" smooth="yes"/>
      <point x="66" y="503"/>
      <point x="91" y="440"/>
      <point x="136" y="394"/>
      <point x="197" y="368"/>
      <point x="233" y="368" type="qcurve" smooth="yes"/>
    </contour>
    <contour>
      <point x="208" y="418"/>
      <point x="167" y="437"/>
      <point x="138" y="470"/>
      <point x="122" y="514"/>
      <point x="122" y="539" type="qcurve" smooth="yes"/>
      <point x="122" y="564"/>
      <point x="138" y="608"/>
      <point x="167" y="641"/>
      <point x="208" y="660"/>
      <point x="233" y="660" type="qcurve" smooth="yes"/>
      <point x="258" y="660"/>
      <point x="299" y="641"/>
      <point x="328" y="608"/>
      <point x="344" y="564"/>
      <point x="344" y="539" type="qcurve" smooth="yes"/>
      <point x="344" y="514"/>
      <point x="328" y="470"/>
      <point x="299" y="437"/>
      <point x="258" y="418"/>
      <point x="233" y="418" type="qcurve" smooth="yes"/>
    </contour>
  </outline>
</glyph>
<glyph name="plusminus" format="2">
  <advance width="600"/>
  <unicode hex="00B1"/>
  <note>
plusminus
</note>
  <outline>
    <contour>
      <point x="272" y="167" type="line"/>
      <point x="328" y="167" type="line"/>
      <point x="328" y="365" type="line"/>
      <point x="534" y="365" type="line"/>
      <point x="534" y="417" type="line"/>
      <point x="328" y="417" type="line"/>
      <point x="328" y="615" type="line"/>
      <point x="272" y="615" type="line"/>
      <point x="272" y="417" type="line"/>
      <point x="66" y="417" type="line"/>
      <point x="66" y="365" type="line"/>
      <point x="272" y="365" type="line"/>
    </contour>
    <contour>
      <point x="66" y="0" type="line"/>
      <point x="534" y="0" type="line"/>
      <point x="534" y="52" type="line"/>
      <point x="66" y="52" type="line"/>
    </contour>
  </outline>
</glyph>
<glyph name="threesuperior" format="2">
  <advance width="346"/>
  <unicode hex="00B3"/>
  <note>
threesuperior
</note>
  <outline>
    <contour>
      <point x="221" y="324"/>
      <point x="301" y="380"/>
      <point x="301" y="434" type="qcurve" smooth="yes"/>
      <point x="301" y="472"/>
      <point x="248" y="516"/>
      <point x="211" y="522" type="qcurve"/>
      <point x="211" y="526" type="line"/>
      <point x="227" y="529"/>
      <point x="257" y="543"/>
      <point x="280" y="566"/>
      <point x="294" y="595"/>
      <point x="294" y="612" type="qcurve" smooth="yes"/>
      <point x="294" y="660"/>
      <point x="226" y="704"/>
      <point x="162" y="704" type="qcurve" smooth="yes"/>
      <point x="109" y="704"/>
      <point x="41" y="658"/>
      <point x="41" y="629" type="qcurve" smooth="yes"/>
      <point x="41" y="609"/>
      <point x="63" y="584"/>
      <point x="83" y="584" type="qcurve" smooth="yes"/>
      <point x="102" y="584"/>
      <point x="122" y="607"/>
      <point x="122" y="624" type="qcurve" smooth="yes"/>
      <point x="122" y="636"/>
      <point x="111" y="653"/>
      <point x="105" y="658" type="qcurve"/>
      <point x="105" y="661" type="line"/>
      <point x="120" y="670"/>
      <point x="154" y="670" type="qcurve" smooth="yes"/>
      <point x="185" y="670"/>
      <point x="222" y="641"/>
      <point x="222" y="612" type="qcurve" smooth="yes"/>
      <point x="222" y="599" type="line" smooth="yes"/>
      <point x="222" y="576"/>
      <point x="184" y="540"/>
      <point x="148" y="540" type="qcurve" smooth="yes"/>
      <point x="119" y="540" type="line"/>
      <point x="119" y="503" type="line"/>
      <point x="152" y="503" type="line" smooth="yes"/>
      <point x="190" y="503"/>
      <point x="229" y="469"/>
      <point x="229" y="440" type="qcurve" smooth="yes"/>
      <point x="229" y="425" type="line" smooth="yes"/>
      <point x="229" y="395"/>
      <point x="186" y="358"/>
      <point x="146" y="358" type="qcurve" smooth="yes"/>
      <point x="112" y="358"/>
      <point x="95" y="370" type="qcurve"/>
      <point x="95" y="373" type="line"/>
      <point x="102" y="378"/>
      <point x="112" y="396"/>
      <point x="112" y="407" type="qcurve" smooth="yes"/>
      <point x="112" y="424"/>
      <point x="93" y="447"/>
      <point x="73" y="447" type="qcurve" smooth="yes"/>
      <point x="53" y="447"/>
      <point x="31" y="423"/>
      <point x="31" y="403" type="qcurve" smooth="yes"/>
      <point x="31" y="372"/>
      <point x="96" y="324"/>
      <point x="156" y="324" type="qcurve" smooth="yes"/>
    </contour>
  </outline>
</glyph>
<glyph name="acute" format="2">
  <advance width="600"/>
  <unicode hex="00B4"/>
  <note>
acute
</note>
  <outline>
    <contour>
      <point x="293" y="585" type="line"/>
      <point x="419" y="738" type="line"/>
      <point x="342" y="776" type="line"/>
      <point x="266" y="599" type="line"/>
    </contour>
  </outline>
</glyph>
<glyph name="mu" format="2">
  <advance width="619"/>
  <unicode hex="00B5"/>
  <note>
mu
</note>
  <outline>
    <contour>
      <point x="104" y="-200" type="line"/>
      <point x="193" y="-200" type="line"/>
      <point x="193" y="-144" type="line"/>
      <point x="152" y="43" type="line"/>
      <point x="156" y="43" type="line"/>
      <point x="173" y="17"/>
      <point x="237" y="-12"/>
      <point x="278" y="-12" type="qcurve" smooth="yes"/>
      <point x="308" y="-12"/>
      <point x="358" y="5"/>
      <point x="395" y="31"/>
      <point x="420" y="63"/>
      <point x="426" y="78" type="qcurve"/>
      <point x="430" y="78" type="line"/>
      <point x="430" y="-12" type="line"/>
      <point x="584" y="18" type="line"/>
      <point x="584" y="52" type="line"/>
      <point x="510" y="65" type="line"/>
      <point x="510" y="528" type="line"/>
      <point x="354" y="498" type="line"/>
      <point x="354" y="464" type="line"/>
      <point x="428" y="451" type="line"/>
      <point x="428" y="147" type="line" smooth="yes"/>
      <point x="428" y="121"/>
      <point x="407" y="83"/>
      <point x="372" y="57"/>
      <point x="329" y="45"/>
      <point x="307" y="45" type="qcurve" smooth="yes"/>
      <point x="186" y="45"/>
      <point x="186" y="190" type="qcurve" smooth="yes"/>
      <point x="186" y="528" type="line"/>
      <point x="30" y="498" type="line"/>
      <point x="30" y="464" type="line"/>
      <point x="104" y="451" type="line"/>
    </contour>
  </outline>
</glyph>
<glyph name="paragraph" format="2">
  <advance width="641"/>
  <unicode hex="00B6"/>
  <note>
paragraph
</note>
  <outline>
    <contour>
      <point x="389" y="-154"/>
      <point x="491" y="-40"/>
      <point x="491" y="74" type="qcurve" smooth="yes"/>
      <point x="491" y="652" type="line"/>
      <point x="566" y="652" type="line"/>
      <point x="566" y="698" type="line"/>
      <point x="305" y="698" type="line" smooth="yes"/>
      <point x="253" y="698"/>
      <point x="161" y="674"/>
      <point x="93" y="625"/>
      <point x="53" y="551"/>
      <point x="53" y="502" type="qcurve" smooth="yes"/>
      <point x="53" y="452"/>
      <point x="93" y="379"/>
      <point x="161" y="330"/>
      <point x="253" y="305"/>
      <point x="305" y="305" type="qcurve"/>
      <point x="305" y="-112" type="line"/>
      <point x="297" y="-112" type="line" smooth="yes"/>
      <point x="259" y="-112"/>
      <point x="207" y="-98"/>
      <point x="190" y="-86" type="qcurve"/>
      <point x="190" y="-83" type="line"/>
      <point x="211" y="-77"/>
      <point x="236" y="-49"/>
      <point x="236" y="-26" type="qcurve" smooth="yes"/>
      <point x="236" y="-2"/>
      <point x="209" y="30"/>
      <point x="183" y="30" type="qcurve" smooth="yes"/>
      <point x="154" y="30"/>
      <point x="122" y="-7"/>
      <point x="122" y="-37" type="qcurve" smooth="yes"/>
      <point x="122" y="-63"/>
      <point x="149" y="-105"/>
      <point x="195" y="-137"/>
      <point x="259" y="-154"/>
      <point x="297" y="-154" type="qcurve" smooth="yes"/>
    </contour>
    <contour>
      <point x="355" y="652" type="line"/>
      <point x="441" y="652" type="line"/>
      <point x="441" y="74" type="line" smooth="yes"/>
      <point x="441" y="0"/>
      <point x="397" y="-86"/>
      <point x="355" y="-102" type="qcurve"/>
    </contour>
  </outline>
</glyph>
<glyph name="cedilla" format="2">
  <advance width="600"/>
  <unicode hex="00B8"/>
  <note>
cedilla
</note>
  <outline>
    <contour>
      <point x="334" y="-206"/>
      <point x="373" y="-196"/>
      <point x="403" y="-176"/>
      <point x="420" y="-146"/>
      <point x="420" y="-125" type="qcurve" smooth="yes"/>
      <point x="420" y="-93"/>
      <point x="378" y="-60"/>
      <point x="346" y="-60" type="qcurve" smooth="yes"/>
      <point x="330" y="-60"/>
      <point x="310" y="-65" type="qcurve"/>
      <point x="307" y="-62" type="line"/>
      <point x="323" y="18" type="line"/>
      <point x="285" y="18" type="line"/>
      <point x="266" y="-78" type="line"/>
      <point x="294" y="-81" type="line" smooth="yes"/>
      <point x="332" y="-85"/>
      <point x="355" y="-112"/>
      <point x="355" y="-128" type="qcurve" smooth="yes"/>
      <point x="355" y="-149"/>
      <point x="326" y="-170"/>
      <point x="302" y="-170" type="qcurve" smooth="yes"/>
      <point x="282" y="-170"/>
      <point x="254" y="-157"/>
      <point x="244" y="-146" type="qcurve"/>
      <point x="224" y="-167" type="line"/>
      <point x="235" y="-180"/>
      <point x="276" y="-206"/>
      <point x="312" y="-206" type="qcurve" smooth="yes"/>
    </contour>
  </outline>
</glyph>
<glyph name="ordmasculine" format="2">
  <advance width="406"/>
  <unicode hex="00BA"/>
  <note>
ordmasculine
</note>
  <outline>
    <contour>
      <point x="178" y="380"/>
      <point x="143" y="397"/>
      <point x="120" y="427"/>
      <point x="110" y="466"/>
      <point x="110" y="488" type="qcurve" smooth="yes"/>
      <point x="110" y="562" type="line" smooth="yes"/>
      <point x="110" y="584"/>
      <point x="120" y="623"/>
      <point x="143" y="653"/>
      <point x="178" y="670"/>
      <point x="203" y="670" type="qcurve" smooth="yes"/>
      <point x="228" y="670"/>
      <point x="263" y="653"/>
      <point x="285" y="623"/>
      <point x="296" y="584"/>
      <point x="296" y="562" type="qcurve" smooth="yes"/>
      <point x="296" y="488" type="line" smooth="yes"/>
      <point x="296" y="466"/>
      <point x="285" y="427"/>
      <point x="263" y="397"/>
      <point x="228" y="380"/>
      <point x="203" y="380" type="qcurve" smooth="yes"/>
    </contour>
    <contour>
      <point x="239" y="346"/>
      <point x="299" y="372"/>
      <point x="341" y="419"/>
      <point x="364" y="485"/>
      <point x="364" y="525" type="qcurve" smooth="yes"/>
      <point x="364" y="565"/>
      <point x="341" y="631"/>
      <point x="299" y="678"/>
      <point x="239" y="704"/>
      <point x="203" y="704" type="qcurve" smooth="yes"/>
      <point x="167" y="704"/>
      <point x="107" y="678"/>
      <point x="65" y="631"/>
      <point x="42" y="565"/>
      <point x="42" y="525" type="qcurve" smooth="yes"/>
      <point x="42" y="485"/>
      <point x="65" y="419"/>
      <point x="107" y="372"/>
      <point x="167" y="346"/>
      <point x="203" y="346" type="qcurve" smooth="yes"/>
    </contour>
  </outline>
</glyph>
<glyph name="AE" format="2">
  <advance width="954"/>
  <unicode hex="00C6"/>
  <note>
AE
</note>
  <anchor x="606" y="698" name="top"/>
  <outline>
    <contour>
      <point x="11" y="0" type="line"/>
      <point x="202" y="0" type="line"/>
      <point x="202" y="46" type="line"/>
      <point x="125" y="46" type="line"/>
      <point x="217" y="227" type="line"/>
      <point x="443" y="227" type="line"/>
      <point x="443" y="46" type="line"/>
      <point x="368" y="46" type="line"/>
      <point x="368" y="0" type="line"/>
      <point x="894" y="0" type="line"/>
      <point x="894" y="177" type="line"/>
      <point x="822" y="177" type="line"/>
      <point x="822" y="49" type="line"/>
      <point x="529" y="49" type="line"/>
      <point x="529" y="335" type="line"/>
      <point x="727" y="335" type="line"/>
      <point x="727" y="255" type="line"/>
      <point x="787" y="255" type="line"/>
      <point x="787" y="464" type="line"/>
      <point x="727" y="464" type="line"/>
      <point x="727" y="384" type="line"/>
      <point x="529" y="384" type="line"/>
      <point x="529" y="649" type="line"/>
      <point x="812" y="649" type="line"/>
      <point x="812" y="530" type="line"/>
      <point x="884" y="530" type="line"/>
      <point x="884" y="698" type="line"/>
      <point x="299" y="698" type="line"/>
      <point x="299" y="652" type="line"/>
      <point x="375" y="652" type="line"/>
      <point x="64" y="46" type="line"/>
      <point x="11" y="46" type="line"/>
    </contour>
    <contour>
      <point x="433" y="652" type="line"/>
      <point x="443" y="652" type="line"/>
      <point x="443" y="275" type="line"/>
      <point x="238" y="275" type="line"/>
    </contour>
  </outline>
</glyph>
<glyph name="Ccedilla" format="2">
  <advance width="649"/>
  <unicode hex="00C7"/>
  <note>
Ccedilla
</note>
  <outline>
    <contour>
      <point x="376" y="-206"/>
      <point x="415" y="-196"/>
      <point x="445" y="-176"/>
      <point x="462" y="-146"/>
      <point x="462" y="-125" type="qcurve" smooth="yes"/>
      <point x="462" y="-93"/>
      <point x="420" y="-60"/>
      <point x="388" y="-60" type="qcurve" smooth="yes"/>
      <point x="372" y="-60"/>
      <point x="352" y="-65" type="qcurve"/>
      <point x="349" y="-62" type="line"/>
      <point x="359" y="-11" type="line"/>
      <point x="408" y="-8"/>
      <point x="486" y="26"/>
      <point x="543" y="77"/>
      <point x="580" y="136"/>
      <point x="589" y="164" type="qcurve"/>
      <point x="550" y="183" type="line"/>
      <point x="528" y="126"/>
      <point x="432" y="52"/>
      <point x="361" y="52" type="qcurve" smooth="yes"/>
      <point x="310" y="52"/>
      <point x="230" y="86"/>
      <point x="175" y="149"/>
      <point x="146" y="237"/>
      <point x="146" y="292" type="qcurve" smooth="yes"/>
      <point x="146" y="413" type="line" smooth="yes"/>
      <point x="146" y="462"/>
      <point x="169" y="551"/>
      <point x="218" y="618"/>
      <point x="295" y="657"/>
      <point x="348" y="657" type="qcurve" smooth="yes"/>
      <point x="419" y="657"/>
      <point x="507" y="596"/>
      <point x="507" y="546" type="qcurve" smooth="yes"/>
      <point x="507" y="494" type="line"/>
      <point x="579" y="494" type="line"/>
      <point x="579" y="698" type="line"/>
      <point x="507" y="698" type="line"/>
      <point x="507" y="635" type="line"/>
      <point x="503" y="635" type="line"/>
      <point x="489" y="667"/>
      <point x="402" y="710"/>
      <point x="337" y="710" type="qcurve" smooth="yes"/>
      <point x="273" y="710"/>
      <point x="167" y="662"/>
      <point x="92" y="570"/>
      <point x="50" y="436"/>
      <point x="50" y="349" type="qcurve" smooth="yes"/>
      <point x="50" y="269"/>
      <point x="89" y="139"/>
      <point x="159" y="46"/>
      <point x="259" y="-7"/>
      <point x="321" y="-11" type="qcurve"/>
      <point x="308" y="-78" type="line"/>
      <point x="336" y="-81" type="line" smooth="yes"/>
      <point x="374" y="-85"/>
      <point x="397" y="-112"/>
      <point x="397" y="-128" type="qcurve" smooth="yes"/>
      <point x="397" y="-149"/>
      <point x="368" y="-170"/>
      <point x="344" y="-170" type="qcurve" smooth="yes"/>
      <point x="324" y="-170"/>
      <point x="296" y="-157"/>
      <point x="286" y="-146" type="qcurve"/>
      <point x="266" y="-167" type="line"/>
      <point x="277" y="-180"/>
      <point x="318" y="-206"/>
      <point x="354" y="-206" type="qcurve" smooth="yes"/>
    </contour>
  </outline>
</glyph>
<glyph name="Oslash" format="2">
  <advance width="716"/>
  <unicode hex="00D8"/>
  <note>
Oslash
</note>
  <anchor x="358" y="698" name="top"/>
  <outline>
    <contour>
      <point x="128" y="-44" type="line"/>
      <point x="184" y="40" type="line"/>
      <point x="257" y="-12"/>
      <point x="358" y="-12" type="qcurve" smooth="yes"/>
      <point x="427" y="-12"/>
      <point x="541" y="38"/>
      <point x="622" y="132"/>
      <point x="666" y="265"/>
      <point x="666" y="349" type="qcurve" smooth="yes"/>
      <point x="666" y="440"/>
      <point x="615" y="579"/>
      <point x="569" y="627" type="qcurve"/>
      <point x="627" y="715" type="line"/>
      <point x="588" y="742" type="line"/>
      <point x="532" y="658" type="line"/>
      <point x="459" y="710"/>
      <point x="358" y="710" type="qcurve" smooth="yes"/>
      <point x="289" y="710"/>
      <point x="175" y="660"/>
      <point x="94" y="566"/>
      <point x="50" y="433"/>
      <point x="50" y="349" type="qcurve" smooth="yes"/>
      <point x="50" y="258"/>
      <point x="101" y="119"/>
      <point x="147" y="71" type="qcurve"/>
      <point x="89" y="-17" type="line"/>
    </contour>
    <contour>
      <point x="187" y="131" type="line"/>
      <point x="146" y="196"/>
      <point x="146" y="292" type="qcurve" smooth="yes"/>
      <point x="146" y="406" type="line" smooth="yes"/>
      <point x="146" y="461"/>
      <point x="174" y="553"/>
      <point x="228" y="620"/>
      <point x="307" y="657"/>
      <point x="358" y="657" type="qcurve" smooth="yes"/>
      <point x="402" y="657"/>
      <point x="472" y="630"/>
      <point x="498" y="605" type="qcurve"/>
    </contour>
    <contour>
      <point x="314" y="41"/>
      <point x="244" y="68"/>
      <point x="218" y="93" type="qcurve"/>
      <point x="529" y="567" type="line"/>
      <point x="570" y="502"/>
      <point x="570" y="406" type="qcurve" smooth="yes"/>
      <point x="570" y="292" type="line" smooth="yes"/>
      <point x="570" y="237"/>
      <point x="542" y="145"/>
      <point x="488" y="78"/>
      <point x="409" y="41"/>
      <point x="358" y="41" type="qcurve" smooth="yes"/>
    </contour>
  </outline>
</glyph>
<glyph name="germandbls" format="2">
  <advance width="646"/>
  <unicode hex="00DF"/>
  <note>
germandbls
</note>
  <outline>
    <contour>
      <point x="481" y="-12"/>
      <point x="547" y="12"/>
      <point x="594" y="54"/>
      <point x="619" y="112"/>
      <point x="619" y="146" type="qcurve" smooth="yes"/>
      <point x="619" y="206"/>
      <point x="547" y="276"/>
      <point x="475" y="294" type="qcurve" smooth="yes"/>
      <point x="449" y="301" type="line" smooth="yes"/>
      <point x="405" y="314"/>
      <point x="371" y="352"/>
      <point x="371" y="387" type="qcurve" smooth="yes"/>
      <point x="371" y="425"/>
      <point x="437" y="473"/>
      <point x="512" y="473" type="qcurve" smooth="yes"/>
      <point x="550" y="473" type="line"/>
      <point x="550" y="537" type="line" smooth="yes"/>
      <point x="550" y="584"/>
      <point x="521" y="665"/>
      <point x="465" y="725"/>
      <point x="386" y="760"/>
      <point x="337" y="760" type="qcurve" smooth="yes"/>
      <point x="287" y="760"/>
      <point x="207" y="729"/>
      <point x="150" y="673"/>
      <point x="119" y="594"/>
      <point x="119" y="546" type="qcurve" smooth="yes"/>
      <point x="119" y="516" type="line"/>
      <point x="45" y="516" type="line"/>
      <point x="45" y="467" type="line"/>
      <point x="119" y="467" type="line"/>
      <point x="119" y="46" type="line"/>
      <point x="45" y="46" type="line"/>
      <point x="45" y="0" type="line"/>
      <point x="201" y="0" type="line"/>
      <point x="201" y="557" type="line" smooth="yes"/>
      <point x="201" y="633"/>
      <point x="266" y="711"/>
      <point x="337" y="711" type="qcurve" smooth="yes"/>
      <point x="401" y="711"/>
      <point x="470" y="630"/>
      <point x="470" y="549" type="qcurve" smooth="yes"/>
      <point x="470" y="517" type="line"/>
      <point x="389" y="513"/>
      <point x="295" y="438"/>
      <point x="295" y="373" type="qcurve" smooth="yes"/>
      <point x="295" y="312"/>
      <point x="358" y="247"/>
      <point x="427" y="227" type="qcurve" smooth="yes"/>
      <point x="454" y="220" type="line" smooth="yes"/>
      <point x="501" y="208"/>
      <point x="542" y="166"/>
      <point x="542" y="125" type="qcurve" smooth="yes"/>
      <point x="542" y="80"/>
      <point x="481" y="33"/>
      <point x="424" y="33" type="qcurve" smooth="yes"/>
      <point x="398" y="33"/>
      <point x="360" y="39"/>
      <point x="343" y="46" type="qcurve"/>
      <point x="343" y="50" type="line"/>
      <point x="354" y="56"/>
      <point x="367" y="78"/>
      <point x="367" y="94" type="qcurve" smooth="yes"/>
      <point x="367" y="114"/>
      <point x="343" y="141"/>
      <point x="322" y="141" type="qcurve" smooth="yes"/>
      <point x="300" y="141"/>
      <point x="274" y="110"/>
      <point x="274" y="86" type="qcurve" smooth="yes"/>
      <point x="274" y="44"/>
      <point x="358" y="-12"/>
      <point x="439" y="-12" type="qcurve" smooth="yes"/>
    </contour>
  </outline>
</glyph>
<glyph name="ccedilla" format="2">
  <advance width="516"/>
  <unicode hex="00E7"/>
  <note>
ccedilla
</note>
  <outline>
    <contour>
      <point x="313" y="-206"/>
      <point x="352" y="-196"/>
      <point x="382" y="-176"/>
      <point x="399" y="-146"/>
      <point x="399" y="-125" type="qcurve" smooth="yes"/>
      <point x="399" y="-93"/>
      <point x="357" y="-60"/>
      <point x="325" y="-60" type="qcurve" smooth="yes"/>
      <point x="309" y="-60"/>
      <point x="289" y="-65" type="qcurve"/>
      <point x="286" y="-62" type="line"/>
      <point x="296" y="-11" type="line"/>
      <point x="333" y="-9"/>
      <point x="391" y="15"/>
      <point x="436" y="52"/>
      <point x="467" y="99"/>
      <point x="476" y="123" type="qcurve"/>
      <point x="444" y="144" type="line"/>
      <point x="423" y="103"/>
      <point x="353" y="52"/>
      <point x="292" y="52" type="qcurve" smooth="yes"/>
      <point x="256" y="52"/>
      <point x="199" y="78"/>
      <point x="158" y="126"/>
      <point x="136" y="193"/>
      <point x="136" y="234" type="qcurve" smooth="yes"/>
      <point x="136" y="308" type="line" smooth="yes"/>
      <point x="136" y="345"/>
      <point x="160" y="408"/>
      <point x="202" y="455"/>
      <point x="261" y="481"/>
      <point x="296" y="481" type="qcurve" smooth="yes"/>
      <point x="328" y="481"/>
      <point x="369" y="473"/>
      <point x="382" y="465" type="qcurve"/>
      <point x="382" y="462" type="line"/>
      <point x="362" y="453"/>
      <point x="340" y="421"/>
      <point x="340" y="399" type="qcurve" smooth="yes"/>
      <point x="340" y="374"/>
      <point x="370" y="338"/>
      <point x="401" y="338" type="qcurve" smooth="yes"/>
      <point x="430" y="338"/>
      <point x="463" y="374"/>
      <point x="463" y="406" type="qcurve" smooth="yes"/>
      <point x="463" y="459"/>
      <point x="368" y="528"/>
      <point x="287" y="528" type="qcurve" smooth="yes"/>
      <point x="233" y="528"/>
      <point x="144" y="490"/>
      <point x="80" y="420"/>
      <point x="45" y="320"/>
      <point x="45" y="258" type="qcurve" smooth="yes"/>
      <point x="45" y="200"/>
      <point x="74" y="105"/>
      <point x="128" y="34"/>
      <point x="207" y="-7"/>
      <point x="258" y="-11" type="qcurve"/>
      <point x="245" y="-78" type="line"/>
      <point x="273" y="-81" type="line" smooth="yes"/>
      <point x="311" y="-85"/>
      <point x="334" y="-112"/>
      <point x="334" y="-128" type="qcurve" smooth="yes"/>
      <point x="334" y="-149"/>
      <point x="305" y="-170"/>
      <point x="281" y="-170" type="qcurve" smooth="yes"/>
      <point x="261" y="-170"/>
      <point x="233" y="-157"/>
      <point x="223" y="-146" type="qcurve"/>
      <point x="203" y="-167" type="line"/>
      <point x="214" y="-180"/>
      <point x="255" y="-206"/>
      <point x="291" y="-206" type="qcurve" smooth="yes"/>
    </contour>
  </outline>
</glyph>
<glyph name="eth" format="2">
  <advance width="566"/>
  <unicode hex="00F0"/>
  <note>
eth
</note>
  <outline>
    <contour>
      <point x="386" y="-12"/>
      <point x="512" y="126"/>
      <point x="512" y="268" type="qcurve" smooth="yes"/>
      <point x="512" y="343"/>
      <point x="483" y="464"/>
      <point x="435" y="562"/>
      <point x="374" y="637"/>
      <point x="342" y="667" type="qcurve"/>
      <point x="416" y="721" type="line"/>
      <point x="385" y="760" type="line"/>
      <point x="302" y="699" type="line"/>
      <point x="285" y="712"/>
      <point x="244" y="740"/>
      <point x="230" y="748" type="qcurve"/>
      <point x="146" y="748" type="line"/>
      <point x="175" y="733"/>
      <point x="234" y="686"/>
      <point x="257" y="666" type="qcurve"/>
      <point x="175" y="606" type="line"/>
      <point x="204" y="567" type="line"/>
      <point x="291" y="631" type="line"/>
      <point x="326" y="593"/>
      <point x="381" y="495"/>
      <point x="398" y="444" type="qcurve"/>
      <point x="394" y="442" type="line"/>
      <point x="346" y="505"/>
      <point x="265" y="505" type="qcurve" smooth="yes"/>
      <point x="215" y="505"/>
      <point x="133" y="469"/>
      <point x="75" y="401"/>
      <point x="44" y="306"/>
      <point x="44" y="247" type="qcurve" smooth="yes"/>
      <point x="44" y="188"/>
      <point x="76" y="92"/>
      <point x="136" y="24"/>
      <point x="223" y="-12"/>
      <point x="278" y="-12" type="qcurve" smooth="yes"/>
    </contour>
    <contour>
      <point x="212" y="37"/>
      <point x="133" y="120"/>
      <point x="133" y="205" type="qcurve" smooth="yes"/>
      <point x="133" y="288" type="line" smooth="yes"/>
      <point x="133" y="373"/>
      <point x="212" y="456"/>
      <point x="278" y="456" type="qcurve" smooth="yes"/>
      <point x="344" y="456"/>
      <point x="423" y="373"/>
      <point x="423" y="288" type="qcurve" smooth="yes"/>
      <point x="423" y="205" type="line" smooth="yes"/>
      <point x="423" y="120"/>
      <point x="344" y="37"/>
      <point x="278" y="37" type="qcurve" smooth="yes"/>
    </contour>
  </outline>
</glyph>
<glyph name="Aogonek" format="2">
  <advance width="685"/>
  <unicode hex="0104"/>
  <note>
Aogonek
</note>
  <outline>
    <contour>
      <point x="631" y="-206"/>
      <point x="673" y="-184"/>
      <point x="683" y="-168" type="qcurve"/>
      <point x="662" y="-148" type="line"/>
      <point x="654" y="-158"/>
      <point x="633" y="-170"/>
      <point x="619" y="-170" type="qcurve" smooth="yes"/>
      <point x="600" y="-170"/>
      <point x="578" y="-144"/>
      <point x="578" y="-124" type="qcurve" smooth="yes"/>
      <point x="578" y="-115"/>
      <point x="583" y="-92"/>
      <point x="602" y="-62"/>
      <point x="638" y="-24"/>
      <point x="670" y="0" type="qcurve"/>
      <point x="670" y="46" type="line"/>
      <point x="617" y="46" type="line"/>
      <point x="391" y="698" type="line"/>
      <point x="296" y="698" type="line"/>
      <point x="69" y="46" type="line"/>
      <point x="16" y="46" type="line"/>
      <point x="16" y="0" type="line"/>
      <point x="218" y="0" type="line"/>
      <point x="218" y="46" type="line"/>
      <point x="128" y="46" type="line"/>
      <point x="190" y="227" type="line"/>
      <point x="462" y="227" type="line"/>
      <point x="524" y="46" type="line"/>
      <point x="434" y="46" type="line"/>
      <point x="434" y="0" type="line"/>
      <point x="625" y="0" type="line"/>
      <point x="626" y="-4" type="line"/>
      <point x="578" y="-33"/>
      <point x="509" y="-95"/>
      <point x="509" y="-131" type="qcurve" smooth="yes"/>
      <point x="509" y="-171"/>
      <point x="561" y="-206"/>
      <point x="597" y="-206" type="qcurve" smooth="yes"/>
    </contour>
    <contour>
      <point x="324" y="625" type="line"/>
      <point x="330" y="625" type="line"/>
      <point x="447" y="275" type="line"/>
      <point x="204" y="275" type="line"/>
    </contour>
  </outline>
</glyph>
<glyph name="Dcroat" format="2">
  <advance width="706"/>
  <unicode hex="0110"/>
  <note>
Dcroat
</note>
  <outline>
    <contour>
      <point x="55" y="0" type="line"/>
      <point x="347" y="0" type="line" smooth="yes"/>
      <point x="416" y="0"/>
      <point x="530" y="43"/>
      <point x="611" y="130"/>
      <point x="656" y="261"/>
      <point x="656" y="349" type="qcurve" smooth="yes"/>
      <point x="656" y="437"/>
      <point x="611" y="568"/>
      <point x="530" y="655"/>
      <point x="416" y="698"/>
      <point x="347" y="698" type="qcurve" smooth="yes"/>
      <point x="55" y="698" type="line"/>
      <point x="55" y="652" type="line"/>
      <point x="130" y="652" type="line"/>
      <point x="130" y="373" type="line"/>
      <point x="40" y="373" type="line"/>
      <point x="40" y="325" type="line"/>
      <point x="130" y="325" type="line"/>
      <point x="130" y="46" type="line"/>
      <point x="55" y="46" type="line"/>
    </contour>
    <contour>
      <point x="216" y="325" type="line"/>
      <point x="354" y="325" type="line"/>
      <point x="354" y="373" type="line"/>
      <point x="216" y="373" type="line"/>
      <point x="216" y="649" type="line"/>
      <point x="338" y="649" type="line" smooth="yes"/>
      <point x="389" y="649"/>
      <point x="472" y="614"/>
      <point x="529" y="551"/>
      <point x="560" y="463"/>
      <point x="560" y="409" type="qcurve" smooth="yes"/>
      <point x="560" y="289" type="line" smooth="yes"/>
      <point x="560" y="235"/>
      <point x="529" y="147"/>
      <point x="472" y="84"/>
      <point x="389" y="49"/>
      <point x="338" y="49" type="qcurve" smooth="yes"/>
      <point x="216" y="49" type="line"/>
    </contour>
  </outline>
</glyph>
<glyph name="dcroat" format="2">
  <advance width="608"/>
  <unicode hex="0111"/>
  <note>
dcroat
</note>
  <outline>
    <contour>
      <point x="322" y="-12"/>
      <point x="396" y="41"/>
      <point x="413" y="78" type="qcurve"/>
      <point x="417" y="78" type="line"/>
      <point x="417" y="-12" type="line"/>
      <point x="573" y="18" type="line"/>
      <point x="573" y="52" type="line"/>
      <point x="499" y="65" type="line"/>
      <point x="499" y="619" type="line"/>
      <point x="588" y="619" type="line"/>
      <point x="588" y="665" type="line"/>
      <point x="499" y="665" type="line"/>
      <point x="499" y="760" type="line"/>
      <point x="417" y="744" type="line"/>
      <point x="417" y="665" type="line"/>
      <point x="223" y="665" type="line"/>
      <point x="223" y="619" type="line"/>
      <point x="417" y="619" type="line"/>
      <point x="417" y="439" type="line"/>
      <point x="413" y="439" type="line"/>
      <point x="396" y="476"/>
      <point x="321" y="528"/>
      <point x="261" y="528" type="qcurve" smooth="yes"/>
      <point x="165" y="528"/>
      <point x="50" y="389"/>
      <point x="50" y="258" type="qcurve" smooth="yes"/>
      <point x="50" y="127"/>
      <point x="165" y="-12"/>
      <point x="261" y="-12" type="qcurve" smooth="yes"/>
    </contour>
    <contour>
      <point x="216" y="45"/>
      <point x="139" y="138"/>
      <point x="139" y="216" type="qcurve" smooth="yes"/>
      <point x="139" y="300" type="line" smooth="yes"/>
      <point x="139" y="378"/>
      <point x="216" y="471"/>
      <point x="285" y="471" type="qcurve" smooth="yes"/>
      <point x="309" y="471"/>
      <point x="357" y="457"/>
      <point x="394" y="431"/>
      <point x="417" y="392"/>
      <point x="417" y="368" type="qcurve" smooth="yes"/>
      <point x="417" y="148" type="line" smooth="yes"/>
      <point x="417" y="124"/>
      <point x="394" y="85"/>
      <point x="357" y="59"/>
      <point x="309" y="45"/>
      <point x="285" y="45" type="qcurve" smooth="yes"/>
    </contour>
  </outline>
</glyph>
<glyph name="Eogonek" format="2">
  <advance width="641"/>
  <unicode hex="0118"/>
  <note>
Eogonek
</note>
  <outline>
    <contour>
      <point x="560" y="-206"/>
      <point x="603" y="-184"/>
      <point x="613" y="-168" type="qcurve"/>
      <point x="592" y="-148" type="line"/>
      <point x="584" y="-158"/>
      <point x="562" y="-170"/>
      <point x="548" y="-170" type="qcurve" smooth="yes"/>
      <point x="527" y="-170"/>
      <point x="502" y="-144"/>
      <point x="502" y="-124" type="qcurve" smooth="yes"/>
      <point x="502" y="-115"/>
      <point x="506" y="-92"/>
      <point x="521" y="-63"/>
      <point x="553" y="-25"/>
      <point x="581" y="0" type="qcurve"/>
      <point x="581" y="177" type="line"/>
      <point x="509" y="177" type="line"/>
      <point x="509" y="49" type="line"/>
      <point x="216" y="49" type="line"/>
      <point x="216" y="335" type="line"/>
      <point x="414" y="335" type="line"/>
      <point x="414" y="255" type="line"/>
      <point x="474" y="255" type="line"/>
      <point x="474" y="464" type="line"/>
      <point x="414" y="464" type="line"/>
      <point x="414" y="384" type="line"/>
      <point x="216" y="384" type="line"/>
      <point x="216" y="649" type="line"/>
      <point x="499" y="649" type="line"/>
      <point x="499" y="530" type="line"/>
      <point x="571" y="530" type="line"/>
      <point x="571" y="698" type="line"/>
      <point x="55" y="698" type="line"/>
      <point x="55" y="652" type="line"/>
      <point x="130" y="652" type="line"/>
      <point x="130" y="46" type="line"/>
      <point x="55" y="46" type="line"/>
      <point x="55" y="0" type="line"/>
      <point x="539" y="0" type="line"/>
      <point x="540" y="-4" type="line"/>
      <point x="491" y="-39"/>
      <point x="433" y="-94"/>
      <point x="433" y="-132" type="qcurve" smooth="yes"/>
      <point x="433" y="-170"/>
      <point x="488" y="-206"/>
      <point x="526" y="-206" type="qcurve" smooth="yes"/>
    </contour>
  </outline>
</glyph>
<glyph name="eogonek" format="2">
  <advance width="536"/>
  <unicode hex="0119"/>
  <note>
eogonek
</note>
  <outline>
    <contour>
      <point x="375" y="-206"/>
      <point x="418" y="-183"/>
      <point x="427" y="-168" type="qcurve"/>
      <point x="406" y="-148" type="line"/>
      <point x="398" y="-158"/>
      <point x="377" y="-170"/>
      <point x="363" y="-170" type="qcurve" smooth="yes"/>
      <point x="342" y="-170"/>
      <point x="316" y="-146"/>
      <point x="316" y="-123" type="qcurve" smooth="yes"/>
      <point x="316" y="-89"/>
      <point x="369" y="-12"/>
      <point x="425" y="41" type="qcurve" smooth="yes"/>
      <point x="464" y="78"/>
      <point x="481" y="123" type="qcurve"/>
      <point x="448" y="144" type="line"/>
      <point x="427" y="103"/>
      <point x="354" y="52"/>
      <point x="292" y="52" type="qcurve" smooth="yes"/>
      <point x="221" y="52"/>
      <point x="136" y="150"/>
      <point x="136" y="235" type="qcurve" smooth="yes"/>
      <point x="136" y="261" type="line"/>
      <point x="491" y="261" type="line"/>
      <point x="491" y="284" type="line" smooth="yes"/>
      <point x="491" y="337"/>
      <point x="461" y="427"/>
      <point x="406" y="492"/>
      <point x="326" y="528"/>
      <point x="275" y="528" type="qcurve" smooth="yes"/>
      <point x="225" y="528"/>
      <point x="141" y="489"/>
      <point x="80" y="417"/>
      <point x="45" y="318"/>
      <point x="45" y="258" type="qcurve" smooth="yes"/>
      <point x="45" y="197"/>
      <point x="77" y="97"/>
      <point x="137" y="27"/>
      <point x="224" y="-12"/>
      <point x="279" y="-12" type="qcurve" smooth="yes"/>
      <point x="305" y="-12"/>
      <point x="339" y="-5"/>
      <point x="352" y="2" type="qcurve"/>
      <point x="353" y="-2" type="line"/>
      <point x="334" y="-14"/>
      <point x="296" y="-43"/>
      <point x="266" y="-75"/>
      <point x="247" y="-112"/>
      <point x="247" y="-132" type="qcurve" smooth="yes"/>
      <point x="247" y="-172"/>
      <point x="304" y="-206"/>
      <point x="342" y="-206" type="qcurve" smooth="yes"/>
    </contour>
    <contour>
      <point x="136" y="319" type="line" smooth="yes"/>
      <point x="136" y="354"/>
      <point x="154" y="413"/>
      <point x="189" y="457"/>
      <point x="241" y="481"/>
      <point x="275" y="481" type="qcurve" smooth="yes"/>
      <point x="309" y="481"/>
      <point x="358" y="456"/>
      <point x="390" y="411"/>
      <point x="405" y="351"/>
      <point x="405" y="317" type="qcurve" smooth="yes"/>
      <point x="405" y="307" type="line"/>
      <point x="136" y="307" type="line"/>
    </contour>
  </outline>
</glyph>
<glyph name="Hbar" format="2">
  <advance width="787"/>
  <unicode hex="0126"/>
  <note>
Hbar
</note>
  <outline>
    <contour>
      <point x="55" y="0" type="line"/>
      <point x="291" y="0" type="line"/>
      <point x="291" y="46" type="line"/>
      <point x="216" y="46" type="line"/>
      <point x="216" y="331" type="line"/>
      <point x="571" y="331" type="line"/>
      <point x="571" y="46" type="line"/>
      <point x="496" y="46" type="line"/>
      <point x="496" y="0" type="line"/>
      <point x="732" y="0" type="line"/>
      <point x="732" y="46" type="line"/>
      <point x="657" y="46" type="line"/>
      <point x="657" y="500" type="line"/>
      <point x="747" y="500" type="line"/>
      <point x="747" y="548" type="line"/>
      <point x="657" y="548" type="line"/>
      <point x="657" y="652" type="line"/>
      <point x="732" y="652" type="line"/>
      <point x="732" y="698" type="line"/>
      <point x="496" y="698" type="line"/>
      <point x="496" y="652" type="line"/>
      <point x="571" y="652" type="line"/>
      <point x="571" y="548" type="line"/>
      <point x="216" y="548" type="line"/>
      <point x="216" y="652" type="line"/>
      <point x="291" y="652" type="line"/>
      <point x="291" y="698" type="line"/>
      <point x="55" y="698" type="line"/>
      <point x="55" y="652" type="line"/>
      <point x="130" y="652" type="line"/>
      <point x="130" y="548" type="line"/>
      <point x="40" y="548" type="line"/>
      <point x="40" y="500" type="line"/>
      <point x="130" y="500" type="line"/>
      <point x="130" y="46" type="line"/>
      <point x="55" y="46" type="line"/>
    </contour>
    <contour>
      <point x="216" y="500" type="line"/>
      <point x="571" y="500" type="line"/>
      <point x="571" y="380" type="line"/>
      <point x="216" y="380" type="line"/>
    </contour>
  </outline>
</glyph>
<glyph name="iogonek" format="2">
  <advance width="315"/>
  <unicode hex="012F"/>
  <note>
iogonek
</note>
  <outline>
    <contour>
      <point x="259" y="-206"/>
      <point x="302" y="-184"/>
      <point x="312" y="-168" type="qcurve"/>
      <point x="291" y="-148" type="line"/>
      <point x="283" y="-158"/>
      <point x="261" y="-170"/>
      <point x="247" y="-170" type="qcurve" smooth="yes"/>
      <point x="226" y="-170"/>
      <point x="201" y="-144"/>
      <point x="201" y="-124" type="qcurve" smooth="yes"/>
      <point x="201" y="-115"/>
      <point x="205" y="-92"/>
      <point x="220" y="-63"/>
      <point x="252" y="-25"/>
      <point x="280" y="0" type="qcurve"/>
      <point x="280" y="46" type="line"/>
      <point x="206" y="46" type="line"/>
      <point x="206" y="528" type="line"/>
      <point x="50" y="498" type="line"/>
      <point x="50" y="464" type="line"/>
      <point x="124" y="451" type="line"/>
      <point x="124" y="46" type="line"/>
      <point x="50" y="46" type="line"/>
      <point x="50" y="0" type="line"/>
      <point x="234" y="0" type="line"/>
      <point x="235" y="-4" type="line"/>
      <point x="188" y="-37"/>
      <point x="132" y="-95"/>
      <point x="132" y="-132" type="qcurve" smooth="yes"/>
      <point x="132" y="-170"/>
      <point x="187" y="-206"/>
      <point x="225" y="-206" type="qcurve" smooth="yes"/>
    </contour>
    <contour>
      <point x="191" y="635"/>
      <point x="219" y="666"/>
      <point x="219" y="688" type="qcurve" smooth="yes"/>
      <point x="219" y="693" type="line" smooth="yes"/>
      <point x="219" y="715"/>
      <point x="191" y="746"/>
      <point x="165" y="746" type="qcurve" smooth="yes"/>
      <point x="139" y="746"/>
      <point x="112" y="715"/>
      <point x="112" y="693" type="qcurve" smooth="yes"/>
      <point x="112" y="688" type="line" smooth="yes"/>
      <point x="112" y="666"/>
      <point x="139" y="635"/>
      <point x="165" y="635" type="qcurve" smooth="yes"/>
    </contour>
  </outline>
</glyph>
<glyph name="lslash" format="2">
  <advance width="308"/>
  <unicode hex="0142"/>
  <note>
lslash
</note>
  <outline>
    <contour>
      <point x="38" y="0" type="line"/>
      <point x="268" y="0" type="line"/>
      <point x="268" y="46" type="line"/>
      <point x="194" y="46" type="line"/>
      <point x="194" y="368" type="line"/>
      <point x="283" y="396" type="line"/>
      <point x="283" y="444" type="line"/>
      <point x="194" y="416" type="line"/>
      <point x="194" y="760" type="line"/>
      <point x="38" y="731" type="line"/>
      <point x="38" y="696" type="line"/>
      <point x="112" y="683" type="line"/>
      <point x="112" y="390" type="line"/>
      <point x="25" y="362" type="line"/>
      <point x="25" y="314" type="line"/>
      <point x="112" y="342" type="line"/>
      <point x="112" y="46" type="line"/>
      <point x="38" y="46" type="line"/>
    </contour>
  </outline>
</glyph>
<glyph name="Eng" format="2">
  <advance width="778"/>
  <unicode hex="014A"/>
  <note>
Eng
</note>
  <outline>
    <contour>
      <point x="592" y="-212"/>
      <point x="658" y="-150"/>
      <point x="658" y="-90" type="qcurve" smooth="yes"/>
      <point x="658" y="652" type="line"/>
      <point x="733" y="652" type="line"/>
      <point x="733" y="698" type="line"/>
      <point x="528" y="698" type="line"/>
      <point x="528" y="652" type="line"/>
      <point x="603" y="652" type="line"/>
      <point x="603" y="138" type="line"/>
      <point x="599" y="138" type="line"/>
      <point x="224" y="698" type="line"/>
      <point x="55" y="698" type="line"/>
      <point x="55" y="652" type="line"/>
      <point x="130" y="652" type="line"/>
      <point x="130" y="46" type="line"/>
      <point x="55" y="46" type="line"/>
      <point x="55" y="0" type="line"/>
      <point x="260" y="0" type="line"/>
      <point x="260" y="46" type="line"/>
      <point x="185" y="46" type="line"/>
      <point x="185" y="601" type="line"/>
      <point x="189" y="601" type="line"/>
      <point x="591" y="0" type="line"/>
      <point x="603" y="0" type="line"/>
      <point x="603" y="-90" type="line" smooth="yes"/>
      <point x="603" y="-176"/>
      <point x="540" y="-176" type="qcurve" smooth="yes"/>
      <point x="523" y="-176"/>
      <point x="514" y="-172" type="qcurve"/>
      <point x="514" y="-169" type="line"/>
      <point x="524" y="-166"/>
      <point x="537" y="-143"/>
      <point x="537" y="-129" type="qcurve" smooth="yes"/>
      <point x="537" y="-108"/>
      <point x="513" y="-82"/>
      <point x="491" y="-82" type="qcurve" smooth="yes"/>
      <point x="468" y="-82"/>
      <point x="442" y="-112"/>
      <point x="442" y="-134" type="qcurve" smooth="yes"/>
      <point x="442" y="-168"/>
      <point x="491" y="-212"/>
      <point x="540" y="-212" type="qcurve" smooth="yes"/>
    </contour>
  </outline>
</glyph>
<glyph name="oe" format="2">
  <advance width="915"/>
  <unicode hex="0153"/>
  <note>
oe
</note>
  <outline>
    <contour>
      <point x="344" y="-12"/>
      <point x="438" y="43"/>
      <point x="466" y="102" type="qcurve"/>
      <point x="472" y="102" type="line"/>
      <point x="500" y="43"/>
      <point x="594" y="-12"/>
      <point x="658" y="-12" type="qcurve" smooth="yes"/>
      <point x="699" y="-12"/>
      <point x="765" y="11"/>
      <point x="815" y="48"/>
      <point x="850" y="97"/>
      <point x="860" y="123" type="qcurve"/>
      <point x="827" y="144" type="line"/>
      <point x="806" y="103"/>
      <point x="733" y="52"/>
      <point x="671" y="52" type="qcurve" smooth="yes"/>
      <point x="600" y="52"/>
      <point x="515" y="149"/>
      <point x="515" y="235" type="qcurve" smooth="yes"/>
      <point x="515" y="261" type="line"/>
      <point x="870" y="261" type="line"/>
      <point x="870" y="285" type="line" smooth="yes"/>
      <point x="870" y="338"/>
      <point x="840" y="427"/>
      <point x="785" y="492"/>
      <point x="705" y="528"/>
      <point x="654" y="528" type="qcurve" smooth="yes"/>
      <point x="595" y="528"/>
      <point x="495" y="470"/>
      <point x="473" y="411" type="qcurve"/>
      <point x="467" y="411" type="line"/>
      <point x="447" y="470"/>
      <point x="344" y="528"/>
      <point x="281" y="528" type="qcurve" smooth="yes"/>
      <point x="228" y="528"/>
      <point x="141" y="490"/>
      <point x="79" y="419"/>
      <point x="45" y="319"/>
      <point x="45" y="258" type="qcurve" smooth="yes"/>
      <point x="45" y="196"/>
      <point x="79" y="97"/>
      <point x="141" y="26"/>
      <point x="228" y="-12"/>
      <point x="281" y="-12" type="qcurve" smooth="yes"/>
    </contour>
    <contour>
      <point x="244" y="37"/>
      <point x="190" y="62"/>
      <point x="155" y="107"/>
      <point x="138" y="168"/>
      <point x="138" y="203" type="qcurve" smooth="yes"/>
      <point x="138" y="313" type="line" smooth="yes"/>
      <point x="138" y="349"/>
      <point x="155" y="409"/>
      <point x="190" y="454"/>
      <point x="244" y="479"/>
      <point x="282" y="479" type="qcurve" smooth="yes"/>
      <point x="319" y="479"/>
      <point x="374" y="454"/>
      <point x="409" y="409"/>
      <point x="426" y="349"/>
      <point x="426" y="313" type="qcurve" smooth="yes"/>
      <point x="426" y="203" type="line" smooth="yes"/>
      <point x="426" y="168"/>
      <point x="409" y="107"/>
      <point x="374" y="62"/>
      <point x="319" y="37"/>
      <point x="282" y="37" type="qcurve" smooth="yes"/>
    </contour>
    <contour>
      <point x="515" y="319" type="line" smooth="yes"/>
      <point x="515" y="354"/>
      <point x="533" y="413"/>
      <point x="568" y="457"/>
      <point x="620" y="481"/>
      <point x="654" y="481" type="qcurve" smooth="yes"/>
      <point x="688" y="481"/>
      <point x="737" y="456"/>
      <point x="769" y="412"/>
      <point x="784" y="352"/>
      <point x="784" y="318" type="qcurve" smooth="yes"/>
      <point x="784" y="307" type="line"/>
      <point x="515" y="307" type="line"/>
    </contour>
  </outline>
</glyph>
<glyph name="Scedilla" format="2">
  <advance width="588"/>
  <unicode hex="015E"/>
  <note>
Scedilla
</note>
  <outline>
    <contour>
      <point x="328" y="-206"/>
      <point x="367" y="-196"/>
      <point x="397" y="-176"/>
      <point x="414" y="-146"/>
      <point x="414" y="-125" type="qcurve" smooth="yes"/>
      <point x="414" y="-93"/>
      <point x="372" y="-60"/>
      <point x="340" y="-60" type="qcurve" smooth="yes"/>
      <point x="324" y="-60"/>
      <point x="304" y="-65" type="qcurve"/>
      <point x="301" y="-62" type="line"/>
      <point x="311" y="-12" type="line"/>
      <point x="362" y="-9"/>
      <point x="441" y="24"/>
      <point x="495" y="79"/>
      <point x="523" y="153"/>
      <point x="523" y="197" type="qcurve" smooth="yes"/>
      <point x="523" y="275"/>
      <point x="425" y="371"/>
      <point x="334" y="395" type="qcurve" smooth="yes"/>
      <point x="283" y="408" type="line" smooth="yes"/>
      <point x="215" y="426"/>
      <point x="152" y="487"/>
      <point x="152" y="541" type="qcurve" smooth="yes"/>
      <point x="152" y="593"/>
      <point x="222" y="657"/>
      <point x="292" y="657" type="qcurve" smooth="yes"/>
      <point x="334" y="657"/>
      <point x="392" y="642"/>
      <point x="428" y="614"/>
      <point x="443" y="574"/>
      <point x="443" y="549" type="qcurve" smooth="yes"/>
      <point x="443" y="503" type="line"/>
      <point x="515" y="503" type="line"/>
      <point x="515" y="698" type="line"/>
      <point x="443" y="698" type="line"/>
      <point x="443" y="644" type="line"/>
      <point x="437" y="644" type="line"/>
      <point x="422" y="675"/>
      <point x="349" y="710"/>
      <point x="292" y="710" type="qcurve" smooth="yes"/>
      <point x="243" y="710"/>
      <point x="162" y="684"/>
      <point x="104" y="636"/>
      <point x="72" y="567"/>
      <point x="72" y="525" type="qcurve" smooth="yes"/>
      <point x="72" y="441"/>
      <point x="174" y="345"/>
      <point x="267" y="321" type="qcurve" smooth="yes"/>
      <point x="322" y="307" type="line" smooth="yes"/>
      <point x="385" y="290"/>
      <point x="444" y="230"/>
      <point x="444" y="177" type="qcurve" smooth="yes"/>
      <point x="444" y="115"/>
      <point x="367" y="41"/>
      <point x="280" y="41" type="qcurve" smooth="yes"/>
      <point x="239" y="41"/>
      <point x="182" y="59"/>
      <point x="147" y="91"/>
      <point x="132" y="134"/>
      <point x="132" y="159" type="qcurve" smooth="yes"/>
      <point x="132" y="205" type="line"/>
      <point x="60" y="205" type="line"/>
      <point x="60" y="0" type="line"/>
      <point x="132" y="0" type="line"/>
      <point x="132" y="60" type="line"/>
      <point x="137" y="60" type="line"/>
      <point x="151" y="30"/>
      <point x="220" y="-8"/>
      <point x="273" y="-11" type="qcurve"/>
      <point x="260" y="-78" type="line"/>
      <point x="288" y="-81" type="line" smooth="yes"/>
      <point x="326" y="-85"/>
      <point x="349" y="-112"/>
      <point x="349" y="-128" type="qcurve" smooth="yes"/>
      <point x="349" y="-149"/>
      <point x="320" y="-170"/>
      <point x="296" y="-170" type="qcurve" smooth="yes"/>
      <point x="276" y="-170"/>
      <point x="248" y="-157"/>
      <point x="238" y="-146" type="qcurve"/>
      <point x="218" y="-167" type="line"/>
      <point x="229" y="-180"/>
      <point x="270" y="-206"/>
      <point x="306" y="-206" type="qcurve" smooth="yes"/>
    </contour>
  </outline>
</glyph>
<glyph name="scedilla" format="2">
  <advance width="488"/>
  <unicode hex="015F"/>
  <note>
scedilla
</note>
  <outline>
    <contour>
      <point x="286" y="-206"/>
      <point x="325" y="-196"/>
      <point x="355" y="-176"/>
      <point x="372" y="-146"/>
      <point x="372" y="-125" type="qcurve" smooth="yes"/>
      <point x="372" y="-93"/>
      <point x="330" y="-60"/>
      <point x="298" y="-60" type="qcurve" smooth="yes"/>
      <point x="282" y="-60"/>
      <point x="262" y="-65" type="qcurve"/>
      <point x="259" y="-62" type="line"/>
      <point x="269" y="-11" type="line"/>
      <point x="347" y="-6"/>
      <point x="434" y="78"/>
      <point x="434" y="139" type="qcurve" smooth="yes"/>
      <point x="434" y="205"/>
      <point x="357" y="279"/>
      <point x="280" y="295" type="qcurve" smooth="yes"/>
      <point x="224" y="307" type="line" smooth="yes"/>
      <point x="184" y="316"/>
      <point x="138" y="363"/>
      <point x="138" y="398" type="qcurve" smooth="yes"/>
      <point x="138" y="440"/>
      <point x="195" y="479"/>
      <point x="246" y="479" type="qcurve" smooth="yes"/>
      <point x="358" y="479"/>
      <point x="358" y="399" type="qcurve" smooth="yes"/>
      <point x="358" y="361" type="line"/>
      <point x="418" y="361" type="line"/>
      <point x="418" y="516" type="line"/>
      <point x="358" y="516" type="line"/>
      <point x="358" y="474" type="line"/>
      <point x="354" y="474" type="line"/>
      <point x="344" y="498"/>
      <point x="283" y="528"/>
      <point x="235" y="528" type="qcurve" smooth="yes"/>
      <point x="156" y="528"/>
      <point x="62" y="451"/>
      <point x="62" y="383" type="qcurve" smooth="yes"/>
      <point x="62" y="317"/>
      <point x="137" y="241"/>
      <point x="211" y="225" type="qcurve" smooth="yes"/>
      <point x="271" y="212" type="line" smooth="yes"/>
      <point x="356" y="193"/>
      <point x="356" y="123" type="qcurve" smooth="yes"/>
      <point x="356" y="78"/>
      <point x="293" y="37"/>
      <point x="236" y="37" type="qcurve" smooth="yes"/>
      <point x="174" y="37"/>
      <point x="120" y="91"/>
      <point x="120" y="134" type="qcurve" smooth="yes"/>
      <point x="120" y="155" type="line"/>
      <point x="60" y="155" type="line"/>
      <point x="60" y="0" type="line"/>
      <point x="120" y="0" type="line"/>
      <point x="120" y="51" type="line"/>
      <point x="124" y="51" type="line"/>
      <point x="134" y="30"/>
      <point x="191" y="-6"/>
      <point x="231" y="-11" type="qcurve"/>
      <point x="218" y="-78" type="line"/>
      <point x="246" y="-81" type="line" smooth="yes"/>
      <point x="284" y="-85"/>
      <point x="307" y="-112"/>
      <point x="307" y="-128" type="qcurve" smooth="yes"/>
      <point x="307" y="-149"/>
      <point x="278" y="-170"/>
      <point x="254" y="-170" type="qcurve" smooth="yes"/>
      <point x="234" y="-170"/>
      <point x="206" y="-157"/>
      <point x="196" y="-146" type="qcurve"/>
      <point x="176" y="-167" type="line"/>
      <point x="187" y="-180"/>
      <point x="228" y="-206"/>
      <point x="264" y="-206" type="qcurve" smooth="yes"/>
    </contour>
  </outline>
</glyph>
<glyph name="Tbar" format="2">
  <advance width="652"/>
  <unicode hex="0166"/>
  <note>
Tbar
</note>
  <outline>
    <contour>
      <point x="188" y="0" type="line"/>
      <point x="464" y="0" type="line"/>
      <point x="464" y="46" type="line"/>
      <point x="369" y="46" type="line"/>
      <point x="369" y="334" type="line"/>
      <point x="524" y="334" type="line"/>
      <point x="524" y="382" type="line"/>
      <point x="369" y="382" type="line"/>
      <point x="369" y="649" type="line"/>
      <point x="545" y="649" type="line"/>
      <point x="545" y="530" type="line"/>
      <point x="617" y="530" type="line"/>
      <point x="617" y="698" type="line"/>
      <point x="35" y="698" type="line"/>
      <point x="35" y="530" type="line"/>
      <point x="107" y="530" type="line"/>
      <point x="107" y="649" type="line"/>
      <point x="283" y="649" type="line"/>
      <point x="283" y="382" type="line"/>
      <point x="128" y="382" type="line"/>
      <point x="128" y="334" type="line"/>
      <point x="283" y="334" type="line"/>
      <point x="283" y="46" type="line"/>
      <point x="188" y="46" type="line"/>
    </contour>
  </outline>
</glyph>
<glyph name="Uogonek" format="2">
  <advance width="735"/>
  <unicode hex="0172"/>
  <note>
Uogonek
</note>
  <outline>
    <contour>
      <point x="498" y="-206"/>
      <point x="541" y="-184"/>
      <point x="551" y="-168" type="qcurve"/>
      <point x="530" y="-148" type="line"/>
      <point x="522" y="-158"/>
      <point x="499" y="-170"/>
      <point x="485" y="-170" type="qcurve" smooth="yes"/>
      <point x="465" y="-170"/>
      <point x="440" y="-144"/>
      <point x="440" y="-123" type="qcurve" smooth="yes"/>
      <point x="440" y="-112"/>
      <point x="447" y="-80"/>
      <point x="468" y="-41"/>
      <point x="507" y="6"/>
      <point x="538" y="33" type="qcurve" smooth="yes"/>
      <point x="580" y="70"/>
      <point x="615" y="189"/>
      <point x="615" y="282" type="qcurve" smooth="yes"/>
      <point x="615" y="652" type="line"/>
      <point x="690" y="652" type="line"/>
      <point x="690" y="698" type="line"/>
      <point x="485" y="698" type="line"/>
      <point x="485" y="652" type="line"/>
      <point x="560" y="652" type="line"/>
      <point x="560" y="253" type="line" smooth="yes"/>
      <point x="560" y="148"/>
      <point x="478" y="45"/>
      <point x="380" y="45" type="qcurve" smooth="yes"/>
      <point x="331" y="45"/>
      <point x="265" y="71"/>
      <point x="224" y="122"/>
      <point x="206" y="200"/>
      <point x="206" y="253" type="qcurve" smooth="yes"/>
      <point x="206" y="652" type="line"/>
      <point x="281" y="652" type="line"/>
      <point x="281" y="698" type="line"/>
      <point x="45" y="698" type="line"/>
      <point x="45" y="652" type="line"/>
      <point x="120" y="652" type="line"/>
      <point x="120" y="269" type="line" smooth="yes"/>
      <point x="120" y="192"/>
      <point x="148" y="86"/>
      <point x="210" y="18"/>
      <point x="307" y="-12"/>
      <point x="375" y="-12" type="qcurve" smooth="yes"/>
      <point x="400" y="-12"/>
      <point x="446" y="-7"/>
      <point x="465" y="-2" type="qcurve"/>
      <point x="467" y="-6" type="line"/>
      <point x="427" y="-36"/>
      <point x="371" y="-97"/>
      <point x="371" y="-130" type="qcurve" smooth="yes"/>
      <point x="371" y="-151"/>
      <point x="386" y="-180"/>
      <point x="412" y="-198"/>
      <point x="447" y="-206"/>
      <point x="466" y="-206" type="qcurve" smooth="yes"/>
    </contour>
  </outline>
</glyph>
<glyph name="uni018F" format="2">
  <advance width="698"/>
  <unicode hex="018F"/>
  <note>
uni018F
</note>
  <outline>
    <contour>
      <point x="414" y="-12"/>
      <point x="526" y="38"/>
      <point x="605" y="132"/>
      <point x="648" y="265"/>
      <point x="648" y="349" type="qcurve" smooth="yes"/>
      <point x="648" y="433"/>
      <point x="606" y="567"/>
      <point x="527" y="660"/>
      <point x="411" y="710"/>
      <point x="337" y="710" type="qcurve" smooth="yes"/>
      <point x="279" y="710"/>
      <point x="188" y="677"/>
      <point x="121" y="625"/>
      <point x="78" y="561"/>
      <point x="69" y="531" type="qcurve"/>
      <point x="107" y="512" type="line"/>
      <point x="130" y="572"/>
      <point x="239" y="646"/>
      <point x="318" y="646" type="qcurve" smooth="yes"/>
      <point x="378" y="646"/>
      <point x="466" y="610"/>
      <point x="524" y="546"/>
      <point x="552" y="458"/>
      <point x="552" y="406" type="qcurve" smooth="yes"/>
      <point x="552" y="331" type="line"/>
      <point x="50" y="331" type="line"/>
      <point x="50" y="284" type="line" smooth="yes"/>
      <point x="50" y="227"/>
      <point x="90" y="120"/>
      <point x="165" y="38"/>
      <point x="275" y="-12"/>
      <point x="346" y="-12" type="qcurve" smooth="yes"/>
    </contour>
    <contour>
      <point x="299" y="41"/>
      <point x="224" y="76"/>
      <point x="173" y="139"/>
      <point x="146" y="226"/>
      <point x="146" y="279" type="qcurve" smooth="yes"/>
      <point x="146" y="282" type="line"/>
      <point x="552" y="282" type="line"/>
      <point x="552" y="279" type="line" smooth="yes"/>
      <point x="552" y="226"/>
      <point x="524" y="139"/>
      <point x="471" y="76"/>
      <point x="395" y="41"/>
      <point x="346" y="41" type="qcurve" smooth="yes"/>
    </contour>
  </outline>
</glyph>
<glyph name="Eopen" format="2">
  <advance width="604"/>
  <unicode hex="0190"/>
  <outline>
    <contour>
      <point x="265" y="-12"/>
      <point x="322" y="-12" type="qcurve" smooth="yes"/>
      <point x="375" y="-12"/>
      <point x="458" y="11"/>
      <point x="515" y="49"/>
      <point x="545" y="96"/>
      <point x="545" y="120" type="qcurve" smooth="yes"/>
      <point x="545" y="150"/>
      <point x="512" y="187"/>
      <point x="485" y="187" type="qcurve" smooth="yes"/>
      <point x="458" y="187"/>
      <point x="426" y="152"/>
      <point x="426" y="125" type="qcurve" smooth="yes"/>
      <point x="426" y="103"/>
      <point x="449" y="71"/>
      <point x="461" y="66" type="qcurve"/>
      <point x="461" y="64" type="line"/>
      <point x="444" y="53"/>
      <point x="379" y="37"/>
      <point x="334" y="37" type="qcurve" smooth="yes"/>
      <point x="249" y="37"/>
      <point x="161" y="113"/>
      <point x="161" y="176" type="qcurve" smooth="yes"/>
      <point x="161" y="206" type="line" smooth="yes"/>
      <point x="161" y="265"/>
      <point x="226" y="331"/>
      <point x="289" y="331" type="qcurve" smooth="yes"/>
      <point x="403" y="331" type="line"/>
      <point x="403" y="380" type="line"/>
      <point x="296" y="380" type="line" smooth="yes"/>
      <point x="242" y="380"/>
      <point x="174" y="447"/>
      <point x="174" y="503" type="qcurve" smooth="yes"/>
      <point x="174" y="539" type="line" smooth="yes"/>
      <point x="174" y="592"/>
      <point x="239" y="661"/>
      <point x="306" y="661" type="qcurve" smooth="yes"/>
      <point x="340" y="661"/>
      <point x="396" y="644"/>
      <point x="437" y="613"/>
      <point x="459" y="571"/>
      <point x="459" y="547" type="qcurve" smooth="yes"/>
      <point x="459" y="485" type="line"/>
      <point x="531" y="485" type="line"/>
      <point x="531" y="698" type="line"/>
      <point x="459" y="698" type="line"/>
      <point x="459" y="636" type="line"/>
      <point x="455" y="636" type="line"/>
      <point x="434" y="668"/>
      <point x="353" y="710"/>
      <point x="287" y="710" type="qcurve" smooth="yes"/>
      <point x="238" y="710"/>
      <point x="161" y="684"/>
      <point x="108" y="637"/>
      <point x="80" y="572"/>
      <point x="80" y="533" type="qcurve" smooth="yes"/>
      <point x="80" y="497"/>
      <point x="101" y="439"/>
      <point x="139" y="396"/>
      <point x="189" y="368"/>
      <point x="219" y="362" type="qcurve"/>
      <point x="219" y="358" type="line"/>
      <point x="190" y="353"/>
      <point x="135" y="331"/>
      <point x="93" y="291"/>
      <point x="67" y="232"/>
      <point x="67" y="191" type="qcurve" smooth="yes"/>
      <point x="67" y="146"/>
      <point x="104" y="71"/>
      <point x="171" y="17"/>
    </contour>
  </outline>
</glyph>
<glyph name="Ohorn" format="2">
  <advance width="716"/>
  <unicode hex="01A0"/>
  <note>
Ohorn
</note>
  <anchor x="358" y="0" name="bottom"/>
  <anchor x="358" y="698" name="top"/>
  <outline>
    <contour>
      <point x="427" y="-12"/>
      <point x="541" y="38"/>
      <point x="622" y="132"/>
      <point x="666" y="265"/>
      <point x="666" y="349" type="qcurve" smooth="yes"/>
      <point x="666" y="459"/>
      <point x="591" y="619"/>
      <point x="525" y="663" type="qcurve"/>
      <point x="584" y="663" type="line" smooth="yes"/>
      <point x="619" y="663"/>
      <point x="652" y="698"/>
      <point x="652" y="724" type="qcurve" smooth="yes"/>
      <point x="652" y="810" type="line"/>
      <point x="576" y="810" type="line"/>
      <point x="576" y="698" type="line"/>
      <point x="448" y="698" type="line"/>
      <point x="406" y="710"/>
      <point x="358" y="710" type="qcurve" smooth="yes"/>
      <point x="289" y="710"/>
      <point x="175" y="660"/>
      <point x="94" y="566"/>
      <point x="50" y="433"/>
      <point x="50" y="349" type="qcurve" smooth="yes"/>
      <point x="50" y="265"/>
      <point x="94" y="132"/>
      <point x="175" y="38"/>
      <point x="289" y="-12"/>
      <point x="358" y="-12" type="qcurve" smooth="yes"/>
    </contour>
    <contour>
      <point x="307" y="41"/>
      <point x="228" y="78"/>
      <point x="174" y="145"/>
      <point x="146" y="237"/>
      <point x="146" y="292" type="qcurve" smooth="yes"/>
      <point x="146" y="406" type="line" smooth="yes"/>
      <point x="146" y="461"/>
      <point x="174" y="553"/>
      <point x="228" y="620"/>
      <point x="307" y="657"/>
      <point x="358" y="657" type="qcurve" smooth="yes"/>
      <point x="409" y="657"/>
      <point x="488" y="620"/>
      <point x="542" y="553"/>
      <point x="570" y="461"/>
      <point x="570" y="406" type="qcurve" smooth="yes"/>
      <point x="570" y="292" type="line" smooth="yes"/>
      <point x="570" y="237"/>
      <point x="542" y="145"/>
      <point x="488" y="78"/>
      <point x="409" y="41"/>
      <point x="358" y="41" type="qcurve" smooth="yes"/>
    </contour>
  </outline>
</glyph>
<glyph name="uni0237" format="2">
  <advance width="302"/>
  <unicode hex="0237"/>
  <note>
uni0237
</note>
  <anchor x="161" y="540" name="top"/>
  <outline>
    <contour>
      <point x="126" y="-212"/>
      <point x="202" y="-133"/>
      <point x="202" y="-52" type="qcurve" smooth="yes"/>
      <point x="202" y="528" type="line"/>
      <point x="46" y="498" type="line"/>
      <point x="46" y="464" type="line"/>
      <point x="120" y="451" type="line"/>
      <point x="120" y="-96" type="line" smooth="yes"/>
      <point x="120" y="-176"/>
      <point x="58" y="-176" type="qcurve" smooth="yes"/>
      <point x="41" y="-176"/>
      <point x="32" y="-172" type="qcurve"/>
      <point x="32" y="-169" type="line"/>
      <point x="41" y="-166"/>
      <point x="54" y="-143"/>
      <point x="54" y="-129" type="qcurve" smooth="yes"/>
      <point x="54" y="-108"/>
      <point x="31" y="-82"/>
      <point x="9" y="-82" type="qcurve" smooth="yes"/>
      <point x="-14" y="-82"/>
      <point x="-40" y="-112"/>
      <point x="-40" y="-134" type="qcurve" smooth="yes"/>
      <point x="-40" y="-168"/>
      <point x="8" y="-212"/>
      <point x="58" y="-212" type="qcurve" smooth="yes"/>
    </contour>
  </outline>
</glyph>
<glyph name="uni0259" format="2">
  <advance width="536"/>
  <unicode hex="0259"/>
  <note>
uni0259
</note>
  <outline>
    <contour>
      <point x="310" y="-12"/>
      <point x="395" y="27"/>
      <point x="456" y="99"/>
      <point x="491" y="198"/>
      <point x="491" y="258" type="qcurve" smooth="yes"/>
      <point x="491" y="319"/>
      <point x="459" y="419"/>
      <point x="399" y="489"/>
      <point x="312" y="528"/>
      <point x="257" y="528" type="qcurve" smooth="yes"/>
      <point x="216" y="528"/>
      <point x="150" y="505"/>
      <point x="100" y="468"/>
      <point x="65" y="419"/>
      <point x="55" y="393" type="qcurve"/>
      <point x="88" y="372" type="line"/>
      <point x="109" y="413"/>
      <point x="182" y="464"/>
      <point x="244" y="464" type="qcurve" smooth="yes"/>
      <point x="315" y="464"/>
      <point x="400" y="366"/>
      <point x="400" y="281" type="qcurve" smooth="yes"/>
      <point x="400" y="255" type="line"/>
      <point x="45" y="255" type="line"/>
      <point x="45" y="232" type="line" smooth="yes"/>
      <point x="45" y="179"/>
      <point x="75" y="89"/>
      <point x="130" y="24"/>
      <point x="210" y="-12"/>
      <point x="261" y="-12" type="qcurve" smooth="yes"/>
    </contour>
    <contour>
      <point x="227" y="35"/>
      <point x="178" y="60"/>
      <point x="146" y="104"/>
      <point x="131" y="164"/>
      <point x="131" y="199" type="qcurve" smooth="yes"/>
      <point x="131" y="209" type="line"/>
      <point x="400" y="209" type="line"/>
      <point x="400" y="197" type="line" smooth="yes"/>
      <point x="400" y="162"/>
      <point x="382" y="103"/>
      <point x="347" y="59"/>
      <point x="295" y="35"/>
      <point x="261" y="35" type="qcurve" smooth="yes"/>
    </contour>
  </outline>
</glyph>
<glyph name="eopen" format="2">
  <advance width="502"/>
  <unicode hex="025B"/>
  <outline>
    <contour>
      <point x="220" y="-12"/>
      <point x="263" y="-12" type="qcurve" smooth="yes"/>
      <point x="308" y="-12"/>
      <point x="379" y="8"/>
      <point x="429" y="41"/>
      <point x="456" y="86"/>
      <point x="456" y="110" type="qcurve" smooth="yes"/>
      <point x="456" y="139"/>
      <point x="424" y="173"/>
      <point x="398" y="173" type="qcurve" smooth="yes"/>
      <point x="370" y="173"/>
      <point x="342" y="139"/>
      <point x="342" y="115" type="qcurve" smooth="yes"/>
      <point x="342" y="96"/>
      <point x="361" y="67"/>
      <point x="379" y="59" type="qcurve"/>
      <point x="379" y="57" type="line"/>
      <point x="362" y="46"/>
      <point x="313" y="34"/>
      <point x="271" y="34" type="qcurve" smooth="yes"/>
      <point x="208" y="34"/>
      <point x="145" y="88"/>
      <point x="145" y="126" type="qcurve" smooth="yes"/>
      <point x="145" y="151" type="line" smooth="yes"/>
      <point x="145" y="187"/>
      <point x="195" y="239"/>
      <point x="248" y="239" type="qcurve" smooth="yes"/>
      <point x="321" y="239" type="line"/>
      <point x="321" y="288" type="line"/>
      <point x="253" y="288" type="line" smooth="yes"/>
      <point x="209" y="288"/>
      <point x="158" y="335"/>
      <point x="158" y="373" type="qcurve" smooth="yes"/>
      <point x="158" y="393" type="line" smooth="yes"/>
      <point x="158" y="431"/>
      <point x="207" y="483"/>
      <point x="255" y="483" type="qcurve" smooth="yes"/>
      <point x="311" y="483"/>
      <point x="380" y="431"/>
      <point x="380" y="388" type="qcurve" smooth="yes"/>
      <point x="380" y="359" type="line"/>
      <point x="440" y="359" type="line"/>
      <point x="440" y="516" type="line"/>
      <point x="380" y="516" type="line"/>
      <point x="380" y="467" type="line"/>
      <point x="377" y="467" type="line"/>
      <point x="358" y="493"/>
      <point x="295" y="528"/>
      <point x="244" y="528" type="qcurve" smooth="yes"/>
      <point x="161" y="528"/>
      <point x="71" y="455"/>
      <point x="71" y="392" type="qcurve" smooth="yes"/>
      <point x="71" y="344"/>
      <point x="129" y="283"/>
      <point x="174" y="272" type="qcurve"/>
      <point x="174" y="268" type="line"/>
      <point x="121" y="257"/>
      <point x="59" y="195"/>
      <point x="59" y="142" type="qcurve" smooth="yes"/>
      <point x="59" y="107"/>
      <point x="90" y="50"/>
      <point x="145" y="10"/>
    </contour>
  </outline>
</glyph>
<glyph name="latingamma" format="2">
  <advance width="561"/>
  <unicode hex="0263"/>
  <outline>
    <contour>
      <point x="269" y="-243" type="curve"/>
      <point x="236" y="-243"/>
      <point x="213" y="-235"/>
      <point x="196" y="-215" type="curve"/>
      <point x="180" y="-196"/>
      <point x="173" y="-170"/>
      <point x="173" y="-143" type="curve"/>
      <point x="173" y="-123"/>
      <point x="174" y="-103"/>
      <point x="179" y="-83" type="curve"/>
      <point x="182" y="-65"/>
      <point x="189" y="-43"/>
      <point x="200" y="-20" type="curve"/>
      <point x="208" y="4"/>
      <point x="222" y="32"/>
      <point x="237" y="60" type="curve"/>
      <point x="72" y="421" type="line"/>
      <point x="66" y="436"/>
      <point x="60" y="448"/>
      <point x="54" y="454" type="curve"/>
      <point x="48" y="464"/>
      <point x="41" y="467"/>
      <point x="32" y="470" type="curve"/>
      <point x="26" y="475"/>
      <point x="14" y="476"/>
      <point x="0" y="476" type="curve"/>
      <point x="0" y="516" type="line"/>
      <point x="253" y="516" type="line"/>
      <point x="253" y="476" type="line"/>
      <point x="241" y="476" type="line"/>
      <point x="220" y="476"/>
      <point x="206" y="472"/>
      <point x="195" y="465" type="curve"/>
      <point x="186" y="460"/>
      <point x="180" y="449"/>
      <point x="180" y="434" type="curve"/>
      <point x="180" y="429"/>
      <point x="182" y="421"/>
      <point x="185" y="414" type="curve"/>
      <point x="186" y="407"/>
      <point x="188" y="397"/>
      <point x="190" y="391" type="curve"/>
      <point x="258" y="246" type="line"/>
      <point x="263" y="236"/>
      <point x="268" y="226"/>
      <point x="271" y="215" type="curve"/>
      <point x="277" y="203"/>
      <point x="282" y="195"/>
      <point x="287" y="185" type="curve"/>
      <point x="290" y="175"/>
      <point x="294" y="167"/>
      <point x="300" y="156" type="curve"/>
      <point x="306" y="169"/>
      <point x="311" y="181"/>
      <point x="320" y="196" type="curve"/>
      <point x="326" y="209"/>
      <point x="333" y="225"/>
      <point x="338" y="238" type="curve"/>
      <point x="411" y="386" type="line"/>
      <point x="414" y="390"/>
      <point x="414" y="396"/>
      <point x="417" y="407" type="curve"/>
      <point x="418" y="414"/>
      <point x="418" y="420"/>
      <point x="418" y="428" type="curve"/>
      <point x="418" y="443"/>
      <point x="414" y="455"/>
      <point x="402" y="464" type="curve"/>
      <point x="391" y="471"/>
      <point x="376" y="476"/>
      <point x="354" y="476" type="curve"/>
      <point x="348" y="476" type="line"/>
      <point x="348" y="516" type="line"/>
      <point x="561" y="516" type="line"/>
      <point x="561" y="476" type="line"/>
      <point x="549" y="476" type="line"/>
      <point x="537" y="476"/>
      <point x="525" y="472"/>
      <point x="518" y="467" type="curve"/>
      <point x="510" y="465"/>
      <point x="503" y="455"/>
      <point x="497" y="444" type="curve"/>
      <point x="491" y="434"/>
      <point x="484" y="420"/>
      <point x="474" y="397" type="curve"/>
      <point x="326" y="98" type="line"/>
      <point x="342" y="64"/>
      <point x="354" y="33"/>
      <point x="361" y="4" type="curve"/>
      <point x="371" y="-22"/>
      <point x="378" y="-47"/>
      <point x="382" y="-67" type="curve"/>
      <point x="384" y="-87"/>
      <point x="385" y="-101"/>
      <point x="385" y="-113" type="curve"/>
      <point x="385" y="-152"/>
      <point x="376" y="-183"/>
      <point x="356" y="-207" type="curve"/>
      <point x="338" y="-231"/>
      <point x="310" y="-243"/>
    </contour>
    <contour>
      <point x="260" y="-195" type="curve"/>
      <point x="270" y="-195"/>
      <point x="277" y="-190"/>
      <point x="286" y="-181" type="curve"/>
      <point x="291" y="-170"/>
      <point x="294" y="-156"/>
      <point x="294" y="-135" type="curve"/>
      <point x="294" y="-126"/>
      <point x="293" y="-115"/>
      <point x="293" y="-103" type="curve"/>
      <point x="291" y="-92"/>
      <point x="288" y="-79"/>
      <point x="283" y="-60" type="curve"/>
      <point x="281" y="-45"/>
      <point x="274" y="-22"/>
      <point x="264" y="0" type="curve"/>
      <point x="249" y="-27"/>
      <point x="240" y="-53"/>
      <point x="234" y="-76" type="curve"/>
      <point x="227" y="-101"/>
      <point x="223" y="-122"/>
      <point x="223" y="-140" type="curve"/>
      <point x="223" y="-156"/>
      <point x="227" y="-170"/>
      <point x="235" y="-180" type="curve"/>
      <point x="241" y="-190"/>
      <point x="249" y="-195"/>
    </contour>
  </outline>
</glyph>
<glyph name="uni02BB" format="2">
  <advance width="600"/>
  <unicode hex="02BB"/>
  <note>
uni02BB
</note>
  <outline>
    <contour>
      <point x="326" y="586"/>
      <point x="355" y="614"/>
      <point x="355" y="635" type="qcurve" smooth="yes"/>
      <point x="355" y="639" type="line" smooth="yes"/>
      <point x="355" y="661"/>
      <point x="326" y="689"/>
      <point x="299" y="689" type="qcurve"/>
      <point x="306" y="710"/>
      <point x="333" y="757"/>
      <point x="352" y="777" type="qcurve"/>
      <point x="313" y="777" type="line"/>
      <point x="284" y="750"/>
      <point x="248" y="676"/>
      <point x="248" y="644" type="qcurve" smooth="yes"/>
      <point x="248" y="637" type="line" smooth="yes"/>
      <point x="248" y="616"/>
      <point x="276" y="586"/>
      <point x="300" y="586" type="qcurve" smooth="yes"/>
    </contour>
  </outline>
</glyph>
<glyph name="uni02BC" format="2">
  <advance width="600"/>
  <unicode hex="02BC"/>
  <note>
uni02BC
</note>
  <outline>
    <contour>
      <point x="303" y="564" type="line"/>
      <point x="331" y="564" type="line"/>
      <point x="396" y="748" type="line"/>
      <point x="315" y="748" type="line"/>
    </contour>
  </outline>
</glyph>
<glyph name="caron" format="2">
  <advance width="600"/>
  <unicode hex="02C7"/>
  <note>
caron
</note>
  <outline>
    <contour>
      <point x="272" y="602" type="line"/>
      <point x="328" y="602" type="line"/>
      <point x="451" y="751" type="line"/>
      <point x="427" y="767" type="line"/>
      <point x="300" y="670" type="line"/>
      <point x="173" y="767" type="line"/>
      <point x="149" y="751" type="line"/>
    </contour>
  </outline>
</glyph>
<glyph name="dotaccent" format="2">
  <advance width="600"/>
  <unicode hex="02D9"/>
  <note>
dotaccent
</note>
  <outline>
    <contour>
      <point x="323" y="619"/>
      <point x="350" y="648"/>
      <point x="350" y="668" type="qcurve" smooth="yes"/>
      <point x="350" y="671" type="line" smooth="yes"/>
      <point x="350" y="691"/>
      <point x="323" y="720"/>
      <point x="300" y="720" type="qcurve" smooth="yes"/>
      <point x="277" y="720"/>
      <point x="250" y="691"/>
      <point x="250" y="671" type="qcurve" smooth="yes"/>
      <point x="250" y="668" type="line" smooth="yes"/>
      <point x="250" y="648"/>
      <point x="277" y="619"/>
      <point x="300" y="619" type="qcurve" smooth="yes"/>
    </contour>
  </outline>
</glyph>
<glyph name="ring" format="2">
  <advance width="600"/>
  <unicode hex="02DA"/>
  <note>
ring
</note>
  <outline>
    <contour>
      <point x="272" y="613"/>
      <point x="241" y="646"/>
      <point x="241" y="676" type="qcurve" smooth="yes"/>
      <point x="241" y="706" type="line" smooth="yes"/>
      <point x="241" y="736"/>
      <point x="272" y="769"/>
      <point x="300" y="769" type="qcurve" smooth="yes"/>
      <point x="328" y="769"/>
      <point x="359" y="736"/>
      <point x="359" y="706" type="qcurve" smooth="yes"/>
      <point x="359" y="676" type="line" smooth="yes"/>
      <point x="359" y="646"/>
      <point x="328" y="613"/>
      <point x="300" y="613" type="qcurve" smooth="yes"/>
    </contour>
    <contour>
      <point x="325" y="579"/>
      <point x="367" y="596"/>
      <point x="399" y="626"/>
      <point x="417" y="667"/>
      <point x="417" y="691" type="qcurve" smooth="yes"/>
      <point x="417" y="715"/>
      <point x="399" y="756"/>
      <point x="367" y="786"/>
      <point x="325" y="803"/>
      <point x="300" y="803" type="qcurve" smooth="yes"/>
      <point x="275" y="803"/>
      <point x="232" y="786"/>
      <point x="201" y="756"/>
      <point x="183" y="715"/>
      <point x="183" y="691" type="qcurve" smooth="yes"/>
      <point x="183" y="667"/>
      <point x="201" y="626"/>
      <point x="232" y="596"/>
      <point x="275" y="579"/>
      <point x="300" y="579" type="qcurve" smooth="yes"/>
    </contour>
  </outline>
</glyph>
<glyph name="tilde" format="2">
  <advance width="600"/>
  <unicode hex="02DC"/>
  <note>
tilde
</note>
  <outline>
    <contour>
      <point x="392" y="618"/>
      <point x="431" y="655"/>
      <point x="456" y="686" type="qcurve"/>
      <point x="437" y="706" type="line"/>
      <point x="418" y="687"/>
      <point x="399" y="673"/>
      <point x="384" y="673" type="qcurve" smooth="yes"/>
      <point x="369" y="673"/>
      <point x="329" y="692"/>
      <point x="311" y="701" type="qcurve" smooth="yes"/>
      <point x="293" y="711"/>
      <point x="258" y="728"/>
      <point x="239" y="728" type="qcurve" smooth="yes"/>
      <point x="208" y="728"/>
      <point x="169" y="691"/>
      <point x="144" y="660" type="qcurve"/>
      <point x="163" y="640" type="line"/>
      <point x="182" y="659"/>
      <point x="201" y="673"/>
      <point x="216" y="673" type="qcurve" smooth="yes"/>
      <point x="231" y="673"/>
      <point x="271" y="654"/>
      <point x="289" y="645" type="qcurve" smooth="yes"/>
      <point x="307" y="635"/>
      <point x="342" y="618"/>
      <point x="361" y="618" type="qcurve" smooth="yes"/>
    </contour>
  </outline>
</glyph>
<glyph name="uni0323" format="2">
  <advance width="0"/>
  <unicode hex="0323"/>
  <note>
uni0323
</note>
  <anchor x="0" y="0" name="_bottom"/>
  <outline>
    <contour>
      <point x="23" y="-162"/>
      <point x="50" y="-133"/>
      <point x="50" y="-113" type="qcurve" smooth="yes"/>
      <point x="50" y="-110" type="line" smooth="yes"/>
      <point x="50" y="-90"/>
      <point x="23" y="-61"/>
      <point x="0" y="-61" type="qcurve" smooth="yes"/>
      <point x="-23" y="-61"/>
      <point x="-50" y="-90"/>
      <point x="-50" y="-110" type="qcurve" smooth="yes"/>
      <point x="-50" y="-113" type="line" smooth="yes"/>
      <point x="-50" y="-133"/>
      <point x="-23" y="-162"/>
      <point x="0" y="-162" type="qcurve" smooth="yes"/>
    </contour>
  </outline>
</glyph>
<glyph name="uni0326" format="2">
  <advance width="0"/>
  <unicode hex="0326"/>
  <note>
uni0326
</note>
  <anchor x="0" y="0" name="_bottom"/>
  <outline>
    <contour>
      <point x="-50" y="-246" type="line"/>
      <point x="-11" y="-246" type="line"/>
      <point x="18" y="-219"/>
      <point x="54" y="-145"/>
      <point x="54" y="-113" type="qcurve" smooth="yes"/>
      <point x="54" y="-106" type="line" smooth="yes"/>
      <point x="54" y="-85"/>
      <point x="26" y="-55"/>
      <point x="2" y="-55" type="qcurve" smooth="yes"/>
      <point x="-24" y="-55"/>
      <point x="-53" y="-83"/>
      <point x="-53" y="-104" type="qcurve" smooth="yes"/>
      <point x="-53" y="-108" type="line" smooth="yes"/>
      <point x="-53" y="-130"/>
      <point x="-24" y="-158"/>
      <point x="3" y="-158" type="qcurve"/>
      <point x="-4" y="-179"/>
      <point x="-31" y="-226"/>
      <point x="-50" y="-246" type="qcurve"/>
    </contour>
  </outline>
</glyph>
<glyph name="Gamma" format="2">
  <advance width="604"/>
  <unicode hex="0393"/>
  <outline>
    <contour>
      <point x="293" y="0" type="curve"/>
      <point x="276" y="0"/>
      <point x="261" y="3"/>
      <point x="249" y="10" type="curve"/>
      <point x="237" y="17"/>
      <point x="228" y="28"/>
      <point x="221" y="42" type="curve"/>
      <point x="215" y="56"/>
      <point x="212" y="74"/>
      <point x="212" y="96" type="curve"/>
      <point x="212" y="112"/>
      <point x="214" y="131"/>
      <point x="219" y="151" type="curve"/>
      <point x="224" y="170"/>
      <point x="231" y="191"/>
      <point x="240" y="213" type="curve"/>
      <point x="249" y="235"/>
      <point x="260" y="257"/>
      <point x="272" y="281" type="curve"/>
      <point x="116" y="629" type="line"/>
      <point x="112" y="638"/>
      <point x="107" y="646"/>
      <point x="103" y="651" type="curve"/>
      <point x="99" y="657"/>
      <point x="94" y="661"/>
      <point x="88" y="664" type="curve"/>
      <point x="82" y="666"/>
      <point x="74" y="667"/>
      <point x="64" y="667" type="curve"/>
      <point x="55" y="667" type="line"/>
      <point x="55" y="698" type="line"/>
      <point x="256" y="698" type="line"/>
      <point x="256" y="667" type="line"/>
      <point x="240" y="667" type="line"/>
      <point x="225" y="667"/>
      <point x="214" y="664"/>
      <point x="207" y="658" type="curve"/>
      <point x="199" y="653"/>
      <point x="196" y="644"/>
      <point x="196" y="632" type="curve"/>
      <point x="196" y="628"/>
      <point x="196" y="624"/>
      <point x="197" y="620" type="curve"/>
      <point x="198" y="616"/>
      <point x="199" y="611"/>
      <point x="202" y="605" type="curve"/>
      <point x="314" y="350" type="line"/>
      <point x="429" y="600" type="line"/>
      <point x="432" y="606"/>
      <point x="433" y="611"/>
      <point x="434" y="617" type="curve"/>
      <point x="435" y="623"/>
      <point x="436" y="628"/>
      <point x="436" y="632" type="curve"/>
      <point x="436" y="644"/>
      <point x="432" y="653"/>
      <point x="423" y="658" type="curve"/>
      <point x="416" y="664"/>
      <point x="403" y="667"/>
      <point x="387" y="667" type="curve"/>
      <point x="370" y="667" type="line"/>
      <point x="370" y="698" type="line"/>
      <point x="549" y="698" type="line"/>
      <point x="549" y="667" type="line"/>
      <point x="535" y="667" type="line"/>
      <point x="526" y="667"/>
      <point x="518" y="666"/>
      <point x="512" y="662" type="curve"/>
      <point x="507" y="659"/>
      <point x="502" y="654"/>
      <point x="497" y="645" type="curve"/>
      <point x="492" y="637"/>
      <point x="487" y="625"/>
      <point x="479" y="610" type="curve"/>
      <point x="334" y="303" type="line"/>
      <point x="343" y="281"/>
      <point x="351" y="261"/>
      <point x="358" y="242" type="curve"/>
      <point x="365" y="224"/>
      <point x="370" y="207"/>
      <point x="374" y="191" type="curve"/>
      <point x="379" y="176"/>
      <point x="382" y="162"/>
      <point x="384" y="149" type="curve"/>
      <point x="386" y="136"/>
      <point x="387" y="123"/>
      <point x="387" y="111" type="curve"/>
      <point x="387" y="88"/>
      <point x="384" y="69"/>
      <point x="376" y="52" type="curve"/>
      <point x="369" y="35"/>
      <point x="358" y="23"/>
      <point x="344" y="14" type="curve"/>
      <point x="330" y="5"/>
      <point x="313" y="0"/>
    </contour>
    <contour>
      <point x="283" y="39" type="curve"/>
      <point x="295" y="39"/>
      <point x="305" y="44"/>
      <point x="312" y="54" type="curve"/>
      <point x="318" y="64"/>
      <point x="322" y="78"/>
      <point x="322" y="98" type="curve"/>
      <point x="322" y="109"/>
      <point x="321" y="120"/>
      <point x="320" y="131" type="curve"/>
      <point x="319" y="141"/>
      <point x="317" y="151"/>
      <point x="315" y="162" type="curve"/>
      <point x="313" y="173"/>
      <point x="310" y="184"/>
      <point x="306" y="195" type="curve"/>
      <point x="302" y="207"/>
      <point x="298" y="220"/>
      <point x="293" y="233" type="curve"/>
      <point x="284" y="216"/>
      <point x="277" y="200"/>
      <point x="272" y="183" type="curve"/>
      <point x="266" y="167"/>
      <point x="261" y="151"/>
      <point x="258" y="137" type="curve"/>
      <point x="256" y="121"/>
      <point x="254" y="107"/>
      <point x="254" y="95" type="curve"/>
      <point x="254" y="81"/>
      <point x="256" y="70"/>
      <point x="258" y="62" type="curve"/>
      <point x="261" y="54"/>
      <point x="265" y="48"/>
      <point x="269" y="44" type="curve"/>
      <point x="274" y="41"/>
      <point x="279" y="39"/>
    </contour>
  </outline>
</glyph>
<glyph name="pi" format="2">
  <advance width="613"/>
  <unicode hex="03C0"/>
  <note>
pi
</note>
  <outline>
    <contour>
      <point x="527" y="-9"/>
      <point x="567" y="4"/>
      <point x="583" y="12" type="qcurve"/>
      <point x="583" y="46" type="line"/>
      <point x="490" y="46" type="line"/>
      <point x="490" y="467" type="line"/>
      <point x="583" y="467" type="line"/>
      <point x="583" y="516" type="line"/>
      <point x="20" y="516" type="line"/>
      <point x="20" y="467" type="line"/>
      <point x="113" y="467" type="line"/>
      <point x="113" y="0" type="line"/>
      <point x="195" y="0" type="line"/>
      <point x="195" y="467" type="line"/>
      <point x="408" y="467" type="line"/>
      <point x="408" y="85" type="line" smooth="yes"/>
      <point x="408" y="33"/>
      <point x="448" y="-9"/>
      <point x="501" y="-9" type="qcurve" smooth="yes"/>
    </contour>
  </outline>
</glyph>
<glyph name="uni0402" format="2">
  <advance width="807"/>
  <unicode hex="0402"/>
  <note>
uni0402
</note>
  <outline>
    <contour>
      <point x="515" y="-164" type="line"/>
      <point x="606" y="-164" type="line" smooth="yes"/>
      <point x="632" y="-164"/>
      <point x="684" y="-146"/>
      <point x="726" y="-106"/>
      <point x="752" y="-42"/>
      <point x="752" y="3" type="qcurve" smooth="yes"/>
      <point x="752" y="200" type="line" smooth="yes"/>
      <point x="752" y="257"/>
      <point x="730" y="340"/>
      <point x="679" y="394"/>
      <point x="597" y="421"/>
      <point x="537" y="421" type="qcurve" smooth="yes"/>
      <point x="486" y="421"/>
      <point x="408" y="403"/>
      <point x="373" y="384" type="qcurve"/>
      <point x="369" y="384" type="line"/>
      <point x="369" y="649" type="line"/>
      <point x="545" y="649" type="line"/>
      <point x="545" y="530" type="line"/>
      <point x="617" y="530" type="line"/>
      <point x="617" y="698" type="line"/>
      <point x="35" y="698" type="line"/>
      <point x="35" y="530" type="line"/>
      <point x="107" y="530" type="line"/>
      <point x="107" y="649" type="line"/>
      <point x="283" y="649" type="line"/>
      <point x="283" y="46" type="line"/>
      <point x="208" y="46" type="line"/>
      <point x="208" y="0" type="line"/>
      <point x="444" y="0" type="line"/>
      <point x="444" y="46" type="line"/>
      <point x="369" y="46" type="line"/>
      <point x="369" y="334" type="line"/>
      <point x="399" y="352"/>
      <point x="469" y="372"/>
      <point x="515" y="372" type="qcurve" smooth="yes"/>
      <point x="558" y="372"/>
      <point x="616" y="353"/>
      <point x="651" y="312"/>
      <point x="666" y="245"/>
      <point x="666" y="197" type="qcurve" smooth="yes"/>
      <point x="666" y="8" type="line" smooth="yes"/>
      <point x="666" y="-18"/>
      <point x="659" y="-57"/>
      <point x="647" y="-85"/>
      <point x="630" y="-106"/>
      <point x="621" y="-115" type="qcurve"/>
      <point x="515" y="-115" type="line"/>
    </contour>
  </outline>
</glyph>
<glyph name="uni0404" format="2">
  <advance width="649"/>
  <unicode hex="0404"/>
  <note>
uni0404
</note>
  <outline>
    <contour>
      <point x="415" y="-12"/>
      <point x="503" y="11"/>
      <point x="563" y="49"/>
      <point x="593" y="97"/>
      <point x="593" y="121" type="qcurve" smooth="yes"/>
      <point x="593" y="151"/>
      <point x="559" y="187"/>
      <point x="533" y="187" type="qcurve" smooth="yes"/>
      <point x="506" y="187"/>
      <point x="473" y="152"/>
      <point x="473" y="125" type="qcurve" smooth="yes"/>
      <point x="473" y="104"/>
      <point x="497" y="72"/>
      <point x="509" y="67" type="qcurve"/>
      <point x="509" y="65" type="line"/>
      <point x="490" y="52"/>
      <point x="420" y="36"/>
      <point x="369" y="36" type="qcurve" smooth="yes"/>
      <point x="314" y="36"/>
      <point x="231" y="75"/>
      <point x="175" y="144"/>
      <point x="147" y="238"/>
      <point x="147" y="293" type="qcurve" smooth="yes"/>
      <point x="147" y="331" type="line"/>
      <point x="437" y="331" type="line"/>
      <point x="437" y="380" type="line"/>
      <point x="147" y="380" type="line"/>
      <point x="147" y="417" type="line" smooth="yes"/>
      <point x="147" y="470"/>
      <point x="171" y="560"/>
      <point x="221" y="625"/>
      <point x="296" y="662"/>
      <point x="347" y="662" type="qcurve" smooth="yes"/>
      <point x="383" y="662"/>
      <point x="442" y="644"/>
      <point x="485" y="613"/>
      <point x="508" y="571"/>
      <point x="508" y="546" type="qcurve" smooth="yes"/>
      <point x="508" y="485" type="line"/>
      <point x="579" y="485" type="line"/>
      <point x="579" y="698" type="line"/>
      <point x="508" y="698" type="line"/>
      <point x="508" y="635" type="line"/>
      <point x="504" y="635" type="line"/>
      <point x="482" y="668"/>
      <point x="399" y="710"/>
      <point x="337" y="710" type="qcurve" smooth="yes"/>
      <point x="273" y="710"/>
      <point x="167" y="662"/>
      <point x="92" y="570"/>
      <point x="50" y="436"/>
      <point x="50" y="349" type="qcurve" smooth="yes"/>
      <point x="50" y="266"/>
      <point x="92" y="132"/>
      <point x="171" y="38"/>
      <point x="285" y="-12"/>
      <point x="357" y="-12" type="qcurve" smooth="yes"/>
    </contour>
  </outline>
</glyph>
<glyph name="uni040A" format="2">
  <advance width="1017"/>
  <unicode hex="040A"/>
  <note>
uni040A
</note>
  <outline>
    <contour>
      <point x="55" y="0" type="line"/>
      <point x="291" y="0" type="line"/>
      <point x="291" y="46" type="line"/>
      <point x="216" y="46" type="line"/>
      <point x="216" y="331" type="line"/>
      <point x="536" y="331" type="line"/>
      <point x="536" y="46" type="line"/>
      <point x="461" y="46" type="line"/>
      <point x="461" y="0" type="line"/>
      <point x="771" y="0" type="line" smooth="yes"/>
      <point x="868" y="0"/>
      <point x="973" y="103"/>
      <point x="973" y="204" type="qcurve" smooth="yes"/>
      <point x="973" y="304"/>
      <point x="868" y="407"/>
      <point x="771" y="407" type="qcurve" smooth="yes"/>
      <point x="622" y="407" type="line"/>
      <point x="622" y="652" type="line"/>
      <point x="697" y="652" type="line"/>
      <point x="697" y="698" type="line"/>
      <point x="461" y="698" type="line"/>
      <point x="461" y="652" type="line"/>
      <point x="536" y="652" type="line"/>
      <point x="536" y="380" type="line"/>
      <point x="216" y="380" type="line"/>
      <point x="216" y="652" type="line"/>
      <point x="291" y="652" type="line"/>
      <point x="291" y="698" type="line"/>
      <point x="55" y="698" type="line"/>
      <point x="55" y="652" type="line"/>
      <point x="130" y="652" type="line"/>
      <point x="130" y="46" type="line"/>
      <point x="55" y="46" type="line"/>
    </contour>
    <contour>
      <point x="622" y="49" type="line"/>
      <point x="622" y="358" type="line"/>
      <point x="767" y="358" type="line" smooth="yes"/>
      <point x="823" y="358"/>
      <point x="881" y="289"/>
      <point x="881" y="235" type="qcurve" smooth="yes"/>
      <point x="881" y="173" type="line" smooth="yes"/>
      <point x="881" y="118"/>
      <point x="823" y="49"/>
      <point x="767" y="49" type="qcurve" smooth="yes"/>
    </contour>
  </outline>
</glyph>
<glyph name="uni040F" format="2">
  <advance width="768"/>
  <unicode hex="040F"/>
  <note>
uni040F
</note>
  <outline>
    <contour>
      <point x="345" y="-160" type="line"/>
      <point x="423" y="-160" type="line"/>
      <point x="423" y="0" type="line"/>
      <point x="713" y="0" type="line"/>
      <point x="713" y="46" type="line"/>
      <point x="638" y="46" type="line"/>
      <point x="638" y="652" type="line"/>
      <point x="713" y="652" type="line"/>
      <point x="713" y="698" type="line"/>
      <point x="477" y="698" type="line"/>
      <point x="477" y="652" type="line"/>
      <point x="552" y="652" type="line"/>
      <point x="552" y="49" type="line"/>
      <point x="216" y="49" type="line"/>
      <point x="216" y="652" type="line"/>
      <point x="291" y="652" type="line"/>
      <point x="291" y="698" type="line"/>
      <point x="55" y="698" type="line"/>
      <point x="55" y="652" type="line"/>
      <point x="130" y="652" type="line"/>
      <point x="130" y="46" type="line"/>
      <point x="55" y="46" type="line"/>
      <point x="55" y="0" type="line"/>
      <point x="345" y="0" type="line"/>
    </contour>
  </outline>
</glyph>
<glyph name="uni0416" format="2">
  <advance width="983"/>
  <unicode hex="0416"/>
  <note>
uni0416
</note>
  <anchor x="491" y="698" name="top"/>
  <outline>
    <contour>
      <point x="12" y="0" type="line"/>
      <point x="153" y="0" type="line"/>
      <point x="357" y="331" type="line"/>
      <point x="449" y="331" type="line"/>
      <point x="449" y="46" type="line"/>
      <point x="374" y="46" type="line"/>
      <point x="374" y="0" type="line"/>
      <point x="609" y="0" type="line"/>
      <point x="609" y="46" type="line"/>
      <point x="534" y="46" type="line"/>
      <point x="534" y="331" type="line"/>
      <point x="626" y="331" type="line"/>
      <point x="829" y="0" type="line"/>
      <point x="971" y="0" type="line"/>
      <point x="971" y="46" type="line"/>
      <point x="902" y="46" type="line"/>
      <point x="738" y="313" type="line" smooth="yes"/>
      <point x="721" y="339"/>
      <point x="695" y="358"/>
      <point x="679" y="361" type="qcurve"/>
      <point x="760" y="545" type="line" smooth="yes"/>
      <point x="774" y="576"/>
      <point x="803" y="623"/>
      <point x="815" y="637" type="qcurve"/>
      <point x="818" y="637" type="line"/>
      <point x="818" y="609"/>
      <point x="850" y="575"/>
      <point x="876" y="575" type="qcurve" smooth="yes"/>
      <point x="905" y="575"/>
      <point x="934" y="614"/>
      <point x="934" y="640" type="qcurve" smooth="yes"/>
      <point x="934" y="668"/>
      <point x="898" y="710"/>
      <point x="862" y="710" type="qcurve" smooth="yes"/>
      <point x="815" y="710"/>
      <point x="744" y="645"/>
      <point x="709" y="566" type="qcurve" smooth="yes"/>
      <point x="626" y="379" type="line"/>
      <point x="534" y="379" type="line"/>
      <point x="534" y="652" type="line"/>
      <point x="609" y="652" type="line"/>
      <point x="609" y="698" type="line"/>
      <point x="374" y="698" type="line"/>
      <point x="374" y="652" type="line"/>
      <point x="449" y="652" type="line"/>
      <point x="449" y="379" type="line"/>
      <point x="357" y="379" type="line"/>
      <point x="274" y="566" type="line" smooth="yes"/>
      <point x="239" y="646"/>
      <point x="168" y="710"/>
      <point x="121" y="710" type="qcurve" smooth="yes"/>
      <point x="85" y="710"/>
      <point x="49" y="668"/>
      <point x="49" y="640" type="qcurve" smooth="yes"/>
      <point x="49" y="614"/>
      <point x="78" y="575"/>
      <point x="106" y="575" type="qcurve" smooth="yes"/>
      <point x="132" y="575"/>
      <point x="164" y="609"/>
      <point x="164" y="637" type="qcurve"/>
      <point x="167" y="637" type="line"/>
      <point x="180" y="623"/>
      <point x="208" y="576"/>
      <point x="222" y="545" type="qcurve" smooth="yes"/>
      <point x="303" y="361" type="line"/>
      <point x="288" y="358"/>
      <point x="262" y="339"/>
      <point x="245" y="313" type="qcurve" smooth="yes"/>
      <point x="81" y="46" type="line"/>
      <point x="12" y="46" type="line"/>
    </contour>
  </outline>
</glyph>
<glyph name="uni041A" format="2">
  <advance width="687"/>
  <unicode hex="041A"/>
  <note>
uni041A
</note>
  <anchor x="374" y="698" name="top"/>
  <outline>
    <contour>
      <point x="55" y="0" type="line"/>
      <point x="291" y="0" type="line"/>
      <point x="291" y="46" type="line"/>
      <point x="216" y="46" type="line"/>
      <point x="216" y="331" type="line"/>
      <point x="316" y="331" type="line"/>
      <point x="531" y="0" type="line"/>
      <point x="675" y="0" type="line"/>
      <point x="675" y="46" type="line"/>
      <point x="606" y="46" type="line"/>
      <point x="431" y="315" type="line" smooth="yes"/>
      <point x="415" y="339"/>
      <point x="387" y="358"/>
      <point x="370" y="361" type="qcurve"/>
      <point x="465" y="549" type="line" smooth="yes"/>
      <point x="476" y="572"/>
      <point x="506" y="620"/>
      <point x="519" y="637" type="qcurve"/>
      <point x="522" y="637" type="line"/>
      <point x="522" y="608"/>
      <point x="554" y="574"/>
      <point x="580" y="574" type="qcurve" smooth="yes"/>
      <point x="609" y="574"/>
      <point x="639" y="612"/>
      <point x="639" y="639" type="qcurve" smooth="yes"/>
      <point x="639" y="669"/>
      <point x="600" y="710"/>
      <point x="564" y="710" type="qcurve" smooth="yes"/>
      <point x="543" y="710"/>
      <point x="505" y="697"/>
      <point x="470" y="666"/>
      <point x="434" y="614"/>
      <point x="414" y="574" type="qcurve" smooth="yes"/>
      <point x="315" y="379" type="line"/>
      <point x="216" y="379" type="line"/>
      <point x="216" y="652" type="line"/>
      <point x="291" y="652" type="line"/>
      <point x="291" y="698" type="line"/>
      <point x="55" y="698" type="line"/>
      <point x="55" y="652" type="line"/>
      <point x="130" y="652" type="line"/>
      <point x="130" y="46" type="line"/>
      <point x="55" y="46" type="line"/>
    </contour>
  </outline>
</glyph>
<glyph name="uni041B" format="2">
  <advance width="681"/>
  <unicode hex="041B"/>
  <note>
uni041B
</note>
  <outline>
    <contour>
      <point x="136" y="-12"/>
      <point x="183" y="4"/>
      <point x="203" y="23" type="qcurve" smooth="yes"/>
      <point x="224" y="45"/>
      <point x="254" y="116"/>
      <point x="273" y="237"/>
      <point x="281" y="419"/>
      <point x="281" y="552" type="qcurve" smooth="yes"/>
      <point x="281" y="649" type="line"/>
      <point x="465" y="649" type="line"/>
      <point x="465" y="46" type="line"/>
      <point x="390" y="46" type="line"/>
      <point x="390" y="0" type="line"/>
      <point x="626" y="0" type="line"/>
      <point x="626" y="46" type="line"/>
      <point x="551" y="46" type="line"/>
      <point x="551" y="652" type="line"/>
      <point x="626" y="652" type="line"/>
      <point x="626" y="698" type="line"/>
      <point x="145" y="698" type="line"/>
      <point x="145" y="652" type="line"/>
      <point x="220" y="652" type="line"/>
      <point x="220" y="547" type="line" smooth="yes"/>
      <point x="220" y="413"/>
      <point x="212" y="238"/>
      <point x="196" y="128"/>
      <point x="173" y="72"/>
      <point x="158" y="57" type="qcurve" smooth="yes"/>
      <point x="147" y="46"/>
      <point x="123" y="36"/>
      <point x="111" y="36" type="qcurve" smooth="yes"/>
      <point x="99" y="36"/>
      <point x="93" y="39" type="qcurve"/>
      <point x="93" y="43" type="line"/>
      <point x="104" y="47"/>
      <point x="124" y="74"/>
      <point x="124" y="93" type="qcurve" smooth="yes"/>
      <point x="124" y="118"/>
      <point x="95" y="150"/>
      <point x="69" y="150" type="qcurve" smooth="yes"/>
      <point x="41" y="150"/>
      <point x="10" y="112"/>
      <point x="10" y="80" type="qcurve" smooth="yes"/>
      <point x="10" y="42"/>
      <point x="63" y="-12"/>
      <point x="113" y="-12" type="qcurve" smooth="yes"/>
    </contour>
  </outline>
</glyph>
<glyph name="uni0423" format="2">
  <advance width="649"/>
  <unicode hex="0423"/>
  <note>
uni0423
</note>
  <anchor x="353" y="698" name="top"/>
  <outline>
    <contour>
      <point x="272" y="-12"/>
      <point x="346" y="43"/>
      <point x="375" y="115" type="qcurve" smooth="yes"/>
      <point x="592" y="652" type="line"/>
      <point x="649" y="652" type="line"/>
      <point x="649" y="698" type="line"/>
      <point x="446" y="698" type="line"/>
      <point x="446" y="652" type="line"/>
      <point x="533" y="652" type="line"/>
      <point x="435" y="405" type="line"/>
      <point x="381" y="269" type="line"/>
      <point x="378" y="269" type="line"/>
      <point x="305" y="406" type="line"/>
      <point x="170" y="652" type="line"/>
      <point x="259" y="652" type="line"/>
      <point x="259" y="698" type="line"/>
      <point x="15" y="698" type="line"/>
      <point x="15" y="652" type="line"/>
      <point x="72" y="652" type="line"/>
      <point x="339" y="165" type="line"/>
      <point x="324" y="128" type="line" smooth="yes"/>
      <point x="312" y="99"/>
      <point x="288" y="61"/>
      <point x="263" y="40"/>
      <point x="234" y="32"/>
      <point x="216" y="32" type="qcurve" smooth="yes"/>
      <point x="205" y="32"/>
      <point x="185" y="36"/>
      <point x="176" y="39" type="qcurve"/>
      <point x="176" y="42" type="line"/>
      <point x="187" y="46"/>
      <point x="208" y="71"/>
      <point x="208" y="91" type="qcurve" smooth="yes"/>
      <point x="208" y="117"/>
      <point x="180" y="149"/>
      <point x="154" y="149" type="qcurve" smooth="yes"/>
      <point x="126" y="149"/>
      <point x="94" y="112"/>
      <point x="94" y="84" type="qcurve" smooth="yes"/>
      <point x="94" y="42"/>
      <point x="160" y="-12"/>
      <point x="218" y="-12" type="qcurve" smooth="yes"/>
    </contour>
  </outline>
</glyph>
<glyph name="uni0426" format="2">
  <advance width="780"/>
  <unicode hex="0426"/>
  <note>
uni0426
</note>
  <outline>
    <contour>
      <point x="662" y="-160" type="line"/>
      <point x="740" y="-160" type="line"/>
      <point x="740" y="50" type="line"/>
      <point x="637" y="50" type="line"/>
      <point x="637" y="652" type="line"/>
      <point x="712" y="652" type="line"/>
      <point x="712" y="698" type="line"/>
      <point x="476" y="698" type="line"/>
      <point x="476" y="652" type="line"/>
      <point x="551" y="652" type="line"/>
      <point x="551" y="49" type="line"/>
      <point x="216" y="49" type="line"/>
      <point x="216" y="652" type="line"/>
      <point x="291" y="652" type="line"/>
      <point x="291" y="698" type="line"/>
      <point x="55" y="698" type="line"/>
      <point x="55" y="652" type="line"/>
      <point x="130" y="652" type="line"/>
      <point x="130" y="46" type="line"/>
      <point x="55" y="46" type="line"/>
      <point x="55" y="0" type="line"/>
      <point x="662" y="0" type="line"/>
    </contour>
  </outline>
</glyph>
<glyph name="uni0427" format="2">
  <advance width="718"/>
  <unicode hex="0427"/>
  <note>
uni0427
</note>
  <anchor x="349" y="698" name="top"/>
  <outline>
    <contour>
      <point x="407" y="0" type="line"/>
      <point x="663" y="0" type="line"/>
      <point x="663" y="46" type="line"/>
      <point x="588" y="46" type="line"/>
      <point x="588" y="652" type="line"/>
      <point x="663" y="652" type="line"/>
      <point x="663" y="698" type="line"/>
      <point x="427" y="698" type="line"/>
      <point x="427" y="652" type="line"/>
      <point x="502" y="652" type="line"/>
      <point x="502" y="353" type="line"/>
      <point x="476" y="336"/>
      <point x="398" y="315"/>
      <point x="349" y="315" type="qcurve" smooth="yes"/>
      <point x="307" y="315"/>
      <point x="248" y="333"/>
      <point x="212" y="374"/>
      <point x="196" y="441"/>
      <point x="196" y="490" type="qcurve" smooth="yes"/>
      <point x="196" y="652" type="line"/>
      <point x="271" y="652" type="line"/>
      <point x="271" y="698" type="line"/>
      <point x="35" y="698" type="line"/>
      <point x="35" y="652" type="line"/>
      <point x="110" y="652" type="line"/>
      <point x="110" y="487" type="line" smooth="yes"/>
      <point x="110" y="429"/>
      <point x="133" y="346"/>
      <point x="186" y="292"/>
      <point x="270" y="266"/>
      <point x="332" y="266" type="qcurve" smooth="yes"/>
      <point x="387" y="266"/>
      <point x="463" y="285"/>
      <point x="498" y="303" type="qcurve"/>
      <point x="502" y="303" type="line"/>
      <point x="502" y="46" type="line"/>
      <point x="407" y="46" type="line"/>
    </contour>
  </outline>
</glyph>
<glyph name="uni0428" format="2">
  <advance width="1008"/>
  <unicode hex="0428"/>
  <note>
uni0428
</note>
  <outline>
    <contour>
      <point x="55" y="0" type="line"/>
      <point x="953" y="0" type="line"/>
      <point x="953" y="46" type="line"/>
      <point x="878" y="46" type="line"/>
      <point x="878" y="652" type="line"/>
      <point x="953" y="652" type="line"/>
      <point x="953" y="698" type="line"/>
      <point x="717" y="698" type="line"/>
      <point x="717" y="652" type="line"/>
      <point x="792" y="652" type="line"/>
      <point x="792" y="49" type="line"/>
      <point x="547" y="49" type="line"/>
      <point x="547" y="652" type="line"/>
      <point x="622" y="652" type="line"/>
      <point x="622" y="698" type="line"/>
      <point x="386" y="698" type="line"/>
      <point x="386" y="652" type="line"/>
      <point x="461" y="652" type="line"/>
      <point x="461" y="49" type="line"/>
      <point x="216" y="49" type="line"/>
      <point x="216" y="652" type="line"/>
      <point x="291" y="652" type="line"/>
      <point x="291" y="698" type="line"/>
      <point x="55" y="698" type="line"/>
      <point x="55" y="652" type="line"/>
      <point x="130" y="652" type="line"/>
      <point x="130" y="46" type="line"/>
      <point x="55" y="46" type="line"/>
    </contour>
  </outline>
</glyph>
<glyph name="uni042B" format="2">
  <advance width="911"/>
  <unicode hex="042B"/>
  <note>
uni042B
</note>
  <anchor x="455" y="698" name="top"/>
  <outline>
    <contour>
      <point x="55" y="0" type="line"/>
      <point x="365" y="0" type="line" smooth="yes"/>
      <point x="462" y="0"/>
      <point x="567" y="103"/>
      <point x="567" y="204" type="qcurve" smooth="yes"/>
      <point x="567" y="304"/>
      <point x="462" y="407"/>
      <point x="365" y="407" type="qcurve" smooth="yes"/>
      <point x="216" y="407" type="line"/>
      <point x="216" y="652" type="line"/>
      <point x="291" y="652" type="line"/>
      <point x="291" y="698" type="line"/>
      <point x="55" y="698" type="line"/>
      <point x="55" y="652" type="line"/>
      <point x="130" y="652" type="line"/>
      <point x="130" y="46" type="line"/>
      <point x="55" y="46" type="line"/>
    </contour>
    <contour>
      <point x="620" y="0" type="line"/>
      <point x="856" y="0" type="line"/>
      <point x="856" y="46" type="line"/>
      <point x="781" y="46" type="line"/>
      <point x="781" y="652" type="line"/>
      <point x="856" y="652" type="line"/>
      <point x="856" y="698" type="line"/>
      <point x="620" y="698" type="line"/>
      <point x="620" y="652" type="line"/>
      <point x="695" y="652" type="line"/>
      <point x="695" y="46" type="line"/>
      <point x="620" y="46" type="line"/>
    </contour>
    <contour>
      <point x="216" y="49" type="line"/>
      <point x="216" y="358" type="line"/>
      <point x="361" y="358" type="line" smooth="yes"/>
      <point x="418" y="358"/>
      <point x="475" y="289"/>
      <point x="475" y="235" type="qcurve" smooth="yes"/>
      <point x="475" y="173" type="line" smooth="yes"/>
      <point x="475" y="118"/>
      <point x="418" y="49"/>
      <point x="361" y="49" type="qcurve" smooth="yes"/>
    </contour>
  </outline>
</glyph>
<glyph name="uni042C" format="2">
  <advance width="621"/>
  <unicode hex="042C"/>
  <note>
uni042C
</note>
  <outline>
    <contour>
      <point x="55" y="0" type="line"/>
      <point x="375" y="0" type="line" smooth="yes"/>
      <point x="472" y="0"/>
      <point x="577" y="103"/>
      <point x="577" y="204" type="qcurve" smooth="yes"/>
      <point x="577" y="304"/>
      <point x="472" y="407"/>
      <point x="375" y="407" type="qcurve" smooth="yes"/>
      <point x="216" y="407" type="line"/>
      <point x="216" y="652" type="line"/>
      <point x="291" y="652" type="line"/>
      <point x="291" y="698" type="line"/>
      <point x="55" y="698" type="line"/>
      <point x="55" y="652" type="line"/>
      <point x="130" y="652" type="line"/>
      <point x="130" y="46" type="line"/>
      <point x="55" y="46" type="line"/>
    </contour>
    <contour>
      <point x="216" y="49" type="line"/>
      <point x="216" y="358" type="line"/>
      <point x="371" y="358" type="line" smooth="yes"/>
      <point x="427" y="358"/>
      <point x="485" y="289"/>
      <point x="485" y="235" type="qcurve" smooth="yes"/>
      <point x="485" y="172" type="line" smooth="yes"/>
      <point x="485" y="118"/>
      <point x="427" y="49"/>
      <point x="371" y="49" type="qcurve" smooth="yes"/>
    </contour>
  </outline>
</glyph>
<glyph name="uni042D" format="2">
  <advance width="651"/>
  <unicode hex="042D"/>
  <note>
uni042D
</note>
  <outline>
    <contour>
      <point x="365" y="-12"/>
      <point x="479" y="38"/>
      <point x="559" y="132"/>
      <point x="601" y="265"/>
      <point x="601" y="349" type="qcurve" smooth="yes"/>
      <point x="601" y="435"/>
      <point x="560" y="569"/>
      <point x="486" y="662"/>
      <point x="382" y="710"/>
      <point x="320" y="710" type="qcurve" smooth="yes"/>
      <point x="253" y="710"/>
      <point x="170" y="668"/>
      <point x="148" y="635" type="qcurve"/>
      <point x="145" y="635" type="line"/>
      <point x="145" y="698" type="line"/>
      <point x="73" y="698" type="line"/>
      <point x="73" y="485" type="line"/>
      <point x="145" y="485" type="line"/>
      <point x="145" y="546" type="line" smooth="yes"/>
      <point x="145" y="596"/>
      <point x="232" y="662"/>
      <point x="304" y="662" type="qcurve" smooth="yes"/>
      <point x="355" y="662"/>
      <point x="431" y="625"/>
      <point x="480" y="560"/>
      <point x="504" y="470"/>
      <point x="504" y="417" type="qcurve" smooth="yes"/>
      <point x="504" y="379" type="line"/>
      <point x="214" y="379" type="line"/>
      <point x="214" y="330" type="line"/>
      <point x="504" y="330" type="line"/>
      <point x="504" y="293" type="line" smooth="yes"/>
      <point x="504" y="238"/>
      <point x="476" y="144"/>
      <point x="420" y="75"/>
      <point x="337" y="36"/>
      <point x="282" y="36" type="qcurve" smooth="yes"/>
      <point x="231" y="36"/>
      <point x="161" y="52"/>
      <point x="142" y="65" type="qcurve"/>
      <point x="142" y="67" type="line"/>
      <point x="155" y="72"/>
      <point x="178" y="104"/>
      <point x="178" y="125" type="qcurve" smooth="yes"/>
      <point x="178" y="152"/>
      <point x="145" y="187"/>
      <point x="119" y="187" type="qcurve" smooth="yes"/>
      <point x="92" y="187"/>
      <point x="59" y="151"/>
      <point x="59" y="121" type="qcurve" smooth="yes"/>
      <point x="59" y="97"/>
      <point x="90" y="49"/>
      <point x="149" y="11"/>
      <point x="236" y="-12"/>
      <point x="292" y="-12" type="qcurve" smooth="yes"/>
    </contour>
  </outline>
</glyph>
<glyph name="uni042F" format="2">
  <advance width="668"/>
  <unicode hex="042F"/>
  <note>
uni042F
</note>
  <outline>
    <contour>
      <point x="14" y="0" type="line"/>
      <point x="155" y="0" type="line"/>
      <point x="355" y="321" type="line"/>
      <point x="452" y="321" type="line"/>
      <point x="452" y="46" type="line"/>
      <point x="377" y="46" type="line"/>
      <point x="377" y="0" type="line"/>
      <point x="613" y="0" type="line"/>
      <point x="613" y="46" type="line"/>
      <point x="538" y="46" type="line"/>
      <point x="538" y="652" type="line"/>
      <point x="613" y="652" type="line"/>
      <point x="613" y="698" type="line"/>
      <point x="289" y="698" type="line" smooth="yes"/>
      <point x="195" y="698"/>
      <point x="91" y="595"/>
      <point x="91" y="507" type="qcurve" smooth="yes"/>
      <point x="91" y="425"/>
      <point x="181" y="335"/>
      <point x="285" y="330" type="qcurve"/>
      <point x="285" y="326" type="line"/>
      <point x="268" y="322"/>
      <point x="239" y="297"/>
      <point x="223" y="271" type="qcurve" smooth="yes"/>
      <point x="83" y="46" type="line"/>
      <point x="14" y="46" type="line"/>
    </contour>
    <contour>
      <point x="452" y="370" type="line"/>
      <point x="295" y="370" type="line" smooth="yes"/>
      <point x="241" y="370"/>
      <point x="183" y="437"/>
      <point x="183" y="486" type="qcurve" smooth="yes"/>
      <point x="183" y="533" type="line" smooth="yes"/>
      <point x="183" y="582"/>
      <point x="241" y="649"/>
      <point x="295" y="649" type="qcurve" smooth="yes"/>
      <point x="452" y="649" type="line"/>
    </contour>
  </outline>
</glyph>
<glyph name="uni0432" format="2">
  <advance width="560"/>
  <unicode hex="0432"/>
  <note>
uni0432
</note>
  <outline>
    <contour>
      <point x="50" y="0" type="line"/>
      <point x="340" y="0" type="line" smooth="yes"/>
      <point x="418" y="0"/>
      <point x="505" y="70"/>
      <point x="505" y="141" type="qcurve" smooth="yes"/>
      <point x="505" y="171"/>
      <point x="483" y="216"/>
      <point x="449" y="247"/>
      <point x="406" y="265"/>
      <point x="384" y="267" type="qcurve"/>
      <point x="384" y="271" type="line"/>
      <point x="427" y="280"/>
      <point x="488" y="336"/>
      <point x="488" y="393" type="qcurve" smooth="yes"/>
      <point x="488" y="448"/>
      <point x="410" y="516"/>
      <point x="338" y="516" type="qcurve" smooth="yes"/>
      <point x="50" y="516" type="line"/>
      <point x="50" y="471" type="line"/>
      <point x="124" y="471" type="line"/>
      <point x="124" y="46" type="line"/>
      <point x="50" y="46" type="line"/>
    </contour>
    <contour>
      <point x="206" y="49" type="line"/>
      <point x="206" y="238" type="line"/>
      <point x="332" y="238" type="line" smooth="yes"/>
      <point x="374" y="238"/>
      <point x="418" y="193"/>
      <point x="418" y="158" type="qcurve" smooth="yes"/>
      <point x="418" y="129" type="line" smooth="yes"/>
      <point x="418" y="94"/>
      <point x="375" y="49"/>
      <point x="332" y="49" type="qcurve" smooth="yes"/>
    </contour>
    <contour>
      <point x="206" y="287" type="line"/>
      <point x="206" y="467" type="line"/>
      <point x="322" y="467" type="line" smooth="yes"/>
      <point x="360" y="467"/>
      <point x="401" y="424"/>
      <point x="401" y="392" type="qcurve" smooth="yes"/>
      <point x="401" y="362" type="line" smooth="yes"/>
      <point x="401" y="330"/>
      <point x="360" y="287"/>
      <point x="322" y="287" type="qcurve" smooth="yes"/>
    </contour>
  </outline>
</glyph>
<glyph name="uni0434" format="2">
  <advance width="612"/>
  <unicode hex="0434"/>
  <note>
uni0434
</note>
  <outline>
    <contour>
      <point x="18" y="-150" type="line"/>
      <point x="92" y="-150" type="line"/>
      <point x="92" y="0" type="line"/>
      <point x="502" y="0" type="line"/>
      <point x="502" y="-150" type="line"/>
      <point x="576" y="-150" type="line"/>
      <point x="576" y="49" type="line"/>
      <point x="476" y="49" type="line"/>
      <point x="476" y="471" type="line"/>
      <point x="550" y="471" type="line"/>
      <point x="550" y="516" type="line"/>
      <point x="116" y="516" type="line"/>
      <point x="116" y="471" type="line"/>
      <point x="191" y="471" type="line"/>
      <point x="191" y="425" type="line" smooth="yes"/>
      <point x="191" y="294"/>
      <point x="136" y="109"/>
      <point x="90" y="49" type="qcurve"/>
      <point x="18" y="49" type="line"/>
    </contour>
    <contour>
      <point x="159" y="49" type="line"/>
      <point x="201" y="108"/>
      <point x="251" y="302"/>
      <point x="251" y="425" type="qcurve" smooth="yes"/>
      <point x="251" y="467" type="line"/>
      <point x="394" y="467" type="line"/>
      <point x="394" y="49" type="line"/>
    </contour>
  </outline>
</glyph>
<glyph name="uni0436" format="2">
  <advance width="798"/>
  <unicode hex="0436"/>
  <note>
uni0436
</note>
  <anchor x="398" y="540" name="top"/>
  <outline>
    <contour>
      <point x="15" y="0" type="line"/>
      <point x="136" y="0" type="line"/>
      <point x="285" y="238" type="line"/>
      <point x="359" y="238" type="line"/>
      <point x="359" y="46" type="line"/>
      <point x="285" y="46" type="line"/>
      <point x="285" y="0" type="line"/>
      <point x="513" y="0" type="line"/>
      <point x="513" y="46" type="line"/>
      <point x="439" y="46" type="line"/>
      <point x="439" y="238" type="line"/>
      <point x="512" y="238" type="line"/>
      <point x="662" y="0" type="line"/>
      <point x="783" y="0" type="line"/>
      <point x="783" y="46" type="line"/>
      <point x="727" y="46" type="line"/>
      <point x="615" y="224" type="line" smooth="yes"/>
      <point x="602" y="244"/>
      <point x="574" y="264"/>
      <point x="556" y="267" type="qcurve"/>
      <point x="611" y="393" type="line" smooth="yes"/>
      <point x="620" y="414"/>
      <point x="642" y="450"/>
      <point x="650" y="458" type="qcurve"/>
      <point x="653" y="458" type="line"/>
      <point x="653" y="400"/>
      <point x="705" y="400" type="qcurve" smooth="yes"/>
      <point x="729" y="400"/>
      <point x="761" y="434"/>
      <point x="761" y="462" type="qcurve" smooth="yes"/>
      <point x="761" y="490"/>
      <point x="724" y="528"/>
      <point x="691" y="528" type="qcurve" smooth="yes"/>
      <point x="657" y="528"/>
      <point x="597" y="479"/>
      <point x="568" y="412" type="qcurve" smooth="yes"/>
      <point x="512" y="284" type="line"/>
      <point x="439" y="284" type="line"/>
      <point x="439" y="471" type="line"/>
      <point x="513" y="471" type="line"/>
      <point x="513" y="516" type="line"/>
      <point x="285" y="516" type="line"/>
      <point x="285" y="471" type="line"/>
      <point x="359" y="471" type="line"/>
      <point x="359" y="284" type="line"/>
      <point x="285" y="284" type="line"/>
      <point x="229" y="412" type="line" smooth="yes"/>
      <point x="200" y="479"/>
      <point x="141" y="528"/>
      <point x="107" y="528" type="qcurve" smooth="yes"/>
      <point x="73" y="528"/>
      <point x="37" y="490"/>
      <point x="37" y="462" type="qcurve" smooth="yes"/>
      <point x="37" y="434"/>
      <point x="68" y="400"/>
      <point x="93" y="400" type="qcurve" smooth="yes"/>
      <point x="145" y="400"/>
      <point x="145" y="458" type="qcurve"/>
      <point x="148" y="458" type="line"/>
      <point x="156" y="450"/>
      <point x="177" y="414"/>
      <point x="186" y="393" type="qcurve" smooth="yes"/>
      <point x="241" y="267" type="line"/>
      <point x="224" y="264"/>
      <point x="195" y="244"/>
      <point x="183" y="224" type="qcurve" smooth="yes"/>
      <point x="71" y="46" type="line"/>
      <point x="15" y="46" type="line"/>
    </contour>
  </outline>
</glyph>
